<?xml version="1.0" encoding="UTF-8"?>
<!DOCTYPE svg PUBLIC "-//W3C//DTD SVG 1.0//EN" "http://www.w3.org/TR/2001/REC-SVG-20010904/DTD/svg10.dtd">
<!-- Creator: CorelDRAW 2018 (64-Bit) -->
<svg xmlns="http://www.w3.org/2000/svg" xml:space="preserve" width="181px" height="181px" version="1.0" style="shape-rendering:geometricPrecision; text-rendering:geometricPrecision; image-rendering:optimizeQuality; fill-rule:evenodd; clip-rule:evenodd"
viewBox="0 0 117.38 117.38"
 xmlns:xlink="http://www.w3.org/1999/xlink">
 <defs>
  <style type="text/css">
   <![CDATA[
    .fil0 {fill:none}
    .fil1 {fill:#F8EC7D;fill-rule:nonzero}
   ]]>
  </style>
 </defs>
 <g id="Слой_x0020_1">
  <metadata id="CorelCorpID_0Corel-Layer"/>
  <rect class="fil0" width="117.38" height="117.38"/>
  <path class="fil1" d="M88.73 40.64l-0.08 -0.19c-0.24,-0.61 -12.62,-28.02 -12.62,-28.02 0,0 -12.39,27.4 -12.61,28l-0.08 0.21c-0.5,1.41 -0.8,2.94 -0.8,4.54 0,7.46 6.04,13.51 13.49,13.51 7.46,0 13.5,-6.05 13.5,-13.51 0,-1.6 -0.3,-3.13 -0.8,-4.54zm-17.34 46.26l-0.08 -0.2c-0.24,-0.61 -12.62,-28.01 -12.62,-28.01 0,0 -12.4,27.4 -12.62,27.99l-0.08 0.22c-0.5,1.41 -0.79,2.93 -0.79,4.54 0,7.46 6.04,13.51 13.49,13.51 7.45,0 13.49,-6.05 13.49,-13.51 0,-1.61 -0.29,-3.13 -0.79,-4.54zm-25.06 -32.77l-0.08 -0.19c-0.24,-0.61 -12.62,-28.02 -12.62,-28.02 0,0 -12.4,27.4 -12.61,28l-0.09 0.21c-0.5,1.41 -0.79,2.94 -0.79,4.54 0,7.47 6.04,13.51 13.49,13.51 7.46,0 13.49,-6.04 13.49,-13.51 0,-1.6 -0.29,-3.13 -0.79,-4.54z"/>
 </g>
</svg>
