<?xml version="1.0" encoding="UTF-8"?>
<!DOCTYPE svg PUBLIC "-//W3C//DTD SVG 1.0//EN" "http://www.w3.org/TR/2001/REC-SVG-20010904/DTD/svg10.dtd">
<!-- Creator: CorelDRAW 2018 (64-Bit) -->
<svg xmlns="http://www.w3.org/2000/svg" xml:space="preserve" width="181px" height="181px" version="1.0" style="shape-rendering:geometricPrecision; text-rendering:geometricPrecision; image-rendering:optimizeQuality; fill-rule:evenodd; clip-rule:evenodd"
viewBox="0 0 29.07 29.07"
 xmlns:xlink="http://www.w3.org/1999/xlink">
 <defs>
  <style type="text/css">
   <![CDATA[
    .fil1 {fill:none}
    .fil0 {fill:#536487;fill-rule:nonzero}
   ]]>
  </style>
 </defs>
 <g id="Слой_x0020_1">
  <metadata id="CorelCorpID_0Corel-Layer"/>
  <path class="fil0" d="M23.13 15.08c-1.58,0 -2.87,1.29 -2.87,2.87 0,0.73 0.28,1.4 0.74,1.91l-17.92 0 0 0.95 20.05 0c1.58,0 2.86,-1.28 2.86,-2.86 0,-1.58 -1.28,-2.87 -2.86,-2.87zm-9.4 0.04l0 -6.86 0.96 0 0 6.86 1.35 0 -1.83 4.27 -1.83 -4.27 1.35 0zm-4.39 0l0 -6.86 0.96 0 0 6.86 1.35 0 -1.83 4.27 -1.83 -4.27 1.35 0zm-4.38 0l0 -6.86 0.95 0 0 6.86 1.35 0 -1.82 4.27 -1.83 -4.27 1.35 0z"/>
  <rect class="fil1" width="29.07" height="29.07"/>
 </g>
</svg>
