<?xml version="1.0" encoding="UTF-8"?>
<!DOCTYPE svg PUBLIC "-//W3C//DTD SVG 1.0//EN" "http://www.w3.org/TR/2001/REC-SVG-20010904/DTD/svg10.dtd">
<!-- Creator: CorelDRAW 2018 (64-Bit) -->
<svg xmlns="http://www.w3.org/2000/svg" xml:space="preserve" width="181px" height="181px" version="1.0" style="shape-rendering:geometricPrecision; text-rendering:geometricPrecision; image-rendering:optimizeQuality; fill-rule:evenodd; clip-rule:evenodd"
viewBox="0 0 36.89 36.89"
 xmlns:xlink="http://www.w3.org/1999/xlink">
 <defs>
  <style type="text/css">
   <![CDATA[
    .fil0 {fill:none}
    .fil1 {fill:#FE99A9}
    .fil2 {fill:#FE99A9;fill-rule:nonzero}
   ]]>
  </style>
 </defs>
 <g id="Слой_x0020_1">
  <metadata id="CorelCorpID_0Corel-Layer"/>
  <rect class="fil0" width="36.89" height="36.89"/>
  <path class="fil1" d="M18.45 17.08c0.31,0 0.6,0.11 0.84,0.29l5.11 -2.91c0.25,-0.14 0.57,-0.06 0.71,0.19 0.14,0.25 0.06,0.57 -0.19,0.72l-5.12 2.91c0.01,0.05 0.01,0.11 0.01,0.17 0,0.75 -0.61,1.36 -1.36,1.36 -0.76,0 -1.37,-0.61 -1.37,-1.36 0,-0.06 0,-0.12 0.01,-0.18l-3.27 -1.89c-0.25,-0.14 -0.33,-0.46 -0.19,-0.71 0.14,-0.25 0.46,-0.34 0.71,-0.19l3.27 1.88c0.23,-0.17 0.52,-0.28 0.84,-0.28z"/>
  <path class="fil2" d="M18.45 6.43c3.32,0 6.32,1.34 8.5,3.52 2.17,2.17 3.52,5.18 3.52,8.5 0,3.32 -1.35,6.32 -3.52,8.5 -2.18,2.17 -5.18,3.52 -8.5,3.52 -3.32,0 -6.33,-1.35 -8.5,-3.52 -2.18,-2.18 -3.52,-5.18 -3.52,-8.5 0,-3.32 1.34,-6.33 3.52,-8.5 2.17,-2.18 5.18,-3.52 8.5,-3.52zm7.5 4.51c-1.92,-1.92 -4.57,-3.11 -7.5,-3.11 -2.93,0 -5.59,1.19 -7.51,3.11 -1.92,1.92 -3.11,4.58 -3.11,7.51 0,2.93 1.19,5.58 3.11,7.51 1.92,1.92 4.58,3.1 7.51,3.1 2.93,0 5.58,-1.18 7.5,-3.1 1.93,-1.93 3.11,-4.58 3.11,-7.51 0,-2.93 -1.18,-5.59 -3.11,-7.51z"/>
 </g>
</svg>
