<?xml version="1.0" encoding="UTF-8"?>
<!DOCTYPE svg PUBLIC "-//W3C//DTD SVG 1.0//EN" "http://www.w3.org/TR/2001/REC-SVG-20010904/DTD/svg10.dtd">
<!-- Creator: CorelDRAW 2018 (64-Bit) -->
<svg xmlns="http://www.w3.org/2000/svg" xml:space="preserve" width="2252px" height="2252px" version="1.0" style="shape-rendering:geometricPrecision; text-rendering:geometricPrecision; image-rendering:optimizeQuality; fill-rule:evenodd; clip-rule:evenodd"
viewBox="0 0 325.45 325.45"
 xmlns:xlink="http://www.w3.org/1999/xlink">
 <defs>
  <style type="text/css">
   <![CDATA[
    .fil0 {fill:none}
    .fil2 {fill:#C88850}
    .fil1 {fill:#CAD2D8}
   ]]>
  </style>
 </defs>
 <g id="Слой_x0020_1">
  <metadata id="CorelCorpID_0Corel-Layer"/>
  <rect class="fil0" transform="matrix(2.64845E-14 1 -1 2.64845E-14 325.45 -3.63798E-12)" width="325.45" height="325.45"/>
  <path class="fil1" d="M102.98 107.34l-8.64 23.83 -6.64 0 -5.37 -14.79 -5.53 14.79 -6.65 0 -8.59 -23.83 6.51 0 5.63 16.12 5.84 -16.12 5.85 0 5.67 16.12 5.81 -16.12 6.11 0zm163.47 -6.99c0,-2.51 -2.04,-4.55 -4.55,-4.55 -2.51,0 -4.54,2.04 -4.54,4.55 0,0.04 0,0.08 0,0.11 0,0.04 0,0.08 0.01,0.12 0,0.04 0,0.08 0,0.12 0.01,0.04 0.01,0.07 0.01,0.11l0 0 0.02 0.12c0,0.03 0.01,0.07 0.01,0.11l0 0 0.02 0.11 0.02 0.11 0 0c0.01,0.04 0.02,0.08 0.03,0.11l0.02 0.11 0.03 0.11 0.03 0.11 0.04 0.1c0.01,0.04 0.02,0.07 0.04,0.11l0.03 0.1c0.02,0.04 0.03,0.07 0.05,0.11 0.01,0.03 0.03,0.06 0.04,0.1l0.05 0.1 0.05 0.1 0.05 0.09 0 0c0.02,0.04 0.03,0.07 0.05,0.1l0.06 0.09 0 0 0.06 0.1c0.01,0.03 0.03,0.06 0.06,0.09l0 0 0.06 0.09 0.06 0.09c0.02,0.02 0.05,0.05 0.07,0.08l0 0 0.07 0.09 0 0 0.07 0.08 0 0 0.07 0.08 0.07 0.08c0.03,0.03 0.05,0.05 0.08,0.08l0 0 0.08 0.08c0.02,0.02 0.05,0.05 0.08,0.07l0.08 0.07 0.08 0.07c0.03,0.03 0.06,0.05 0.09,0.07l0.08 0.07 0.09 0.06 0.09 0.06 0.09 0.06 0 0 0.1 0.06 0.09 0.06 0.1 0.05 0.09 0.05 0.1 0.05c0.04,0.02 0.07,0.03 0.1,0.05l0.1 0.04c0.04,0.02 0.07,0.03 0.11,0.05 0.03,0.01 0.07,0.02 0.1,0.03 0.03,0.02 0.07,0.03 0.11,0.04l0.1 0.04 0.11 0.03 0.11 0.03c0.03,0.01 0.07,0.02 0.11,0.02 0.03,0.01 0.07,0.02 0.11,0.03l0.11 0.02c0.04,0.01 0.07,0.01 0.11,0.02 0.04,0 0.08,0.01 0.11,0.01l0.12 0.02c0.04,0 0.07,0 0.11,0.01l0.12 0 0.11 0.01c0.04,0 0.08,0 0.12,0 0.04,0 0.08,0 0.12,0 0.04,0 0.08,0 0.12,-0.01 0.03,0 0.07,0 0.11,0 0.04,-0.01 0.08,-0.01 0.12,-0.01l0.11 -0.02c0.04,0 0.08,-0.01 0.11,-0.01l0.12 -0.02 0.11 -0.02c0.03,-0.01 0.07,-0.02 0.11,-0.03l0.11 -0.02 0.11 -0.03 0.1 -0.03 0.11 -0.04c0.03,-0.01 0.07,-0.02 0.1,-0.04l0.11 -0.03c0.03,-0.02 0.07,-0.03 0.1,-0.05 0.03,-0.01 0.07,-0.03 0.1,-0.04l0.1 -0.05 0.1 -0.05 0.1 -0.05c0.03,-0.02 0.06,-0.03 0.09,-0.05l0.1 -0.06 0.09 -0.06 0 0 0.09 -0.06 0.09 -0.06 0.09 -0.06 0.09 -0.07 0.08 -0.07 0.09 -0.07 0.08 -0.07 0.08 -0.07c0.02,-0.03 0.05,-0.05 0.07,-0.08l0 0 0.08 -0.08 0.07 -0.08c0.03,-0.03 0.05,-0.05 0.08,-0.08l0 0c0.02,-0.03 0.04,-0.05 0.07,-0.08l0 0 0.07 -0.09 0 0c0.02,-0.03 0.04,-0.06 0.06,-0.08 0.02,-0.03 0.05,-0.06 0.07,-0.09l0.06 -0.09 0 0c0.02,-0.03 0.04,-0.06 0.06,-0.09 0.02,-0.03 0.04,-0.07 0.06,-0.1l0 0 0.05 -0.09c0.02,-0.03 0.04,-0.06 0.06,-0.1l0 0 0.05 -0.09 0.05 -0.1 0.04 -0.1 0.05 -0.1c0.01,-0.04 0.03,-0.07 0.04,-0.11 0.01,-0.03 0.03,-0.07 0.04,-0.1 0.01,-0.04 0.02,-0.07 0.04,-0.11l0.03 -0.1 0.03 -0.11 0.03 -0.11c0.01,-0.03 0.02,-0.07 0.03,-0.11 0.01,-0.03 0.02,-0.07 0.02,-0.11l0 0 0.02 -0.11c0.01,-0.04 0.02,-0.07 0.02,-0.11l0 0c0.01,-0.04 0.01,-0.08 0.02,-0.11l0.01 -0.12 0 0c0.01,-0.04 0.01,-0.07 0.01,-0.11l0.01 -0.12c0,-0.04 0,-0.08 0,-0.12 0,-0.03 0.01,-0.07 0.01,-0.11zm-111.24 132.89c-0.74,-0.2 -1.47,-0.39 -2.2,-0.59 -7.38,-1.99 -14,-3.98 -21.08,-4.56 -7.09,-0.58 -14.64,0.26 -22.36,0.68 -7.72,0.41 -15.61,0.41 -24.05,-4.62 -8.45,-5.04 -17.45,-15.11 -21.95,-26.08 -4.5,-10.96 -4.5,-22.82 -1.61,-33.21 2.89,-10.39 8.67,-19.31 17.08,-25.94 3.24,-2.55 6.85,-4.75 10.57,-6.8l2.36 1.16 6.65 0 2.66 -7.33c1.16,-0.62 2.3,-1.25 3.41,-1.89l0 0c-0.61,-1.47 -0.91,-3.07 -0.91,-4.8 0,-2.34 0.55,-4.44 1.66,-6.32 1.1,-1.87 2.63,-3.33 4.56,-4.38 1.93,-1.05 4.1,-1.58 6.49,-1.58 2.33,0 4.44,0.51 6.33,1.51 1.89,1.01 3.38,2.45 4.46,4.32 1.07,1.88 1.61,4.05 1.61,6.53 0,0.09 -0.04,0.71 -0.13,1.87l-18.03 0c0.33,1.47 1.09,2.64 2.3,3.49 0.92,0.66 2.01,1.06 3.27,1.22 -0.64,-0.73 -1.07,-1.59 -1.29,-2.61l16.34 0 0 0c0.17,-1.43 0.75,-2.63 1.73,-3.61l0 0c-0.2,-1.77 -0.71,-3.36 -1.52,-4.78 -1.08,-1.88 -2.57,-3.32 -4.46,-4.32 -0.11,-0.06 -0.22,-0.12 -0.34,-0.18l-3.05 -1.5c1.43,-1.41 2.86,-2.84 4.31,-4.29 1.44,-1.42 2.9,-2.85 4.39,-4.27 3.6,-0.26 6.4,-1.53 8.38,-3.8l-1.91 -2.07c3.39,-2.89 6.9,-5.56 10.52,-7.75 7.65,-4.63 15.79,-7.13 24.1,-7.21 8.31,-0.08 16.78,2.25 24.49,6.12 7.71,3.88 14.65,9.29 19.57,15.37 1.57,1.93 2.92,3.94 4.1,5.97 2.17,0.05 4.15,0.55 5.93,1.5 1.89,1.01 3.38,2.45 4.45,4.32 1.08,1.88 1.62,4.05 1.62,6.53 0,0.09 -0.04,0.71 -0.13,1.87l-18.03 0c0.32,1.47 1.09,2.64 2.3,3.49 0.92,0.66 2.01,1.06 3.27,1.22 -0.64,-0.73 -1.07,-1.59 -1.29,-2.61l7.81 0c0.05,0.29 0.1,0.58 0.15,0.87 0.19,-0.15 0.38,-0.32 0.56,-0.49l3.68 3.98c-2.25,2.57 -5.52,3.86 -9.84,3.86 -2.6,0 -4.91,-0.5 -6.93,-1.48l4.22 2.08c2.03,1 4.37,1.51 6.99,1.51 1.01,0 1.96,-0.07 2.85,-0.21 0.28,1.42 0.62,2.84 1.06,4.24 1.73,5.61 5.03,11.11 8.75,14.29 3.73,3.19 7.87,4.06 13.19,7.85 5.33,3.79 11.83,10.5 15.58,17.85 3.75,7.35 4.75,15.32 3.02,22.62 -1.72,7.29 -6.16,13.91 -13.61,19.19 -7.44,5.28 -17.89,9.23 -29.17,9.47 -0.79,0.01 -1.58,0.01 -2.37,-0.01 3.96,-6.51 6.25,-14.16 6.25,-22.34 0,-23.75 -19.26,-43.01 -43.01,-43.01 -23.75,0 -43,19.26 -43,43.01 0,10.06 3.46,19.32 9.25,26.65zm-44.77 -103.19l4.22 2.08c2.04,1 4.37,1.51 7,1.51 4.31,0 7.59,-1.29 9.83,-3.86l-3.68 -3.99 -4.28 -2.1 3.68 3.98c-2.24,2.57 -5.52,3.86 -9.83,3.86 -2.61,0 -4.92,-0.5 -6.94,-1.48zm24.77 0.44l0.01 0.01 4.28 2.1c0.07,0.04 0.14,0.07 0.21,0.1 1.34,0.62 2.93,0.94 4.76,0.94 2.22,0 4,-0.44 5.34,-1.31l1.92 0.95 6.47 0 0 -13.6c0,-3.54 -0.99,-6.19 -2.97,-7.95 -0.59,-0.53 -1.26,-0.98 -2.01,-1.35l-4.28 -2.11 -0.03 -0.01c0.76,0.37 1.44,0.83 2.04,1.36 1.98,1.76 2.97,4.41 2.97,7.95l0 13.6 -6.46 0 0 -2.97c-1.3,2.22 -3.73,3.33 -7.27,3.33 -1.83,0 -3.42,-0.31 -4.76,-0.93 -0.08,-0.04 -0.15,-0.07 -0.22,-0.11zm-0.56 -15.8l4.28 2.11c0.86,-0.68 1.9,-1.22 3.13,-1.62 1.22,-0.39 2.47,-0.59 3.74,-0.59 0.2,0 0.4,0 0.59,0.01 0.22,0.37 0.38,0.79 0.48,1.25 -0.19,-0.88 -0.61,-1.6 -1.23,-2.15 -0.92,-0.82 -2.29,-1.22 -4.12,-1.22 -1.27,0 -2.52,0.2 -3.74,0.6 -1.23,0.39 -2.27,0.93 -3.13,1.61zm-54.57 -17.89c-0.68,0.5 -1.52,0.87 -2.51,1.13 -0.99,0.25 -2.03,0.37 -3.12,0.37 -2.84,0 -5.03,-0.72 -6.58,-2.17 -1.55,-1.45 -2.32,-3.57 -2.32,-6.38l0 -9.79 -3.68 0 0 -5.31 3.68 0 0 -5.81 6.91 0 0 5.81 5.93 0 0 5.31 -5.93 0 0 9.7c0,1.01 0.25,1.78 0.77,2.33 0.52,0.55 1.25,0.82 2.19,0.82 1.1,0 2.03,-0.3 2.79,-0.89l1.87 4.88zm18.38 -23.04c2.95,0 5.34,0.89 7.15,2.66 1.82,1.77 2.73,4.4 2.73,7.88l0 13.65 -6.91 0 0 -12.58c0,-1.89 -0.42,-3.3 -1.24,-4.23 -0.83,-0.93 -2.03,-1.4 -3.59,-1.4 -1.74,0 -3.13,0.54 -4.16,1.62 -1.04,1.08 -1.56,2.68 -1.56,4.8l0 11.79 -6.91 0 0 -32.87 6.91 0 0 11.52c0.92,-0.92 2.03,-1.62 3.33,-2.11 1.3,-0.49 2.71,-0.73 4.25,-0.73zm39.74 12.36c0,0.09 -0.05,0.71 -0.14,1.86l-18.03 0c0.33,1.48 1.1,2.64 2.31,3.5 1.21,0.86 2.71,1.28 4.52,1.28 1.24,0 2.34,-0.18 3.3,-0.55 0.96,-0.37 1.85,-0.95 2.68,-1.75l3.67 3.99c-2.24,2.57 -5.52,3.85 -9.83,3.85 -2.69,0 -5.07,-0.52 -7.13,-1.57 -2.07,-1.05 -3.67,-2.5 -4.79,-4.36 -1.12,-1.86 -1.68,-3.98 -1.68,-6.34 0,-2.33 0.55,-4.44 1.66,-6.31 1.11,-1.88 2.63,-3.34 4.56,-4.39 1.94,-1.05 4.1,-1.57 6.49,-1.57 2.34,0 4.45,0.5 6.34,1.51 1.89,1 3.37,2.44 4.45,4.32 1.08,1.87 1.62,4.05 1.62,6.53zm-12.36 -7.13c-1.57,0 -2.88,0.44 -3.95,1.33 -1.06,0.88 -1.71,2.09 -1.94,3.63l11.73 0c-0.23,-1.51 -0.88,-2.71 -1.94,-3.61 -1.07,-0.9 -2.37,-1.35 -3.9,-1.35zm-9.31 33.22c-1.56,0 -2.88,0.45 -3.94,1.33 -1.06,0.89 -1.71,2.1 -1.95,3.63l4.97 0c0.32,-0.58 0.74,-1.09 1.26,-1.52 1.06,-0.89 2.38,-1.33 3.94,-1.33 0.13,0 0.25,0 0.37,0.01 0.28,0.35 0.52,0.74 0.71,1.17 -0.34,-0.76 -0.82,-1.4 -1.46,-1.94 -1.06,-0.9 -2.36,-1.35 -3.9,-1.35zm25.39 14.67c0.32,0 0.63,-0.02 0.93,-0.07 -0.15,0.02 -0.3,0.04 -0.46,0.05 -0.06,-0.24 -0.09,-0.49 -0.09,-0.76 0,-1.86 1.42,-2.79 4.25,-2.79l0.46 0 0 -2.1 -4.74 0c-2.83,0 -4.25,0.93 -4.25,2.79 0,0.88 0.35,1.58 1.04,2.1 0.69,0.52 1.65,0.78 2.86,0.78zm0.98 -0.07c0.32,-0.05 0.63,-0.12 0.93,-0.21 -0.3,0.09 -0.61,0.16 -0.93,0.21zm1.07 -0.25c0.07,-0.02 0.14,-0.05 0.2,-0.07 -0.06,0.02 -0.13,0.05 -0.2,0.07zm31.57 3.46c-0.68,0.5 -1.51,0.88 -2.5,1.13 -0.99,0.25 -2.03,0.38 -3.12,0.38 -1.91,0 -3.52,-0.33 -4.85,-0.98l4.28 2.11c1.33,0.65 2.94,0.98 4.84,0.98 1.1,0 2.14,-0.13 3.13,-0.38 0.99,-0.25 1.82,-0.63 2.5,-1.13l-0.36 -0.95 4.26 2.1 6.91 0 0 -11.78c0,-2.13 0.52,-3.73 1.55,-4.81 1,-1.04 2.32,-1.58 3.98,-1.61 0.22,0.4 0.39,0.86 0.51,1.38 -0.2,-0.86 -0.54,-1.56 -1.02,-2.1 -0.82,-0.93 -2.02,-1.39 -3.59,-1.39 -1.74,0 -3.13,0.53 -4.16,1.61 -1.03,1.08 -1.55,2.68 -1.55,4.81l0 11.78 -6.91 0 0 -0.04 -1.48 -3.87 -4.28 -2.11 1.86 4.87zm-12.06 -0.53c-0.05,-0.05 -0.1,-0.09 -0.14,-0.13 0.04,0.04 0.09,0.08 0.14,0.13zm-2.47 -14.49l0 -1.81 -3.68 0 3.68 1.81zm6.91 -12.93l0 5.8 4.28 0 0 -3.69 -4.28 -2.11zm5.94 5.8l0 5.32 -5.94 0 0 9.7c0,1 0.26,1.78 0.78,2.32 0.51,0.55 1.24,0.82 2.19,0.82 0.49,0 0.96,-0.06 1.38,-0.18 -0.04,-0.26 -0.07,-0.55 -0.07,-0.85l0 -9.7 5.94 0 0 -5.32 -4.28 -2.11zm-1.42 17.93c0.07,-0.02 0.14,-0.05 0.21,-0.07 -0.07,0.02 -0.14,0.05 -0.21,0.07zm0.24 -0.08c0.06,-0.03 0.13,-0.06 0.2,-0.09 -0.07,0.03 -0.14,0.06 -0.2,0.09zm21.25 -18.74c0.08,0 0.16,0.01 0.24,0.01 -0.08,0 -0.16,-0.01 -0.24,-0.01zm4.87 1.04c0.84,0.42 1.6,0.96 2.28,1.62 1.82,1.77 2.72,4.4 2.72,7.89l0 13.64 -6.91 0 4.28 2.11 6.91 0 0 -13.64c0,-3.49 -0.9,-6.12 -2.72,-7.89 -0.68,-0.67 -1.45,-1.21 -2.29,-1.62l-4.27 -2.11zm-2.07 8.71c-0.01,-0.07 -0.03,-0.15 -0.04,-0.22 0.01,0.07 0.03,0.15 0.04,0.22zm-10.38 -18.43l0 11.52c0.92,-0.92 2.02,-1.62 3.32,-2.1 0.31,-0.12 0.63,-0.22 0.96,-0.31l0 -7 -4.28 -2.11zm34.95 13.91c-1.56,0 -2.88,0.45 -3.94,1.33 -1.06,0.89 -1.71,2.1 -1.95,3.63l4.97 0c0.32,-0.58 0.74,-1.09 1.26,-1.52 0.96,-0.8 2.12,-1.24 3.48,-1.32 0.36,0.96 0.68,1.9 0.97,2.84l1.06 0c-0.24,-1.5 -0.89,-2.71 -1.95,-3.61 -1.06,-0.9 -2.36,-1.35 -3.9,-1.35zm23.57 -1.73c0.83,-1.15 1.94,-2.02 3.34,-2.61 1.41,-0.59 3.02,-0.89 4.86,-0.89l0 6.38c-0.77,-0.06 -1.29,-0.08 -1.56,-0.08 -1.97,0 -3.52,0.55 -4.65,1.66 -1.12,1.1 -1.68,2.77 -1.68,4.98l0 11.25 -6.91 0 0 -23.83 6.6 0 0 3.14z"/>
  <path class="fil2" d="M188.96 163.58c23.75,0 43.01,19.26 43.01,43.01 0,23.75 -19.26,43 -43.01,43 -23.75,0 -43,-19.25 -43,-43 0,-23.75 19.25,-43.01 43,-43.01zm22 -15.68c3.47,1.3 5.02,5.74 3.45,9.92 -1.57,4.18 -5.65,6.52 -9.12,5.22 -3.47,-1.3 -5.01,-5.75 -3.44,-9.93 1.56,-4.18 5.65,-6.51 9.11,-5.21zm-47.94 1.63c3.37,-1.53 7.61,0.52 9.45,4.58 1.85,4.07 0.62,8.61 -2.76,10.14 -3.37,1.53 -7.6,-0.52 -9.45,-4.58 -1.85,-4.07 -0.61,-8.61 2.76,-10.14zm83 31.12c1.53,3.37 -0.52,7.6 -4.58,9.45 -4.07,1.85 -8.6,0.61 -10.14,-2.76 -1.53,-3.37 0.52,-7.61 4.58,-9.45 4.07,-1.85 8.61,-0.62 10.14,2.76zm1.63 47.94c-1.3,3.47 -5.74,5.01 -9.92,3.44 -4.18,-1.56 -6.52,-5.65 -5.22,-9.11 1.3,-3.47 5.75,-5.02 9.93,-3.45 4.18,1.57 6.51,5.65 5.21,9.12zm-32.75 35.06c-3.37,1.53 -7.6,-0.52 -9.45,-4.59 -1.85,-4.06 -0.61,-8.6 2.76,-10.13 3.38,-1.54 7.61,0.52 9.46,4.58 1.84,4.06 0.61,8.6 -2.77,10.14zm-47.94 1.63c-3.47,-1.3 -5.01,-5.75 -3.44,-9.93 1.56,-4.18 5.65,-6.51 9.12,-5.21 3.47,1.3 5.01,5.74 3.44,9.92 -1.57,4.18 -5.65,6.52 -9.12,5.22zm-35.06 -32.75c-1.53,-3.37 0.52,-7.6 4.59,-9.45 4.06,-1.85 8.6,-0.61 10.13,2.76 1.54,3.37 -0.52,7.6 -4.58,9.45 -4.06,1.85 -8.6,0.61 -10.14,-2.76zm-1.63 -47.94c1.3,-3.47 5.75,-5.02 9.93,-3.45 4.18,1.57 6.51,5.65 5.21,9.12 -1.3,3.47 -5.74,5.01 -9.92,3.45 -4.18,-1.57 -6.52,-5.65 -5.22,-9.12z"/>
 </g>
</svg>
