<?xml version="1.0" encoding="UTF-8"?>
<!DOCTYPE svg PUBLIC "-//W3C//DTD SVG 1.0//EN" "http://www.w3.org/TR/2001/REC-SVG-20010904/DTD/svg10.dtd">
<!-- Creator: CorelDRAW 2018 (64-Bit) -->
<svg xmlns="http://www.w3.org/2000/svg" xml:space="preserve" width="181px" height="181px" version="1.0" style="shape-rendering:geometricPrecision; text-rendering:geometricPrecision; image-rendering:optimizeQuality; fill-rule:evenodd; clip-rule:evenodd"
viewBox="0 0 15.92 15.92"
 xmlns:xlink="http://www.w3.org/1999/xlink">
 <defs>
  <style type="text/css">
   <![CDATA[
    .fil1 {fill:none}
    .fil0 {fill:#FF753E;fill-rule:nonzero}
   ]]>
  </style>
 </defs>
 <g id="Слой_x0020_1">
  <metadata id="CorelCorpID_0Corel-Layer"/>
  <path class="fil0" d="M12.66 4.95c-0.86,0 -1.56,0.71 -1.56,1.57 0,0.4 0.15,0.77 0.4,1.05l-9.81 0 0 0.52 10.97 0c0.87,0 1.57,-0.7 1.57,-1.57 0,-0.86 -0.7,-1.57 -1.57,-1.57zm-3.39 4.71l0 0 0 0 0 0 -7.58 0 0 0.52 6.01 0 0 0 0.33 0c-0.25,0.28 -0.41,0.64 -0.41,1.05 0,0.86 0.71,1.57 1.57,1.57 0.87,0 1.57,-0.71 1.57,-1.57 0,-0.84 -0.66,-1.53 -1.49,-1.57zm-1.57 -4.97c0,-0.86 -0.7,-1.57 -1.57,-1.57 -0.87,0 -1.57,0.71 -1.57,1.57 0,0.4 0.15,0.77 0.4,1.05l-3.27 0 0 0.52 4.44 0c0.87,0 1.57,-0.7 1.57,-1.57z"/>
  <rect class="fil1" width="15.92" height="15.92"/>
 </g>
</svg>
