<?xml version="1.0" encoding="UTF-8"?>
<!DOCTYPE svg PUBLIC "-//W3C//DTD SVG 1.0//EN" "http://www.w3.org/TR/2001/REC-SVG-20010904/DTD/svg10.dtd">
<!-- Creator: CorelDRAW 2018 (64-Bit) -->
<svg xmlns="http://www.w3.org/2000/svg" xml:space="preserve" width="143px" height="110px" version="1.0" style="shape-rendering:geometricPrecision; text-rendering:geometricPrecision; image-rendering:optimizeQuality; fill-rule:evenodd; clip-rule:evenodd"
viewBox="0 0 0.79 0.61"
 xmlns:xlink="http://www.w3.org/1999/xlink">
 <defs>
  <style type="text/css">
   <![CDATA[
    .fil0 {fill:#FE99A9;fill-rule:nonzero}
   ]]>
  </style>
 </defs>
 <g id="Слой_x0020_1">
  <metadata id="CorelCorpID_0Corel-Layer"/>
  <path class="fil0" d="M0.69 0.12c-0.05,0 -0.1,0.04 -0.1,0.09 0,0.03 0.01,0.05 0.03,0.07l-0.62 0 0 0.03 0.69 0c0.06,0 0.1,-0.04 0.1,-0.1 0,-0.05 -0.04,-0.09 -0.1,-0.09zm-0.21 0.29l0 0 0 0 0 0 -0.48 0 0 0.04 0.38 0 0 0 0.02 0c-0.01,0.01 -0.02,0.04 -0.02,0.06 0,0.06 0.04,0.1 0.09,0.1 0.06,0 0.1,-0.04 0.1,-0.1 0,-0.05 -0.04,-0.09 -0.09,-0.1zm-0.1 -0.31c0,-0.06 -0.04,-0.1 -0.1,-0.1 -0.05,0 -0.1,0.04 -0.1,0.1 0,0.02 0.01,0.05 0.03,0.07l-0.21 0 0 0.03 0.28 0c0.06,0 0.1,-0.05 0.1,-0.1z"/>
 </g>
</svg>
