<?xml version="1.0" encoding="UTF-8"?>
<!DOCTYPE svg PUBLIC "-//W3C//DTD SVG 1.0//EN" "http://www.w3.org/TR/2001/REC-SVG-20010904/DTD/svg10.dtd">
<!-- Creator: CorelDRAW 2018 (64-Bit) -->
<svg xmlns="http://www.w3.org/2000/svg" xml:space="preserve" width="145px" height="144px" version="1.0" style="shape-rendering:geometricPrecision; text-rendering:geometricPrecision; image-rendering:optimizeQuality; fill-rule:evenodd; clip-rule:evenodd"
viewBox="0 0 129.69 128.66"
 xmlns:xlink="http://www.w3.org/1999/xlink">
 <defs>
  <style type="text/css">
   <![CDATA[
    .fil0 {fill:none}
    .fil1 {fill:#4D4D4D}
   ]]>
  </style>
 </defs>
 <g id="Слой_x0020_1">
  <metadata id="CorelCorpID_0Corel-Layer"/>
  <rect class="fil0" x="0.51" width="128.66" height="128.66"/>
  <path class="fil1" d="M13.73 19.56l62.08 0c7.56,0 13.74,6.18 13.74,13.73l0 11.8 -19.25 0 0 1.54c0,-4.31 -3.52,-7.83 -7.83,-7.83l-35.4 0c-4.3,0 -7.82,3.52 -7.82,7.83l0 35.4c0,4.31 3.52,7.83 7.82,7.83l35.4 0c4.31,0 7.83,-3.52 7.83,-7.83l19.25 0 0 13.34c0,7.56 -6.18,13.74 -13.74,13.74l-62.08 0c-7.55,0 -13.73,-6.18 -13.73,-13.74l0 -62.08c0,-7.55 6.18,-13.73 13.73,-13.73zm82.16 35.15l0 -8.4 33.8 18.02 -33.8 18.02 0 -8.4 -28.39 0 0 -3.82 0 -11.59 0 -3.83 28.39 0z"/>
 </g>
</svg>
