<?xml version="1.0" encoding="UTF-8"?>
<!DOCTYPE svg PUBLIC "-//W3C//DTD SVG 1.0//EN" "http://www.w3.org/TR/2001/REC-SVG-20010904/DTD/svg10.dtd">
<!-- Creator: CorelDRAW 2018 (64-Bit) -->
<svg xmlns="http://www.w3.org/2000/svg" xml:space="preserve" width="181px" height="181px" version="1.0" style="shape-rendering:geometricPrecision; text-rendering:geometricPrecision; image-rendering:optimizeQuality; fill-rule:evenodd; clip-rule:evenodd"
viewBox="0 0 34.89 34.89"
 xmlns:xlink="http://www.w3.org/1999/xlink">
 <defs>
  <style type="text/css">
   <![CDATA[
    .fil1 {fill:none}
    .fil0 {fill:#00DAFF;fill-rule:nonzero}
   ]]>
  </style>
 </defs>
 <g id="Слой_x0020_1">
  <metadata id="CorelCorpID_0Corel-Layer"/>
  <path class="fil0" d="M27.76 18.1c-1.9,0 -3.44,1.54 -3.44,3.44 0,0.88 0.34,1.69 0.88,2.29l-21.5 0 0 1.15 24.06 0c1.9,0 3.44,-1.54 3.44,-3.44 0,-1.9 -1.54,-3.44 -3.44,-3.44zm-11.28 0.05l0 -8.24 1.14 0 0 8.24 1.63 0 -2.2 5.12 -2.19 -5.12 1.62 0zm-5.27 0l0 -8.24 1.15 0 0 8.24 1.62 0 -2.19 5.12 -2.2 -5.12 1.62 0zm-5.26 0l0 -8.24 1.15 0 0 8.24 1.62 0 -2.2 5.12 -2.19 -5.12 1.62 0z"/>
  <rect class="fil1" width="34.89" height="34.89"/>
 </g>
</svg>
