<?xml version="1.0" encoding="UTF-8"?>
<!DOCTYPE svg PUBLIC "-//W3C//DTD SVG 1.0//EN" "http://www.w3.org/TR/2001/REC-SVG-20010904/DTD/svg10.dtd">
<!-- Creator: CorelDRAW 2018 (64-Bit) -->
<svg xmlns="http://www.w3.org/2000/svg" xml:space="preserve" width="143px" height="110px" version="1.0" style="shape-rendering:geometricPrecision; text-rendering:geometricPrecision; image-rendering:optimizeQuality; fill-rule:evenodd; clip-rule:evenodd"
viewBox="0 0 0.67 0.51"
 xmlns:xlink="http://www.w3.org/1999/xlink">
 <defs>
  <style type="text/css">
   <![CDATA[
    .fil0 {fill:#00DAFF;fill-rule:nonzero}
   ]]>
  </style>
 </defs>
 <g id="Слой_x0020_1">
  <metadata id="CorelCorpID_0Corel-Layer"/>
  <path class="fil0" d="M0.58 0.1c-0.04,0 -0.08,0.03 -0.08,0.08 0,0.02 0.01,0.04 0.02,0.06l-0.52 0 0 0.02 0.58 0c0.05,0 0.09,-0.03 0.09,-0.08 0,-0.05 -0.04,-0.08 -0.09,-0.08zm-0.18 0.25l0 0 0 0 0 0 -0.4 0 0 0.02 0.32 0 0 0 0.02 0c-0.02,0.02 -0.02,0.04 -0.02,0.06 0,0.05 0.03,0.08 0.08,0.08 0.04,0 0.08,-0.03 0.08,-0.08 0,-0.04 -0.03,-0.08 -0.08,-0.08zm-0.08 -0.27c0,-0.04 -0.04,-0.08 -0.08,-0.08 -0.05,0 -0.09,0.04 -0.09,0.08 0,0.02 0.01,0.04 0.02,0.06l-0.17 0 0 0.03 0.24 0c0.04,0 0.08,-0.04 0.08,-0.09z"/>
 </g>
</svg>
