<?xml version="1.0" encoding="UTF-8"?>
<!DOCTYPE svg PUBLIC "-//W3C//DTD SVG 1.0//EN" "http://www.w3.org/TR/2001/REC-SVG-20010904/DTD/svg10.dtd">
<!-- Creator: CorelDRAW 2018 (64-Bit) -->
<svg xmlns="http://www.w3.org/2000/svg" xml:space="preserve" width="145px" height="144px" version="1.0" style="shape-rendering:geometricPrecision; text-rendering:geometricPrecision; image-rendering:optimizeQuality; fill-rule:evenodd; clip-rule:evenodd"
viewBox="0 0 14.1 13.99"
 xmlns:xlink="http://www.w3.org/1999/xlink">
 <defs>
  <style type="text/css">
   <![CDATA[
    .fil0 {fill:none}
    .fil1 {fill:#FE99A9}
   ]]>
  </style>
 </defs>
 <g id="Слой_x0020_1">
  <metadata id="CorelCorpID_0Corel-Layer"/>
  <rect class="fil0" x="0.06" width="13.99" height="13.99"/>
  <path class="fil1" d="M1.49 2.13l6.76 0c0.82,0 1.49,0.67 1.49,1.49l0 1.28 -2.09 0 0 0.17c0,-0.47 -0.39,-0.85 -0.86,-0.85l-3.85 0c-0.46,0 -0.85,0.38 -0.85,0.85l0 3.85c0,0.47 0.39,0.85 0.85,0.85l3.85 0c0.47,0 0.86,-0.38 0.86,-0.85l2.09 0 0 1.45c0,0.82 -0.67,1.5 -1.49,1.5l-6.76 0c-0.82,0 -1.49,-0.68 -1.49,-1.5l0 -6.75c0,-0.82 0.67,-1.49 1.49,-1.49zm8.94 3.82l0 -0.91 3.67 1.96 -3.67 1.96 0 -0.92 -3.09 0 0 -0.41 0 -1.26 0 -0.42 3.09 0z"/>
 </g>
</svg>
