<?xml version="1.0" encoding="UTF-8"?>
<!DOCTYPE svg PUBLIC "-//W3C//DTD SVG 1.0//EN" "http://www.w3.org/TR/2001/REC-SVG-20010904/DTD/svg10.dtd">
<!-- Creator: CorelDRAW 2018 (64-Bit) -->
<svg xmlns="http://www.w3.org/2000/svg" xml:space="preserve" width="181px" height="181px" version="1.0" style="shape-rendering:geometricPrecision; text-rendering:geometricPrecision; image-rendering:optimizeQuality; fill-rule:evenodd; clip-rule:evenodd"
viewBox="0 0 91.39 91.39"
 xmlns:xlink="http://www.w3.org/1999/xlink">
 <defs>
  <style type="text/css">
   <![CDATA[
    .fil1 {fill:none}
    .fil0 {fill:#4D4D4D;fill-rule:nonzero}
   ]]>
  </style>
 </defs>
 <g id="Слой_x0020_1">
  <metadata id="CorelCorpID_0Corel-Layer"/>
  <path class="fil0" d="M72.71 28.44c-4.98,0 -9.01,4.03 -9.01,9 0,2.31 0.88,4.41 2.31,6l-56.33 0 0 3.01 63.03 0c4.97,0 9,-4.04 9,-9.01 0,-4.97 -4.03,-9 -9,-9zm-19.51 27.03l0 -0.02 0 0 0 0 -43.52 0 0 3 34.51 0 0 0 1.89 0c-1.43,1.59 -2.31,3.69 -2.31,6 0,4.98 4.03,9.01 9.01,9.01 4.97,0 9,-4.03 9,-9.01 0,-4.83 -3.8,-8.76 -8.58,-8.98zm-9.01 -28.53c0,-4.98 -4.03,-9.01 -9,-9.01 -4.97,0 -9,4.03 -9,9.01 0,2.31 0.87,4.41 2.3,6l-18.81 0 0 3 25.51 0c4.97,0 9,-4.03 9,-9z"/>
  <rect class="fil1" width="91.39" height="91.39"/>
 </g>
</svg>
