<?xml version="1.0" encoding="UTF-8"?>
<!DOCTYPE svg PUBLIC "-//W3C//DTD SVG 1.0//EN" "http://www.w3.org/TR/2001/REC-SVG-20010904/DTD/svg10.dtd">
<!-- Creator: CorelDRAW 2018 (64-Bit) -->
<svg xmlns="http://www.w3.org/2000/svg" xml:space="preserve" width="77px" height="143px" version="1.0" style="shape-rendering:geometricPrecision; text-rendering:geometricPrecision; image-rendering:optimizeQuality; fill-rule:evenodd; clip-rule:evenodd"
viewBox="0 0 0.62 1.14"
 xmlns:xlink="http://www.w3.org/1999/xlink">
 <defs>
  <style type="text/css">
   <![CDATA[
    .fil0 {fill:#5B5B5B;fill-rule:nonzero}
   ]]>
  </style>
 </defs>
 <g id="Слой_x0020_1">
  <metadata id="CorelCorpID_0Corel-Layer"/>
  <path class="fil0" d="M0.35 0l0 0 0 0c-0.06,0 -0.11,0.06 -0.11,0.13l0 0.51c-0.09,0.05 -0.15,0.13 -0.15,0.24 0,0.14 0.12,0.26 0.26,0.26l0 0 0 0 0.01 0c0.14,0 0.26,-0.12 0.26,-0.26 0,-0.11 -0.06,-0.19 -0.15,-0.24l0 -0.51c0,-0.07 -0.05,-0.13 -0.11,-0.13l-0.01 0zm-0.16 0.52l-0.19 0 0 -0.05 0.19 0 0 0.05zm0 -0.09l-0.19 0 0 -0.05 0.19 0 0 0.05zm0 -0.1l-0.19 0 0 -0.05 0.19 0 0 0.05zm0 -0.09l-0.19 0 0 -0.05 0.19 0 0 0.05zm0 -0.1l-0.19 0 0 -0.05 0.19 0 0 0.05zm0.16 -0.09l0 1.04c-0.11,0 -0.21,-0.1 -0.21,-0.21 0,-0.08 0.05,-0.16 0.12,-0.19l0.02 -0.02 0 -0.03 0 -0.51c0,-0.04 0.03,-0.08 0.07,-0.08z"/>
 </g>
</svg>
