<?xml version="1.0" encoding="UTF-8"?>
<!DOCTYPE svg PUBLIC "-//W3C//DTD SVG 1.0//EN" "http://www.w3.org/TR/2001/REC-SVG-20010904/DTD/svg10.dtd">
<!-- Creator: CorelDRAW 2018 (64-Bit) -->
<svg xmlns="http://www.w3.org/2000/svg" xml:space="preserve" width="117px" height="20px" version="1.0" style="shape-rendering:geometricPrecision; text-rendering:geometricPrecision; image-rendering:optimizeQuality; fill-rule:evenodd; clip-rule:evenodd"
viewBox="0 0 13.54 2.3"
 xmlns:xlink="http://www.w3.org/1999/xlink">
 <defs>
  <style type="text/css">
   <![CDATA[
    .fil0 {fill:#FE99A9}
   ]]>
  </style>
 </defs>
 <g id="Слой_x0020_1">
  <metadata id="CorelCorpID_0Corel-Layer"/>
  <path class="fil0" d="M0.71 0.68l0.42 0 0 0.36 -0.41 0 0 1.24 -0.47 0 0 -1.24 -0.25 0 0 -0.36 0.25 0 0 -0.07c0,-0.19 0.06,-0.34 0.17,-0.45 0.11,-0.11 0.26,-0.16 0.46,-0.16 0.07,0 0.14,0.01 0.2,0.02 0.07,0.02 0.12,0.04 0.16,0.07l-0.12 0.34c-0.06,-0.04 -0.12,-0.06 -0.19,-0.06 -0.15,0 -0.22,0.08 -0.22,0.24l0 0.07zm12.83 -0.21c0,-0.14 -0.12,-0.26 -0.26,-0.26 -0.14,0 -0.25,0.12 -0.25,0.26 0,0.14 0.11,0.25 0.25,0.25 0.14,0 0.26,-0.11 0.26,-0.25zm-0.68 1.73c-0.05,0.03 -0.11,0.06 -0.17,0.07 -0.07,0.02 -0.14,0.03 -0.22,0.03 -0.19,0 -0.34,-0.05 -0.45,-0.15 -0.11,-0.1 -0.16,-0.24 -0.16,-0.44l0 -0.67 -0.25 0 0 -0.36 0.25 0 0 -0.4 0.47 0 0 0.4 0.41 0 0 0.36 -0.41 0 0 0.67c0,0.07 0.02,0.12 0.06,0.16 0.03,0.03 0.08,0.05 0.15,0.05 0.07,0 0.14,-0.02 0.19,-0.06l0.13 0.34zm-2.12 0.1c-0.13,0 -0.27,-0.02 -0.4,-0.05 -0.12,-0.03 -0.23,-0.08 -0.3,-0.13l0.15 -0.34c0.08,0.05 0.16,0.09 0.27,0.12 0.1,0.03 0.2,0.04 0.3,0.04 0.2,0 0.3,-0.05 0.3,-0.15 0,-0.04 -0.03,-0.08 -0.08,-0.1 -0.06,-0.02 -0.14,-0.03 -0.25,-0.05 -0.14,-0.02 -0.25,-0.04 -0.33,-0.07 -0.09,-0.02 -0.17,-0.07 -0.23,-0.14 -0.06,-0.06 -0.1,-0.16 -0.1,-0.28 0,-0.11 0.03,-0.2 0.09,-0.28 0.06,-0.08 0.15,-0.14 0.27,-0.18 0.11,-0.05 0.24,-0.07 0.4,-0.07 0.12,0 0.23,0.01 0.34,0.04 0.12,0.02 0.21,0.06 0.29,0.1l-0.16 0.34c-0.14,-0.08 -0.3,-0.12 -0.47,-0.12 -0.1,0 -0.18,0.01 -0.23,0.04 -0.05,0.03 -0.07,0.06 -0.07,0.11 0,0.05 0.02,0.08 0.08,0.1 0.05,0.02 0.14,0.04 0.26,0.06 0.13,0.02 0.24,0.05 0.33,0.07 0.08,0.03 0.16,0.08 0.22,0.14 0.06,0.07 0.09,0.16 0.09,0.28 0,0.1 -0.03,0.19 -0.09,0.27 -0.06,0.08 -0.15,0.14 -0.26,0.18 -0.12,0.05 -0.26,0.07 -0.42,0.07zm-1.76 -1.68c0.25,0 0.45,0.06 0.58,0.18 0.14,0.12 0.21,0.3 0.21,0.54l0 0.94 -0.45 0 0 -0.21c-0.09,0.15 -0.25,0.23 -0.5,0.23 -0.12,0 -0.23,-0.02 -0.32,-0.06 -0.09,-0.05 -0.16,-0.11 -0.21,-0.18 -0.05,-0.07 -0.07,-0.16 -0.07,-0.25 0,-0.16 0.05,-0.28 0.17,-0.36 0.11,-0.09 0.29,-0.13 0.53,-0.13l0.37 0c0,-0.11 -0.03,-0.19 -0.09,-0.24 -0.06,-0.06 -0.16,-0.08 -0.28,-0.08 -0.09,0 -0.18,0.01 -0.26,0.04 -0.08,0.02 -0.16,0.06 -0.21,0.11l-0.17 -0.33c0.08,-0.07 0.19,-0.12 0.32,-0.15 0.12,-0.03 0.25,-0.05 0.38,-0.05zm-0.04 1.36c0.08,0 0.16,-0.02 0.22,-0.06 0.06,-0.03 0.11,-0.09 0.13,-0.16l0 -0.17 -0.32 0c-0.2,0 -0.29,0.07 -0.29,0.19 0,0.06 0.02,0.11 0.07,0.15 0.05,0.03 0.11,0.05 0.19,0.05zm-1.62 0.32c-0.18,0 -0.33,-0.04 -0.47,-0.11 -0.14,-0.07 -0.25,-0.17 -0.33,-0.3 -0.07,-0.12 -0.11,-0.27 -0.11,-0.43 0,-0.16 0.04,-0.31 0.11,-0.43 0.08,-0.13 0.19,-0.23 0.33,-0.3 0.14,-0.08 0.29,-0.11 0.47,-0.11 0.17,0 0.32,0.03 0.45,0.11 0.13,0.07 0.22,0.17 0.28,0.3l-0.37 0.2c-0.08,-0.15 -0.21,-0.22 -0.37,-0.22 -0.12,0 -0.22,0.04 -0.3,0.12 -0.08,0.08 -0.12,0.19 -0.12,0.33 0,0.14 0.04,0.25 0.12,0.33 0.08,0.08 0.18,0.12 0.3,0.12 0.17,0 0.29,-0.07 0.37,-0.22l0.37 0.2c-0.06,0.13 -0.15,0.23 -0.28,0.3 -0.13,0.07 -0.28,0.11 -0.45,0.11zm-1.11 -0.83c0,0 0,0.04 -0.01,0.12l-1.23 0c0.02,0.1 0.07,0.18 0.16,0.24 0.08,0.06 0.18,0.09 0.31,0.09 0.08,0 0.16,-0.01 0.22,-0.04 0.07,-0.02 0.13,-0.06 0.19,-0.12l0.25 0.28c-0.16,0.17 -0.38,0.26 -0.68,0.26 -0.18,0 -0.34,-0.04 -0.48,-0.11 -0.15,-0.07 -0.25,-0.17 -0.33,-0.3 -0.08,-0.12 -0.12,-0.27 -0.12,-0.43 0,-0.16 0.04,-0.3 0.12,-0.43 0.07,-0.13 0.18,-0.23 0.31,-0.3 0.13,-0.08 0.28,-0.11 0.44,-0.11 0.16,0 0.31,0.03 0.44,0.1 0.13,0.07 0.23,0.17 0.3,0.3 0.08,0.13 0.11,0.28 0.11,0.45zm-0.84 -0.49c-0.11,0 -0.2,0.03 -0.27,0.09 -0.08,0.06 -0.12,0.14 -0.14,0.25l0.81 0c-0.02,-0.11 -0.06,-0.19 -0.14,-0.25 -0.07,-0.06 -0.16,-0.09 -0.26,-0.09zm-1.58 -0.12c0.05,-0.08 0.13,-0.14 0.23,-0.18 0.09,-0.04 0.2,-0.06 0.33,-0.06l0 0.44c-0.06,-0.01 -0.09,-0.01 -0.11,-0.01 -0.13,0 -0.24,0.04 -0.32,0.11 -0.07,0.08 -0.11,0.19 -0.11,0.34l0 0.78 -0.48 0 0 -1.64 0.46 0 0 0.22zm-1.67 1.44c-0.17,0 -0.32,-0.04 -0.46,-0.11 -0.14,-0.07 -0.24,-0.17 -0.32,-0.3 -0.08,-0.12 -0.11,-0.27 -0.11,-0.43 0,-0.16 0.03,-0.31 0.11,-0.43 0.08,-0.13 0.18,-0.23 0.32,-0.3 0.14,-0.08 0.29,-0.11 0.46,-0.11 0.18,0 0.33,0.03 0.46,0.11 0.14,0.07 0.25,0.17 0.32,0.3 0.08,0.12 0.12,0.27 0.12,0.43 0,0.16 -0.04,0.31 -0.12,0.43 -0.07,0.13 -0.18,0.23 -0.32,0.3 -0.13,0.07 -0.28,0.11 -0.46,0.11zm0 -0.39c0.12,0 0.22,-0.04 0.3,-0.12 0.08,-0.08 0.12,-0.19 0.12,-0.33 0,-0.14 -0.04,-0.25 -0.12,-0.33 -0.08,-0.08 -0.18,-0.12 -0.3,-0.12 -0.12,0 -0.22,0.04 -0.3,0.12 -0.08,0.08 -0.12,0.19 -0.12,0.33 0,0.14 0.04,0.25 0.12,0.33 0.08,0.08 0.18,0.12 0.3,0.12z"/>
 </g>
</svg>
