<?xml version="1.0" encoding="UTF-8"?>
<!DOCTYPE svg PUBLIC "-//W3C//DTD SVG 1.0//EN" "http://www.w3.org/TR/2001/REC-SVG-20010904/DTD/svg10.dtd">
<!-- Creator: CorelDRAW 2018 (64-Bit) -->
<svg xmlns="http://www.w3.org/2000/svg" xml:space="preserve" width="181px" height="181px" version="1.0" style="shape-rendering:geometricPrecision; text-rendering:geometricPrecision; image-rendering:optimizeQuality; fill-rule:evenodd; clip-rule:evenodd"
viewBox="0 0 21.66 21.66"
 xmlns:xlink="http://www.w3.org/1999/xlink">
 <defs>
  <style type="text/css">
   <![CDATA[
    .fil0 {fill:none}
    .fil1 {fill:#FE99A9;fill-rule:nonzero}
   ]]>
  </style>
 </defs>
 <g id="Слой_x0020_1">
  <metadata id="CorelCorpID_0Corel-Layer"/>
  <rect class="fil0" width="21.66" height="21.66"/>
  <path class="fil1" d="M16.37 7.5l-0.01 -0.04c-0.05,-0.11 -2.33,-5.17 -2.33,-5.17 0,0 -2.29,5.06 -2.33,5.17l-0.01 0.04c-0.09,0.26 -0.15,0.54 -0.15,0.84 0,1.37 1.12,2.49 2.49,2.49 1.38,0 2.49,-1.12 2.49,-2.49 0,-0.3 -0.05,-0.58 -0.15,-0.84zm-3.2 8.53l-0.01 -0.03c-0.05,-0.11 -2.33,-5.17 -2.33,-5.17 0,0 -2.29,5.06 -2.33,5.17l-0.01 0.03c-0.1,0.27 -0.15,0.55 -0.15,0.84 0,1.38 1.11,2.5 2.49,2.5 1.37,0 2.49,-1.12 2.49,-2.5 0,-0.29 -0.05,-0.57 -0.15,-0.84zm-4.62 -6.04l-0.02 -0.04c-0.04,-0.11 -2.32,-5.17 -2.32,-5.17 0,0 -2.29,5.06 -2.33,5.17l-0.02 0.04c-0.09,0.26 -0.14,0.54 -0.14,0.84 0,1.37 1.11,2.49 2.49,2.49 1.37,0 2.49,-1.12 2.49,-2.49 0,-0.3 -0.06,-0.58 -0.15,-0.84z"/>
 </g>
</svg>
