<?xml version="1.0" encoding="UTF-8"?>
<!DOCTYPE svg PUBLIC "-//W3C//DTD SVG 1.0//EN" "http://www.w3.org/TR/2001/REC-SVG-20010904/DTD/svg10.dtd">
<!-- Creator: CorelDRAW 2018 (64-Bit) -->
<svg xmlns="http://www.w3.org/2000/svg" xml:space="preserve" width="181px" height="181px" version="1.0" style="shape-rendering:geometricPrecision; text-rendering:geometricPrecision; image-rendering:optimizeQuality; fill-rule:evenodd; clip-rule:evenodd"
viewBox="0 0 23.61 23.61"
 xmlns:xlink="http://www.w3.org/1999/xlink">
 <defs>
  <style type="text/css">
   <![CDATA[
    .fil0 {fill:none}
    .fil1 {fill:#FF753E}
    .fil2 {fill:#FF753E;fill-rule:nonzero}
   ]]>
  </style>
 </defs>
 <g id="Слой_x0020_1">
  <metadata id="CorelCorpID_0Corel-Layer"/>
  <rect class="fil0" width="23.61" height="23.61"/>
  <path class="fil1" d="M11.81 10.93c0.2,0 0.39,0.07 0.53,0.19l3.28 -1.87c0.16,-0.09 0.36,-0.03 0.45,0.13 0.09,0.16 0.04,0.36 -0.12,0.45l-3.28 1.87c0.01,0.03 0.01,0.07 0.01,0.11 0,0.48 -0.39,0.87 -0.87,0.87 -0.49,0 -0.88,-0.39 -0.88,-0.87 0,-0.04 0,-0.08 0.01,-0.12l-2.09 -1.21c-0.16,-0.09 -0.22,-0.29 -0.13,-0.45 0.1,-0.16 0.3,-0.22 0.46,-0.13l2.09 1.21c0.15,-0.11 0.34,-0.18 0.54,-0.18z"/>
  <path class="fil2" d="M11.81 4.11c2.12,0 4.04,0.86 5.44,2.26 1.39,1.39 2.25,3.31 2.25,5.44 0,2.12 -0.86,4.04 -2.25,5.44 -1.4,1.39 -3.32,2.25 -5.44,2.25 -2.13,0 -4.05,-0.86 -5.44,-2.25 -1.4,-1.4 -2.26,-3.32 -2.26,-5.44 0,-2.13 0.86,-4.05 2.26,-5.44 1.39,-1.4 3.31,-2.26 5.44,-2.26zm4.8 2.89c-1.23,-1.23 -2.93,-1.99 -4.8,-1.99 -1.88,0 -3.58,0.76 -4.81,1.99 -1.23,1.23 -1.99,2.93 -1.99,4.81 0,1.87 0.76,3.57 1.99,4.8 1.23,1.23 2.93,1.99 4.81,1.99 1.87,0 3.57,-0.76 4.8,-1.99 1.23,-1.23 1.99,-2.93 1.99,-4.8 0,-1.88 -0.76,-3.58 -1.99,-4.81z"/>
 </g>
</svg>
