<?xml version="1.0" encoding="UTF-8"?>
<!DOCTYPE svg PUBLIC "-//W3C//DTD SVG 1.0//EN" "http://www.w3.org/TR/2001/REC-SVG-20010904/DTD/svg10.dtd">
<!-- Creator: CorelDRAW 2018 (64-Bit) -->
<svg xmlns="http://www.w3.org/2000/svg" xml:space="preserve" width="181px" height="181px" version="1.0" style="shape-rendering:geometricPrecision; text-rendering:geometricPrecision; image-rendering:optimizeQuality; fill-rule:evenodd; clip-rule:evenodd"
viewBox="0 0 34.89 34.89"
 xmlns:xlink="http://www.w3.org/1999/xlink">
 <defs>
  <style type="text/css">
   <![CDATA[
    .fil1 {fill:none}
    .fil0 {fill:#00DAFF;fill-rule:nonzero}
   ]]>
  </style>
 </defs>
 <g id="Слой_x0020_1">
  <metadata id="CorelCorpID_0Corel-Layer"/>
  <path class="fil0" d="M27.76 10.86c-1.9,0 -3.44,1.54 -3.44,3.43 0,0.89 0.34,1.69 0.88,2.3l-21.5 0 0 1.14 24.06 0c1.9,0 3.44,-1.54 3.44,-3.44 0,-1.89 -1.54,-3.43 -3.44,-3.43zm-7.45 10.32l0 -0.01 0 0 0 0 -16.61 0 0 1.15 13.17 0 0 0 0.72 0c-0.54,0.6 -0.88,1.41 -0.88,2.29 0,1.9 1.54,3.43 3.44,3.43 1.9,0 3.44,-1.53 3.44,-3.43 0,-1.85 -1.46,-3.35 -3.28,-3.43zm-3.44 -10.9c0,-1.89 -1.54,-3.43 -3.43,-3.43 -1.9,0 -3.44,1.54 -3.44,3.43 0,0.89 0.33,1.69 0.88,2.3l-7.18 0 0 1.14 9.74 0c1.89,0 3.43,-1.54 3.43,-3.44z"/>
  <rect class="fil1" width="34.89" height="34.89"/>
 </g>
</svg>
