<?xml version="1.0" encoding="UTF-8"?>
<!DOCTYPE svg PUBLIC "-//W3C//DTD SVG 1.0//EN" "http://www.w3.org/TR/2001/REC-SVG-20010904/DTD/svg10.dtd">
<!-- Creator: CorelDRAW 2018 (64-Bit) -->
<svg xmlns="http://www.w3.org/2000/svg" xml:space="preserve" width="2306px" height="2306px" version="1.0" style="shape-rendering:geometricPrecision; text-rendering:geometricPrecision; image-rendering:optimizeQuality; fill-rule:evenodd; clip-rule:evenodd"
viewBox="0 0 175.02 175.02"
 xmlns:xlink="http://www.w3.org/1999/xlink">
 <defs>
  <style type="text/css">
   <![CDATA[
    .fil1 {fill:none}
    .fil0 {fill:#00DAFF}
   ]]>
  </style>
 </defs>
 <g id="Слой_x0020_1">
  <metadata id="CorelCorpID_0Corel-Layer"/>
  <path class="fil0" d="M97.14 53.78c0,17.19 -13.94,31.12 -31.12,31.12 -17.19,0 -31.12,-13.93 -31.12,-31.12 0,-17.18 13.93,-31.12 31.12,-31.12l31.12 0 0 31.12z"/>
  <path class="fil0" d="M175.02 31.12c0,17.19 -13.93,31.12 -31.11,31.12 -17.19,0 -31.12,-13.93 -31.12,-31.12 0,-17.19 13.93,-31.12 31.12,-31.12l31.11 0 0 31.12z"/>
  <path class="fil0" d="M159.37 110.27c0,17.18 -13.93,31.12 -31.11,31.12 -17.19,0 -31.12,-13.94 -31.12,-31.12 0,-17.19 13.93,-31.12 31.12,-31.12l31.11 0 0 31.12z"/>
  <path class="fil0" d="M83.29 131.81c0,17.18 -13.94,31.12 -31.12,31.12 -17.19,0 -31.12,-13.94 -31.12,-31.12 0,-17.19 13.93,-31.12 31.12,-31.12l31.12 0 0 31.12z"/>
  <rect class="fil1" width="175.02" height="175.02"/>
 </g>
</svg>
