<?xml version="1.0" encoding="UTF-8"?>
<!DOCTYPE svg PUBLIC "-//W3C//DTD SVG 1.0//EN" "http://www.w3.org/TR/2001/REC-SVG-20010904/DTD/svg10.dtd">
<!-- Creator: CorelDRAW 2018 (64-Bit) -->
<svg xmlns="http://www.w3.org/2000/svg" xml:space="preserve" width="117px" height="20px" version="1.0" style="shape-rendering:geometricPrecision; text-rendering:geometricPrecision; image-rendering:optimizeQuality; fill-rule:evenodd; clip-rule:evenodd"
viewBox="0 0 105.63 17.95"
 xmlns:xlink="http://www.w3.org/1999/xlink">
 <defs>
  <style type="text/css">
   <![CDATA[
    .fil0 {fill:#536487}
   ]]>
  </style>
 </defs>
 <g id="Слой_x0020_1">
  <metadata id="CorelCorpID_0Corel-Layer"/>
  <path class="fil0" d="M5.56 5.3l3.27 0 0 2.84 -3.17 0 0 9.62 -3.69 0 0 -9.62 -1.97 0 0 -2.84 1.97 0 0 -0.56c0,-1.46 0.43,-2.61 1.29,-3.46 0.86,-0.85 2.07,-1.28 3.63,-1.28 0.55,0 1.08,0.06 1.57,0.18 0.5,0.12 0.92,0.29 1.25,0.51l-0.97 2.67c-0.43,-0.3 -0.93,-0.45 -1.5,-0.45 -1.12,0 -1.68,0.62 -1.68,1.85l0 0.54zm100.07 -1.65c0,-1.1 -0.89,-1.99 -1.98,-1.99 -1.1,0 -1.99,0.89 -1.99,1.99 0,1.09 0.89,1.98 1.99,1.98 1.09,0 1.98,-0.89 1.98,-1.98zm-5.3 13.49c-0.36,0.27 -0.81,0.47 -1.34,0.6 -0.53,0.14 -1.08,0.21 -1.67,0.21 -1.51,0 -2.68,-0.39 -3.51,-1.16 -0.83,-0.78 -1.25,-1.91 -1.25,-3.41l0 -5.24 -1.96 0 0 -2.84 1.96 0 0 -3.1 3.7 0 0 3.1 3.17 0 0 2.84 -3.17 0 0 5.19c0,0.54 0.14,0.95 0.41,1.24 0.28,0.29 0.67,0.44 1.17,0.44 0.59,0 1.08,-0.16 1.49,-0.47l1 2.6zm-16.5 0.81c-1.06,0 -2.09,-0.13 -3.1,-0.4 -1.01,-0.26 -1.82,-0.58 -2.42,-0.98l1.23 -2.65c0.57,0.36 1.26,0.66 2.06,0.89 0.81,0.23 1.6,0.34 2.37,0.34 1.56,0 2.34,-0.38 2.34,-1.16 0,-0.36 -0.21,-0.62 -0.63,-0.78 -0.43,-0.16 -1.09,-0.29 -1.97,-0.4 -1.04,-0.16 -1.9,-0.34 -2.58,-0.55 -0.68,-0.2 -1.27,-0.56 -1.76,-1.08 -0.5,-0.53 -0.75,-1.27 -0.75,-2.23 0,-0.81 0.23,-1.52 0.7,-2.14 0.46,-0.63 1.14,-1.11 2.03,-1.46 0.9,-0.35 1.95,-0.52 3.17,-0.52 0.89,0 1.79,0.1 2.68,0.3 0.89,0.19 1.63,0.47 2.22,0.81l-1.24 2.63c-1.12,-0.63 -2.34,-0.95 -3.66,-0.95 -0.79,0 -1.39,0.11 -1.78,0.33 -0.39,0.23 -0.59,0.51 -0.59,0.86 0,0.39 0.21,0.67 0.64,0.83 0.42,0.15 1.1,0.3 2.03,0.45 1.04,0.17 1.9,0.36 2.56,0.55 0.66,0.2 1.24,0.56 1.73,1.08 0.49,0.52 0.73,1.25 0.73,2.18 0,0.79 -0.23,1.49 -0.71,2.1 -0.47,0.62 -1.16,1.1 -2.07,1.44 -0.91,0.34 -1.98,0.51 -3.23,0.51zm-13.76 -13.12c1.98,0 3.49,0.47 4.55,1.41 1.06,0.94 1.59,2.35 1.59,4.25l0 7.27 -3.46 0 0 -1.59c-0.7,1.18 -1.99,1.78 -3.88,1.78 -0.98,0 -1.83,-0.17 -2.55,-0.5 -0.72,-0.33 -1.27,-0.79 -1.64,-1.38 -0.38,-0.58 -0.57,-1.24 -0.57,-1.98 0,-1.19 0.44,-2.12 1.34,-2.8 0.89,-0.68 2.26,-1.01 4.13,-1.01l2.93 0c0,-0.81 -0.24,-1.43 -0.73,-1.86 -0.49,-0.44 -1.22,-0.65 -2.2,-0.65 -0.68,0 -1.35,0.1 -2,0.31 -0.66,0.22 -1.21,0.51 -1.67,0.87l-1.33 -2.58c0.7,-0.49 1.53,-0.87 2.5,-1.14 0.97,-0.27 1.97,-0.4 2.99,-0.4zm-0.28 10.63c0.63,0 1.19,-0.15 1.68,-0.44 0.49,-0.29 0.84,-0.72 1.04,-1.29l0 -1.3 -2.53 0c-1.52,0 -2.27,0.5 -2.27,1.49 0,0.47 0.18,0.85 0.55,1.13 0.37,0.27 0.88,0.41 1.53,0.41zm-12.69 2.49c-1.36,0 -2.58,-0.28 -3.66,-0.84 -1.08,-0.57 -1.92,-1.34 -2.53,-2.34 -0.61,-0.99 -0.91,-2.12 -0.91,-3.38 0,-1.26 0.3,-2.39 0.91,-3.39 0.61,-0.99 1.45,-1.77 2.53,-2.33 1.08,-0.56 2.3,-0.84 3.66,-0.84 1.34,0 2.51,0.28 3.52,0.84 1,0.56 1.73,1.36 2.19,2.4l-2.87 1.54c-0.66,-1.17 -1.62,-1.75 -2.86,-1.75 -0.97,0 -1.76,0.32 -2.39,0.95 -0.63,0.63 -0.95,1.49 -0.95,2.58 0,1.09 0.32,1.95 0.95,2.58 0.63,0.63 1.42,0.95 2.39,0.95 1.26,0 2.21,-0.59 2.86,-1.76l2.87 1.57c-0.46,1.01 -1.19,1.8 -2.19,2.36 -1.01,0.57 -2.18,0.86 -3.52,0.86zm-8.62 -6.51c0,0.04 -0.02,0.37 -0.07,0.99l-9.63 0c0.17,0.79 0.58,1.41 1.23,1.87 0.65,0.46 1.45,0.69 2.41,0.69 0.67,0 1.25,-0.1 1.77,-0.3 0.51,-0.2 0.99,-0.51 1.43,-0.94l1.96 2.14c-1.2,1.37 -2.95,2.06 -5.25,2.06 -1.44,0 -2.71,-0.28 -3.81,-0.84 -1.11,-0.57 -1.96,-1.34 -2.56,-2.34 -0.6,-0.99 -0.9,-2.12 -0.9,-3.38 0,-1.25 0.3,-2.37 0.89,-3.38 0.59,-1 1.4,-1.78 2.44,-2.34 1.03,-0.56 2.19,-0.84 3.47,-0.84 1.24,0 2.37,0.27 3.38,0.81 1.01,0.53 1.8,1.3 2.38,2.3 0.58,1 0.86,2.17 0.86,3.5zm-6.6 -3.82c-0.84,0 -1.54,0.24 -2.11,0.71 -0.57,0.48 -0.91,1.12 -1.04,1.95l6.27 0c-0.12,-0.81 -0.47,-1.45 -1.04,-1.93 -0.57,-0.49 -1.26,-0.73 -2.08,-0.73zm-12.33 -0.92c0.44,-0.62 1.03,-1.08 1.78,-1.4 0.75,-0.31 1.62,-0.47 2.59,-0.47l0 3.41c-0.41,-0.03 -0.68,-0.05 -0.82,-0.05 -1.06,0 -1.89,0.3 -2.49,0.89 -0.6,0.59 -0.9,1.48 -0.9,2.66l0 6.02 -3.69 0 0 -12.74 3.53 0 0 1.68zm-12.98 11.25c-1.34,0 -2.54,-0.28 -3.61,-0.84 -1.06,-0.57 -1.9,-1.34 -2.5,-2.34 -0.6,-0.99 -0.9,-2.12 -0.9,-3.38 0,-1.26 0.3,-2.39 0.9,-3.39 0.6,-0.99 1.44,-1.77 2.5,-2.33 1.07,-0.56 2.27,-0.84 3.61,-0.84 1.34,0 2.54,0.28 3.6,0.84 1.06,0.56 1.89,1.34 2.49,2.33 0.6,1 0.9,2.13 0.9,3.39 0,1.26 -0.3,2.39 -0.9,3.38 -0.6,1 -1.43,1.77 -2.49,2.34 -1.06,0.56 -2.26,0.84 -3.6,0.84zm0 -3.03c0.95,0 1.73,-0.32 2.33,-0.96 0.61,-0.64 0.91,-1.5 0.91,-2.57 0,-1.07 -0.3,-1.93 -0.91,-2.57 -0.6,-0.64 -1.38,-0.96 -2.33,-0.96 -0.95,0 -1.73,0.32 -2.34,0.96 -0.62,0.64 -0.93,1.5 -0.93,2.57 0,1.07 0.31,1.93 0.93,2.57 0.61,0.64 1.39,0.96 2.34,0.96z"/>
 </g>
</svg>
