<?xml version="1.0" encoding="UTF-8"?>
<!DOCTYPE svg PUBLIC "-//W3C//DTD SVG 1.0//EN" "http://www.w3.org/TR/2001/REC-SVG-20010904/DTD/svg10.dtd">
<!-- Creator: CorelDRAW 2018 (64-Bit) -->
<svg xmlns="http://www.w3.org/2000/svg" xml:space="preserve" width="143px" height="110px" version="1.0" style="shape-rendering:geometricPrecision; text-rendering:geometricPrecision; image-rendering:optimizeQuality; fill-rule:evenodd; clip-rule:evenodd"
viewBox="0 0 2.12 1.64"
 xmlns:xlink="http://www.w3.org/1999/xlink">
 <defs>
  <style type="text/css">
   <![CDATA[
    .fil0 {fill:#5B5B5B;fill-rule:nonzero}
   ]]>
  </style>
 </defs>
 <g id="Слой_x0020_1">
  <metadata id="CorelCorpID_0Corel-Layer"/>
  <path class="fil0" d="M1.86 0.31c-0.15,0 -0.27,0.12 -0.27,0.26 0,0.07 0.03,0.13 0.07,0.18l-1.66 0 0 0.09 1.86 0c0.14,0 0.26,-0.12 0.26,-0.27 0,-0.14 -0.12,-0.26 -0.26,-0.26zm-0.58 0.8l0 0 0 0 0 0 -1.28 0 0 0.08 1.02 0 0 0 0.05 0c-0.04,0.05 -0.07,0.11 -0.07,0.18 0,0.15 0.12,0.27 0.27,0.27 0.15,0 0.27,-0.12 0.27,-0.27 0,-0.14 -0.12,-0.26 -0.26,-0.26zm-0.26 -0.84c0,-0.15 -0.12,-0.27 -0.27,-0.27 -0.14,0 -0.26,0.12 -0.26,0.27 0,0.06 0.02,0.13 0.06,0.17l-0.55 0 0 0.09 0.75 0c0.15,0 0.27,-0.12 0.27,-0.26z"/>
 </g>
</svg>
