<?xml version="1.0" encoding="UTF-8"?>
<!DOCTYPE svg PUBLIC "-//W3C//DTD SVG 1.0//EN" "http://www.w3.org/TR/2001/REC-SVG-20010904/DTD/svg10.dtd">
<!-- Creator: CorelDRAW 2018 (64-Bit) -->
<svg xmlns="http://www.w3.org/2000/svg" xml:space="preserve" width="709px" height="709px" version="1.0" style="shape-rendering:geometricPrecision; text-rendering:geometricPrecision; image-rendering:optimizeQuality; fill-rule:evenodd; clip-rule:evenodd"
viewBox="0 0 24.44 24.44"
 xmlns:xlink="http://www.w3.org/1999/xlink">
 <defs>
  <style type="text/css">
   <![CDATA[
    .fil1 {fill:none}
    .fil0 {fill:#FFC207}
   ]]>
  </style>
 </defs>
 <g id="Слой_x0020_1">
  <metadata id="CorelCorpID_0Corel-Layer"/>
  <path class="fil0" d="M12.52 3.8c4.57,0 8.27,3.7 8.27,8.27 0,4.57 -3.7,8.28 -8.27,8.28 -4.57,0 -8.28,-3.71 -8.28,-8.28 0,-4.57 3.71,-8.27 8.28,-8.27zm-0.95 -3.29l1.3 0 0 1.98c-0.12,0 -0.24,-0.01 -0.35,-0.01 -0.32,0 -0.64,0.02 -0.95,0.05l0 -2.02zm-8.09 3.89l0.92 -0.92 1.58 1.58c-0.32,0.29 -0.62,0.61 -0.89,0.95l-1.61 -1.61zm-2.97 8.47l0 -1.3 2.43 0c-0.01,0.16 -0.02,0.33 -0.02,0.5 0,0.27 0.02,0.54 0.04,0.8l-2.45 0zm3.89 8.09l-0.92 -0.92 1.74 -1.74c0.28,0.33 0.58,0.64 0.91,0.93l-1.73 1.73zm8.47 2.97l-1.3 0 0 -2.31c0.31,0.03 0.63,0.05 0.95,0.05 0.11,0 0.23,-0.01 0.35,-0.01l0 2.27zm8.09 -3.89l-0.92 0.92 -1.46 -1.46c0.34,-0.27 0.66,-0.57 0.95,-0.89l1.43 1.43zm2.97 -8.47l0 1.3 -1.85 0c0.02,-0.26 0.03,-0.53 0.03,-0.8 0,-0.17 -0.01,-0.34 -0.02,-0.5l1.84 0zm-3.89 -8.09l0.92 0.92 -1.29 1.29c-0.29,-0.33 -0.6,-0.63 -0.93,-0.91l1.3 -1.3z"/>
  <rect class="fil1" width="24.44" height="24.44"/>
 </g>
</svg>
