<?xml version="1.0" encoding="UTF-8"?>
<!DOCTYPE svg PUBLIC "-//W3C//DTD SVG 1.0//EN" "http://www.w3.org/TR/2001/REC-SVG-20010904/DTD/svg10.dtd">
<!-- Creator: CorelDRAW 2018 (64-Bit) -->
<svg xmlns="http://www.w3.org/2000/svg" xml:space="preserve" width="181px" height="181px" version="1.0" style="shape-rendering:geometricPrecision; text-rendering:geometricPrecision; image-rendering:optimizeQuality; fill-rule:evenodd; clip-rule:evenodd"
viewBox="0 0 34.89 34.89"
 xmlns:xlink="http://www.w3.org/1999/xlink">
 <defs>
  <style type="text/css">
   <![CDATA[
    .fil0 {fill:none}
    .fil1 {fill:#00DAFF;fill-rule:nonzero}
   ]]>
  </style>
 </defs>
 <g id="Слой_x0020_1">
  <metadata id="CorelCorpID_0Corel-Layer"/>
  <rect class="fil0" width="34.89" height="34.89"/>
  <path class="fil1" d="M26.38 12.08l-0.03 -0.06c-0.07,-0.18 -3.75,-8.32 -3.75,-8.32 0,0 -3.68,8.14 -3.75,8.32l-0.02 0.06c-0.15,0.42 -0.24,0.87 -0.24,1.35 0,2.22 1.8,4.02 4.01,4.02 2.22,0 4.01,-1.8 4.01,-4.02 0,-0.48 -0.08,-0.93 -0.23,-1.35zm-5.16 13.75l-0.02 -0.06c-0.07,-0.18 -3.75,-8.32 -3.75,-8.32 0,0 -3.69,8.14 -3.75,8.32l-0.03 0.06c-0.15,0.42 -0.23,0.87 -0.23,1.35 0,2.22 1.79,4.02 4.01,4.02 2.21,0 4.01,-1.8 4.01,-4.02 0,-0.48 -0.09,-0.93 -0.24,-1.35zm-7.45 -9.74l-0.02 -0.06c-0.07,-0.18 -3.75,-8.32 -3.75,-8.32 0,0 -3.69,8.14 -3.75,8.32l-0.03 0.06c-0.15,0.42 -0.23,0.87 -0.23,1.35 0,2.22 1.79,4.02 4.01,4.02 2.21,0 4.01,-1.8 4.01,-4.02 0,-0.48 -0.09,-0.93 -0.24,-1.35z"/>
 </g>
</svg>
