<?xml version="1.0" encoding="UTF-8"?>
<!DOCTYPE svg PUBLIC "-//W3C//DTD SVG 1.0//EN" "http://www.w3.org/TR/2001/REC-SVG-20010904/DTD/svg10.dtd">
<!-- Creator: CorelDRAW 2018 (64-Bit) -->
<svg xmlns="http://www.w3.org/2000/svg" xml:space="preserve" width="181px" height="181px" version="1.0" style="shape-rendering:geometricPrecision; text-rendering:geometricPrecision; image-rendering:optimizeQuality; fill-rule:evenodd; clip-rule:evenodd"
viewBox="0 0 21.66 21.66"
 xmlns:xlink="http://www.w3.org/1999/xlink">
 <defs>
  <style type="text/css">
   <![CDATA[
    .fil1 {fill:none}
    .fil0 {fill:#FE99A9;fill-rule:nonzero}
   ]]>
  </style>
 </defs>
 <g id="Слой_x0020_1">
  <metadata id="CorelCorpID_0Corel-Layer"/>
  <path class="fil0" d="M17.23 11.24c-1.18,0 -2.13,0.95 -2.13,2.13 0,0.55 0.21,1.05 0.54,1.43l-13.35 0 0 0.71 14.94 0c1.18,0 2.14,-0.96 2.14,-2.14 0,-1.18 -0.96,-2.13 -2.14,-2.13zm-7 0.03l0 -5.12 0.71 0 0 5.12 1.01 0 -1.36 3.18 -1.37 -3.18 1.01 0zm-3.27 0l0 -5.12 0.71 0 0 5.12 1.01 0 -1.36 3.18 -1.36 -3.18 1 0zm-3.27 0l0 -5.12 0.72 0 0 5.12 1 0 -1.36 3.18 -1.36 -3.18 1 0z"/>
  <rect class="fil1" width="21.66" height="21.66"/>
 </g>
</svg>
