<?xml version="1.0" encoding="UTF-8"?>
<!DOCTYPE svg PUBLIC "-//W3C//DTD SVG 1.0//EN" "http://www.w3.org/TR/2001/REC-SVG-20010904/DTD/svg10.dtd">
<!-- Creator: CorelDRAW 2018 (64-Bit) -->
<svg xmlns="http://www.w3.org/2000/svg" xml:space="preserve" width="107px" height="143px" version="1.0" style="shape-rendering:geometricPrecision; text-rendering:geometricPrecision; image-rendering:optimizeQuality; fill-rule:evenodd; clip-rule:evenodd"
viewBox="0 0 1.19 1.58"
 xmlns:xlink="http://www.w3.org/1999/xlink">
 <defs>
  <style type="text/css">
   <![CDATA[
    .fil0 {fill:#5B5B5B;fill-rule:nonzero}
   ]]>
  </style>
 </defs>
 <g id="Слой_x0020_1">
  <metadata id="CorelCorpID_0Corel-Layer"/>
  <path class="fil0" d="M1.17 0.48l0 0c0,-0.01 -0.21,-0.48 -0.21,-0.48 0,0 -0.22,0.47 -0.22,0.48l0 0c-0.01,0.03 -0.01,0.05 -0.01,0.08 0,0.13 0.1,0.23 0.23,0.23 0.12,0 0.23,-0.1 0.23,-0.23 0,-0.03 -0.01,-0.05 -0.02,-0.08zm-0.29 0.8l0 -0.01c-0.01,-0.01 -0.22,-0.48 -0.22,-0.48 0,0 -0.21,0.47 -0.22,0.48l0 0.01c-0.01,0.02 -0.01,0.05 -0.01,0.07 0,0.13 0.1,0.23 0.23,0.23 0.13,0 0.23,-0.1 0.23,-0.23 0,-0.02 0,-0.05 -0.01,-0.07zm-0.43 -0.57l0 0c-0.01,-0.01 -0.22,-0.48 -0.22,-0.48 0,0 -0.21,0.47 -0.21,0.48l-0.01 0c0,0.03 -0.01,0.05 -0.01,0.08 0,0.13 0.1,0.23 0.23,0.23 0.13,0 0.23,-0.1 0.23,-0.23 0,-0.03 0,-0.05 -0.01,-0.08z"/>
 </g>
</svg>
