<?xml version="1.0" encoding="UTF-8"?>
<!DOCTYPE svg PUBLIC "-//W3C//DTD SVG 1.0//EN" "http://www.w3.org/TR/2001/REC-SVG-20010904/DTD/svg10.dtd">
<!-- Creator: CorelDRAW 2018 (64-Bit) -->
<svg xmlns="http://www.w3.org/2000/svg" xml:space="preserve" width="77px" height="143px" version="1.0" style="shape-rendering:geometricPrecision; text-rendering:geometricPrecision; image-rendering:optimizeQuality; fill-rule:evenodd; clip-rule:evenodd"
viewBox="0 0 0.19 0.36"
 xmlns:xlink="http://www.w3.org/1999/xlink">
 <defs>
  <style type="text/css">
   <![CDATA[
    .fil0 {fill:#00DAFF;fill-rule:nonzero}
   ]]>
  </style>
 </defs>
 <g id="Слой_x0020_1">
  <metadata id="CorelCorpID_0Corel-Layer"/>
  <path class="fil0" d="M0.11 0l0 0 0 0c-0.02,0 -0.04,0.02 -0.04,0.04l0 0.16c-0.02,0.02 -0.04,0.04 -0.04,0.08 0,0.04 0.04,0.08 0.08,0.08l0 0 0 0 0 0c0.05,0 0.08,-0.04 0.08,-0.08 0,-0.04 -0.01,-0.06 -0.04,-0.08l0 -0.16c0,-0.02 -0.02,-0.04 -0.04,-0.04l0 0zm-0.05 0.16l-0.06 0 0 -0.01 0.06 0 0 0.01zm0 -0.03l-0.06 0 0 -0.01 0.06 0 0 0.01zm0 -0.03l-0.06 0 0 -0.01 0.06 0 0 0.01zm0 -0.03l-0.06 0 0 -0.01 0.06 0 0 0.01zm0 -0.03l-0.06 0 0 -0.01 0.06 0 0 0.01zm0.05 -0.03l0 0.33c-0.04,0 -0.07,-0.03 -0.07,-0.06 0,-0.03 0.02,-0.05 0.04,-0.06l0.01 -0.01 0 -0.01 0 -0.16c0,-0.01 0.01,-0.02 0.02,-0.03z"/>
 </g>
</svg>
