<?xml version="1.0" encoding="UTF-8"?>
<!DOCTYPE svg PUBLIC "-//W3C//DTD SVG 1.0//EN" "http://www.w3.org/TR/2001/REC-SVG-20010904/DTD/svg10.dtd">
<!-- Creator: CorelDRAW 2018 (64-Bit) -->
<svg xmlns="http://www.w3.org/2000/svg" xml:space="preserve" width="77px" height="143px" version="1.0" style="shape-rendering:geometricPrecision; text-rendering:geometricPrecision; image-rendering:optimizeQuality; fill-rule:evenodd; clip-rule:evenodd"
viewBox="0 0 0.39 0.72"
 xmlns:xlink="http://www.w3.org/1999/xlink">
 <defs>
  <style type="text/css">
   <![CDATA[
    .fil0 {fill:#56698F;fill-rule:nonzero}
   ]]>
  </style>
 </defs>
 <g id="Слой_x0020_1">
  <metadata id="CorelCorpID_0Corel-Layer"/>
  <path class="fil0" d="M0.22 0l0 0 0 0c-0.04,0 -0.07,0.04 -0.07,0.08l0 0.33c-0.05,0.02 -0.09,0.08 -0.09,0.14 0,0.09 0.07,0.17 0.16,0.17l0 0 0 0 0 0c0.1,0 0.17,-0.08 0.17,-0.17 0,-0.06 -0.04,-0.12 -0.09,-0.14l0 -0.33c0,-0.04 -0.03,-0.08 -0.08,-0.08l0 0zm-0.1 0.33l-0.12 0 0 -0.03 0.12 0 0 0.03zm0 -0.06l-0.12 0 0 -0.03 0.12 0 0 0.03zm0 -0.06l-0.12 0 0 -0.03 0.12 0 0 0.03zm0 -0.06l-0.12 0 0 -0.03 0.12 0 0 0.03zm0 -0.06l-0.12 0 0 -0.03 0.12 0 0 0.03zm0.1 -0.06l0 0.66c-0.07,0 -0.13,-0.06 -0.13,-0.14 0,-0.05 0.03,-0.09 0.07,-0.12l0.02 0 0 -0.02 0 -0.33c0,-0.03 0.02,-0.05 0.04,-0.05z"/>
 </g>
</svg>
