<?xml version="1.0" encoding="UTF-8"?>
<!DOCTYPE svg PUBLIC "-//W3C//DTD SVG 1.0//EN" "http://www.w3.org/TR/2001/REC-SVG-20010904/DTD/svg10.dtd">
<!-- Creator: CorelDRAW 2018 (64-Bit) -->
<svg xmlns="http://www.w3.org/2000/svg" xml:space="preserve" width="145px" height="144px" version="1.0" style="shape-rendering:geometricPrecision; text-rendering:geometricPrecision; image-rendering:optimizeQuality; fill-rule:evenodd; clip-rule:evenodd"
viewBox="0 0 54.08 53.65"
 xmlns:xlink="http://www.w3.org/1999/xlink">
 <defs>
  <style type="text/css">
   <![CDATA[
    .fil0 {fill:none}
    .fil1 {fill:#F8EC7D}
   ]]>
  </style>
 </defs>
 <g id="Слой_x0020_1">
  <metadata id="CorelCorpID_0Corel-Layer"/>
  <rect class="fil0" x="0.21" width="53.65" height="53.65"/>
  <path class="fil1" d="M5.73 8.15l25.88 0c3.15,0 5.73,2.58 5.73,5.73l0 4.92 -8.03 0 0 0.64c0,-1.79 -1.46,-3.26 -3.26,-3.26l-14.76 0c-1.8,0 -3.26,1.47 -3.26,3.26l0 14.77c0,1.79 1.46,3.26 3.26,3.26l14.76 0c1.8,0 3.26,-1.47 3.26,-3.26l8.03 0 0 5.56c0,3.15 -2.58,5.73 -5.73,5.73l-25.88 0c-3.15,0 -5.73,-2.58 -5.73,-5.73l0 -25.89c0,-3.15 2.58,-5.73 5.73,-5.73zm34.26 14.66l0 -3.5 14.09 7.51 -14.09 7.52 0 -3.5 -11.84 0 0 -1.6 0 -4.83 0 -1.6 11.84 0z"/>
 </g>
</svg>
