<?xml version="1.0" encoding="UTF-8"?>
<!DOCTYPE svg PUBLIC "-//W3C//DTD SVG 1.0//EN" "http://www.w3.org/TR/2001/REC-SVG-20010904/DTD/svg10.dtd">
<!-- Creator: CorelDRAW 2018 (64-Bit) -->
<svg xmlns="http://www.w3.org/2000/svg" xml:space="preserve" width="2306px" height="2306px" version="1.0" style="shape-rendering:geometricPrecision; text-rendering:geometricPrecision; image-rendering:optimizeQuality; fill-rule:evenodd; clip-rule:evenodd"
viewBox="0 0 60.77 60.77"
 xmlns:xlink="http://www.w3.org/1999/xlink">
 <defs>
  <style type="text/css">
   <![CDATA[
    .fil0 {fill:none}
    .fil1 {fill:#556C78}
   ]]>
  </style>
 </defs>
 <g id="Слой_x0020_1">
  <metadata id="CorelCorpID_0Corel-Layer"/>
  <rect class="fil0" width="60.77" height="60.77"/>
  <path class="fil1" d="M31.8 8.29c1.99,0.13 3.9,0.53 5.71,1.15l-5.71 8.71 0 -9.86zm8.45 2.3c0.8,0.4 1.57,0.84 2.31,1.33l-3.7 7.38c-0.36,0.72 -0.06,1.6 0.66,1.96 0.72,0.36 1.59,0.07 1.95,-0.65l3.45 -6.88c1.45,1.27 2.73,2.72 3.81,4.32l-15.17 8.76c-0.45,-0.41 -0.98,-0.74 -1.57,-0.95l0.06 -2.77 8.2 -12.5zm10 10.12c0.82,1.67 1.43,3.46 1.8,5.34l-9.84 -0.65 8.04 -4.69zm2.19 8.39c0.02,0.43 0.04,0.86 0.04,1.29 0,0.45 -0.02,0.9 -0.05,1.35l-8.23 0.49c-0.81,0.05 -1.42,0.74 -1.37,1.55 0.05,0.8 0.74,1.41 1.54,1.36l7.69 -0.45c-0.39,1.94 -1.02,3.79 -1.88,5.52l-15.14 -8.79c0.07,-0.33 0.11,-0.68 0.11,-1.03 0,-0.32 -0.03,-0.62 -0.08,-0.92l2.51 -1.23 14.86 0.86zm-3.73 13.65c-1.06,1.57 -2.32,3 -3.74,4.25l-4.56 -9.04 8.3 4.79zm-6.1 6.07c-0.77,0.51 -1.57,0.97 -2.4,1.39l-4.54 -6.89c-0.45,-0.68 -1.35,-0.86 -2.02,-0.42 -0.68,0.45 -0.86,1.35 -0.42,2.02l4.24 6.43c-1.8,0.61 -3.7,1 -5.68,1.13l0 -17.5c0.66,-0.21 1.25,-0.55 1.75,-0.99l2.25 1.3 6.82 13.53zm-13.74 3.66c-1.94,-0.13 -3.83,-0.51 -5.6,-1.1l5.6 -8.56 0 9.66zm-8.35 -2.24c-0.84,-0.42 -1.64,-0.88 -2.41,-1.39l3.69 -7.38c0.36,-0.72 0.07,-1.6 -0.65,-1.96 -0.72,-0.36 -1.59,-0.06 -1.95,0.66l-3.45 6.87c-1.46,-1.27 -2.74,-2.73 -3.82,-4.35l15.15 -8.75c0.51,0.47 1.12,0.83 1.79,1.04l0 2.52 -8.35 12.74zm-10.05 -10.07c-0.85,-1.71 -1.48,-3.55 -1.86,-5.47l10.31 0.59 -8.45 4.88zm-2.23 -8.42c-0.03,-0.45 -0.05,-0.9 -0.05,-1.36 0,-0.46 0.02,-0.91 0.04,-1.36l8.24 -0.49c0.8,-0.05 1.42,-0.74 1.37,-1.54 -0.05,-0.81 -0.74,-1.42 -1.54,-1.37l-7.69 0.46c0.37,-1.88 0.98,-3.67 1.79,-5.34l15.19 8.77c-0.05,0.28 -0.08,0.57 -0.08,0.87 0,0.35 0.04,0.7 0.12,1.03l-2.1 1.2 -15.29 -0.87zm3.6 -13.54c1.09,-1.65 2.39,-3.14 3.86,-4.44l4.73 9.4 -8.59 -4.96zm6.22 -6.25c0.77,-0.51 1.57,-0.98 2.4,-1.39l4.54 6.89c0.44,0.67 1.35,0.86 2.02,0.41 0.67,-0.44 0.86,-1.35 0.41,-2.02l-4.23 -6.43c1.79,-0.61 3.7,-1 5.67,-1.13l0 17.5c-0.72,0.23 -1.37,0.63 -1.9,1.15l-1.92 -1.11 -6.99 -13.87z"/>
 </g>
</svg>
