<?xml version="1.0" encoding="UTF-8"?>
<!DOCTYPE svg PUBLIC "-//W3C//DTD SVG 1.0//EN" "http://www.w3.org/TR/2001/REC-SVG-20010904/DTD/svg10.dtd">
<!-- Creator: CorelDRAW 2018 (64-Bit) -->
<svg xmlns="http://www.w3.org/2000/svg" xml:space="preserve" width="145px" height="144px" version="1.0" style="shape-rendering:geometricPrecision; text-rendering:geometricPrecision; image-rendering:optimizeQuality; fill-rule:evenodd; clip-rule:evenodd"
viewBox="0 0 22.37 22.2"
 xmlns:xlink="http://www.w3.org/1999/xlink">
 <defs>
  <style type="text/css">
   <![CDATA[
    .fil0 {fill:none}
    .fil1 {fill:#00DAFF}
   ]]>
  </style>
 </defs>
 <g id="Слой_x0020_1">
  <metadata id="CorelCorpID_0Corel-Layer"/>
  <rect class="fil0" x="0.09" width="22.2" height="22.2"/>
  <path class="fil1" d="M2.37 3.37l10.71 0c1.3,0 2.37,1.07 2.37,2.37l0 2.04 -3.32 0 0 0.27c0,-0.75 -0.61,-1.36 -1.35,-1.36l-6.11 0c-0.74,0 -1.35,0.61 -1.35,1.36l0 6.1c0,0.75 0.61,1.35 1.35,1.35l6.11 0c0.74,0 1.35,-0.6 1.35,-1.35l3.32 0 0 2.3c0,1.31 -1.07,2.37 -2.37,2.37l-10.71 0c-1.3,0 -2.37,-1.06 -2.37,-2.37l0 -10.71c0,-1.3 1.07,-2.37 2.37,-2.37zm14.17 6.07l0 -1.45 5.83 3.11 -5.83 3.11 0 -1.45 -4.9 0 0 -0.66 0 -2 0 -0.66 4.9 0z"/>
 </g>
</svg>
