<?xml version="1.0" encoding="UTF-8"?>
<!DOCTYPE svg PUBLIC "-//W3C//DTD SVG 1.0//EN" "http://www.w3.org/TR/2001/REC-SVG-20010904/DTD/svg10.dtd">
<!-- Creator: CorelDRAW 2018 (64-Bit) -->
<svg xmlns="http://www.w3.org/2000/svg" xml:space="preserve" width="2306px" height="2306px" version="1.0" style="shape-rendering:geometricPrecision; text-rendering:geometricPrecision; image-rendering:optimizeQuality; fill-rule:evenodd; clip-rule:evenodd"
viewBox="0 0 569.58 569.58"
 xmlns:xlink="http://www.w3.org/1999/xlink">
 <defs>
  <style type="text/css">
   <![CDATA[
    .fil1 {fill:none}
    .fil0 {fill:#5A5A5A;fill-rule:nonzero}
   ]]>
  </style>
 </defs>
 <g id="Слой_x0020_1">
  <metadata id="CorelCorpID_0Corel-Layer"/>
  <path class="fil0" d="M32.91 416.22c-10.99,-1.02 -21.96,0.35 -32.91,2.05l0 -17.37c15.3,6.5 31.32,11.69 47.17,16.52 18.13,5.52 40.24,15.94 39.25,34.85 -1.95,37.05 -49.7,58.92 -86.42,65.53l0 -2.51c14.89,-4.6 31.01,-7.94 43.84,-15.2 40.16,-22.71 43.06,-78.87 -10.93,-83.87zm-32.91 -164.48l0 -22.3c9.27,-2.71 18.79,-4.76 28.15,-7.15 16.82,-4.31 33.25,-9.19 48.02,-17.81 8.17,-4.76 23.41,-12.8 28.76,1.29 3.86,10.12 -6.08,20.14 -15.77,24.98 -27.4,13.71 -59.76,12.43 -89.16,20.99zm0 -40.51l0 -149.07c25.88,-9.05 55.89,-13.53 76.03,4.03 8.12,7.07 16.69,18.07 26.88,14.59 4.55,-1.54 7.61,-5.71 10.36,-9.63 18.21,-25.92 37.67,-52.65 62.8,-71.15l166.99 0c16.33,11.08 28.92,26.13 32.78,45.33 2.99,14.84 0.28,30.19 0.91,45.32 0.36,8.46 2.19,17.4 6.08,24.86 -2.3,0.32 -4.58,0.68 -6.85,1.07 -28.09,4.81 -55.49,13.98 -83.91,16.06 -3.99,0.29 -8.55,0.22 -11.26,-2.73 -2.32,-2.5 -2.47,-6.24 -2.71,-9.65 -2.67,-36.88 -34.53,-69.47 -71.35,-72.96 -36.82,-3.5 -74.25,22.52 -83.8,58.24 -2.77,10.36 -3.43,21.23 -6.68,31.45 -12.37,38.95 -56.58,56.51 -95.8,67.97 -6.73,1.97 -13.61,4.02 -20.47,6.27zm461.37 -83.28c18.69,-3.73 37.25,-8.62 55.97,-12.2 17.09,-3.27 34.87,-5.36 52.24,-4.51l0 199.48c-7.08,1.14 -14.27,1.92 -21.51,2.42 -14.62,-28.81 -39.3,-51.09 -63.98,-71.97 -4.3,-3.63 -8.83,-7.58 -10.34,-12.99 -2.82,-10.13 5.81,-19.35 10.82,-28.6 13.15,-24.25 -0.2,-56.24 -23.2,-71.63zm28.66 184.65l0.03 0.05 0.03 0.04 0.33 0.46 0.03 0.05 0.03 0.04 0.04 0.05 0.03 0.04 0.03 0.05 0.22 0.32 0.04 0.05 0.22 0.33 0.03 0.04 0 0.01 0.13 0.18 0.03 0.05c0.11,0.17 0.22,0.34 0.34,0.52l0.02 0.03 0.01 0.01 0.03 0.05c0.13,0.21 0.26,0.41 0.39,0.62 3.87,6.21 6.5,13.43 6.08,20.74 -0.56,9.63 -6.44,18.44 -14.21,24.15 -7.78,5.73 -17.27,8.69 -26.8,10.28 -36.02,6.09 -72.48,-5.82 -106.41,-19.33l-0.26 -0.1 -0.25 -0.1 -0.76 -0.31 -0.25 -0.1 -0.07 -0.03 -0.18 -0.07 -0.76 -0.3 -0.26 -0.1 -0.25 -0.11 -0.15 -0.05 -0.1 -0.05 -0.26 -0.1 -0.25 -0.1 -0.25 -0.1 -0.26 -0.1 -0.25 -0.11 -0.22 -0.08 -0.03 -0.02 -0.26 -0.1 -0.25 -0.1 -0.25 -0.1 -0.26 -0.1 -0.25 -0.11 -0.25 -0.1 -0.04 -0.01 -0.22 -0.09 -0.25 -0.1 -0.25 -0.1 -0.26 -0.11 -0.25 -0.1 -0.25 -0.1 -0.11 -0.05 -0.4 -0.16 -0.25 -0.1 -0.26 -0.1 -0.25 -0.1 -0.25 -0.11 -0.26 -0.1 -0.25 -0.1 -0.25 -0.1 -0.26 -0.1 -0.25 -0.11 -0.25 -0.1 -0.26 -0.1 0 0 -0.25 -0.1 -0.26 -0.11 -0.25 -0.1 -0.25 -0.1 -0.26 -0.1 -0.25 -0.11 -0.08 -0.03 -0.17 -0.07 -0.26 -0.1 -0.25 -0.1 -0.26 -0.11 -0.25 -0.1 -0.25 -0.1 -0.15 -0.06 -0.11 -0.04 -0.25 -0.11 -0.26 -0.1 -0.25 -0.1 -0.25 -0.1 -0.26 -0.11 -0.22 -0.09 -0.03 -0.01 -0.26 -0.1c-28.65,-11.55 -57.73,-22.71 -88.43,-23.99 -10.69,-0.44 -22.26,0.66 -30.43,7.6 -6.82,5.81 -10.11,14.8 -11.61,23.63 -2.55,14.96 -0.79,30.28 -0.73,45.46 0.05,15.17 -1.89,31.13 -10.72,43.47 -9.49,13.25 -25.42,20.57 -40.15,26.35 13.26,-8.86 30.04,-27.26 36.09,-41.91 7.28,-17.61 2.09,-38.09 -6.98,-54.87 -6.15,-11.38 -14.26,-22.52 -14.92,-35.45 -0.69,-13.34 7.12,-26.11 17.85,-34.04 10.75,-7.94 24.07,-11.61 37.3,-13.46 22.71,-3.15 46.1,-1.28 68.03,5.45 19.67,6.04 38.93,16.06 59.48,14.95 17.44,-0.96 33.29,-9.83 49.84,-15.46 16.31,-5.54 33.99,-7.95 50.89,-4.6 15.72,3.14 30.68,11.64 40.05,24.57zm-102.46 -148.39c10.95,-0.3 23.52,2.86 28.36,12.69 4.36,8.83 0.43,20.03 -6.81,26.73 -7.24,6.7 -17.02,9.81 -26.6,12.18 -14.39,3.56 -29.14,5.89 -43.05,11.02 -13.9,5.15 -27.24,13.54 -34.8,26.3 27.1,-19.99 62.16,-24.48 94.46,-33.99 15.25,-4.49 30.9,-10.77 40.81,-23.2 9.89,-12.45 11.56,-32.68 -0.31,-43.26 -5.93,-5.3 -14.01,-7.35 -21.74,-9.21 -7.55,-1.83 -15.09,-3.65 -22.63,-5.48 -12.37,-2.99 -48.53,-10.58 -54.93,7.43 -8.48,23.91 36.6,19.08 47.24,18.79zm-261.65 282.9c-7.4,14.83 -19.47,27.77 -34.02,35.82 -13.9,7.71 -26.96,17.58 -42.79,21.15 32.58,-7.36 63.43,-22.25 89.46,-43.17 10.8,-8.67 21.07,-18.8 26.16,-31.68 8.38,-21.25 -0.53,-47.91 -20.01,-59.84 -10.04,-6.15 -21.91,-8.48 -32.81,-12.94 -10.9,-4.47 -21.69,-12.25 -24.29,-23.74 -3.3,-14.6 8.08,-28.78 21.07,-36.22 18.66,-10.71 41.03,-12.73 60.86,-21.05 12.99,-5.43 24.83,-13.61 34.52,-23.82 8.13,-8.56 14.98,-19.2 15.45,-31 0.3,-7.7 -2.15,-15.3 -5.75,-22.1 -6.65,-12.51 -18.83,-23.42 -32.99,-23.35 -12.17,0.05 -23.34,8.54 -28.65,19.48 -5.32,10.96 -5.41,23.9 -2.49,35.72 1.11,4.5 2.65,9.11 1.87,13.69 -1.05,6.22 -6.12,10.91 -11.15,14.72 -17,12.77 -37.36,21.01 -58.45,23.65 -9.44,1.2 -19.2,1.33 -28.01,4.92 -11.15,4.52 -19.6,14.27 -24.65,25.2 -4.8,10.42 -6.74,22.8 -2.19,33.32 4.49,10.33 14.45,17.27 24.72,21.89 15.65,7.05 32.89,10.02 48.46,17.25 15.55,7.22 30.11,20.55 31.46,37.65 0.66,8.45 -1.99,16.85 -5.78,24.45z"/>
  <rect class="fil1" width="569.58" height="569.58"/>
 </g>
</svg>
