<?xml version="1.0" encoding="UTF-8"?>
<!DOCTYPE svg PUBLIC "-//W3C//DTD SVG 1.0//EN" "http://www.w3.org/TR/2001/REC-SVG-20010904/DTD/svg10.dtd">
<!-- Creator: CorelDRAW 2018 (64-Bit) -->
<svg xmlns="http://www.w3.org/2000/svg" xml:space="preserve" width="143px" height="110px" version="1.0" style="shape-rendering:geometricPrecision; text-rendering:geometricPrecision; image-rendering:optimizeQuality; fill-rule:evenodd; clip-rule:evenodd"
viewBox="0 0 0.98 0.76"
 xmlns:xlink="http://www.w3.org/1999/xlink">
 <defs>
  <style type="text/css">
   <![CDATA[
    .fil0 {fill:#FF753E;fill-rule:nonzero}
   ]]>
  </style>
 </defs>
 <g id="Слой_x0020_1">
  <metadata id="CorelCorpID_0Corel-Layer"/>
  <path class="fil0" d="M0.86 0.14c-0.07,0 -0.12,0.06 -0.12,0.13 0,0.03 0.01,0.06 0.03,0.08l-0.77 0 0 0.04 0.86 0c0.07,0 0.12,-0.06 0.12,-0.12 0,-0.07 -0.05,-0.13 -0.12,-0.13zm-0.27 0.37l0 0 0 0 0 0 -0.59 0 0 0.04 0.47 0 0 0 0.03 0c-0.02,0.02 -0.04,0.05 -0.04,0.08 0,0.07 0.06,0.13 0.13,0.13 0.06,0 0.12,-0.06 0.12,-0.13 0,-0.06 -0.05,-0.12 -0.12,-0.12zm-0.12 -0.39c0,-0.07 -0.06,-0.12 -0.12,-0.12 -0.07,0 -0.13,0.05 -0.13,0.12 0,0.03 0.02,0.06 0.04,0.08l-0.26 0 0 0.05 0.35 0c0.06,0 0.12,-0.06 0.12,-0.13z"/>
 </g>
</svg>
