<?xml version="1.0" encoding="UTF-8"?>
<!DOCTYPE svg PUBLIC "-//W3C//DTD SVG 1.0//EN" "http://www.w3.org/TR/2001/REC-SVG-20010904/DTD/svg10.dtd">
<!-- Creator: CorelDRAW 2018 (64-Bit) -->
<svg xmlns="http://www.w3.org/2000/svg" xml:space="preserve" width="145px" height="144px" version="1.0" style="shape-rendering:geometricPrecision; text-rendering:geometricPrecision; image-rendering:optimizeQuality; fill-rule:evenodd; clip-rule:evenodd"
viewBox="0 0 10.3 10.22"
 xmlns:xlink="http://www.w3.org/1999/xlink">
 <defs>
  <style type="text/css">
   <![CDATA[
    .fil0 {fill:none}
    .fil1 {fill:#FF753E}
   ]]>
  </style>
 </defs>
 <g id="Слой_x0020_1">
  <metadata id="CorelCorpID_0Corel-Layer"/>
  <rect class="fil0" x="0.04" width="10.22" height="10.22"/>
  <path class="fil1" d="M1.09 1.55l4.93 0c0.6,0 1.09,0.49 1.09,1.09l0 0.94 -1.53 0 0 0.12c0,-0.34 -0.28,-0.62 -0.62,-0.62l-2.81 0c-0.34,0 -0.62,0.28 -0.62,0.62l0 2.81c0,0.35 0.28,0.63 0.62,0.63l2.81 0c0.34,0 0.62,-0.28 0.62,-0.63l1.53 0 0 1.06c0,0.6 -0.49,1.09 -1.09,1.09l-4.93 0c-0.6,0 -1.09,-0.49 -1.09,-1.09l0 -4.93c0,-0.6 0.49,-1.09 1.09,-1.09zm6.52 2.79l0 -0.66 2.69 1.43 -2.69 1.43 0 -0.67 -2.25 0 0 -0.3 0 -0.92 0 -0.31 2.25 0z"/>
 </g>
</svg>
