<?xml version="1.0" encoding="UTF-8"?>
<!DOCTYPE svg PUBLIC "-//W3C//DTD SVG 1.0//EN" "http://www.w3.org/TR/2001/REC-SVG-20010904/DTD/svg10.dtd">
<!-- Creator: CorelDRAW 2018 (64-Bit) -->
<svg xmlns="http://www.w3.org/2000/svg" xml:space="preserve" width="107px" height="143px" version="1.0" style="shape-rendering:geometricPrecision; text-rendering:geometricPrecision; image-rendering:optimizeQuality; fill-rule:evenodd; clip-rule:evenodd"
viewBox="0 0 0.32 0.43"
 xmlns:xlink="http://www.w3.org/1999/xlink">
 <defs>
  <style type="text/css">
   <![CDATA[
    .fil0 {fill:#F8EC7D;fill-rule:nonzero}
   ]]>
  </style>
 </defs>
 <g id="Слой_x0020_1">
  <metadata id="CorelCorpID_0Corel-Layer"/>
  <path class="fil0" d="M0.32 0.13l0 0c0,0 -0.06,-0.13 -0.06,-0.13 0,0 -0.06,0.13 -0.06,0.13l0 0c0,0.01 0,0.01 0,0.02 0,0.04 0.02,0.06 0.06,0.06 0.03,0 0.06,-0.02 0.06,-0.06 0,-0.01 0,-0.01 0,-0.02zm-0.08 0.21l0 0c0,0 -0.06,-0.13 -0.06,-0.13 0,0 -0.06,0.13 -0.06,0.13l0 0c0,0.01 0,0.02 0,0.03 0,0.03 0.02,0.06 0.06,0.06 0.03,0 0.06,-0.03 0.06,-0.06 0,-0.01 0,-0.02 0,-0.03zm-0.12 -0.15l0 0c0,0 -0.06,-0.13 -0.06,-0.13 0,0 -0.05,0.13 -0.06,0.13l0 0c0,0.01 0,0.02 0,0.02 0,0.04 0.03,0.07 0.06,0.07 0.04,0 0.06,-0.03 0.06,-0.07 0,0 0,-0.01 0,-0.02z"/>
 </g>
</svg>
