<?xml version="1.0" encoding="UTF-8"?>
<!DOCTYPE svg PUBLIC "-//W3C//DTD SVG 1.0//EN" "http://www.w3.org/TR/2001/REC-SVG-20010904/DTD/svg10.dtd">
<!-- Creator: CorelDRAW 2018 (64-Bit) -->
<svg xmlns="http://www.w3.org/2000/svg" xml:space="preserve" width="2306px" height="2306px" version="1.0" style="shape-rendering:geometricPrecision; text-rendering:geometricPrecision; image-rendering:optimizeQuality; fill-rule:evenodd; clip-rule:evenodd"
viewBox="0 0 355.15 355.15"
 xmlns:xlink="http://www.w3.org/1999/xlink">
 <defs>
  <style type="text/css">
   <![CDATA[
    .fil1 {fill:none}
    .fil0 {fill:#56698F}
   ]]>
  </style>
 </defs>
 <g id="Слой_x0020_1">
  <metadata id="CorelCorpID_0Corel-Layer"/>
  <path class="fil0" d="M185.83 48.47c11.61,0.76 22.81,3.05 33.39,6.67l-33.39 50.91 0 -57.58zm49.4 13.4c4.66,2.34 9.16,4.95 13.48,7.82l-21.6 43.11c-2.1,4.21 -0.4,9.33 3.81,11.44 4.21,2.1 9.33,0.4 11.44,-3.81l20.14 -40.21c8.46,7.42 15.95,15.92 22.24,25.29l-88.6 51.16c-2.66,-2.4 -5.78,-4.3 -9.2,-5.56l0.35 -16.15 47.94 -73.09zm58.44 59.15c4.76,9.77 8.32,20.23 10.5,31.19l-57.47 -3.79 46.97 -27.4zm12.77 49.06c0.14,2.48 0.22,4.98 0.22,7.49 0,2.67 -0.08,5.31 -0.24,7.93l-48.14 2.86c-4.7,0.28 -8.28,4.32 -8,9.02 0.29,4.69 4.32,8.27 9.02,7.99l44.91 -2.66c-2.23,11.35 -5.96,22.17 -10.95,32.25l-88.49 -51.33c0.43,-1.95 0.66,-3.98 0.66,-6.06 0,-1.83 -0.18,-3.63 -0.51,-5.36l14.67 -7.21 86.85 5.08zm-21.8 79.72c-6.2,9.2 -13.56,17.56 -21.86,24.87l-26.63 -52.86 48.49 27.99zm-35.64 35.47c-4.48,2.99 -9.16,5.71 -14.01,8.13l-26.55 -40.27c-2.6,-3.93 -7.89,-5.01 -11.81,-2.42 -3.93,2.59 -5.01,7.88 -2.42,11.81l24.77 37.57c-10.52,3.57 -21.65,5.84 -33.19,6.59l0 -102.26c3.81,-1.21 7.28,-3.21 10.19,-5.8l13.19 7.61 39.83 79.04zm-80.26 21.41c-11.39,-0.74 -22.38,-2.95 -32.78,-6.45l32.78 -49.97 0 56.42zm-48.84 -13.11c-4.87,-2.41 -9.57,-5.12 -14.07,-8.11l21.59 -43.12c2.11,-4.21 0.4,-9.33 -3.81,-11.43 -4.21,-2.11 -9.33,-0.4 -11.44,3.81l-20.13 40.2c-8.51,-7.45 -16.03,-16 -22.34,-25.42l88.57 -51.14c2.97,2.72 6.53,4.81 10.47,6.06l0 14.7 -48.84 74.45zm-58.73 -58.83c-4.93,-9.99 -8.61,-20.71 -10.83,-31.95l60.23 3.43 -49.4 28.52zm-13.04 -49.19c-0.16,-2.64 -0.26,-5.3 -0.26,-7.98 0,-2.66 0.09,-5.3 0.24,-7.92l48.14 -2.86c4.7,-0.28 8.28,-4.32 8,-9.02 -0.28,-4.7 -4.32,-8.28 -9.02,-7.99l-44.91 2.66c2.15,-10.96 5.69,-21.42 10.43,-31.19l88.81 51.27c-0.3,1.64 -0.46,3.33 -0.46,5.05 0,2.07 0.23,4.09 0.65,6.03l-12.22 7.05 -89.4 -5.1zm21.07 -79.15c6.34,-9.61 13.94,-18.33 22.55,-25.92l27.66 54.91 -50.21 -28.99zm36.33 -36.52c4.48,-2.99 9.16,-5.71 14.01,-8.13l26.56 40.27c2.59,3.93 7.88,5.01 11.81,2.42 3.92,-2.6 5.01,-7.88 2.41,-11.81l-24.77 -37.57c10.51,-3.57 21.63,-5.84 33.16,-6.59l0 102.27c-4.23,1.34 -8.03,3.66 -11.13,6.69l-11.21 -6.47 -40.84 -81.08z"/>
  <rect class="fil1" width="355.15" height="355.15"/>
 </g>
</svg>
