<?xml version="1.0" encoding="UTF-8"?>
<!DOCTYPE svg PUBLIC "-//W3C//DTD SVG 1.0//EN" "http://www.w3.org/TR/2001/REC-SVG-20010904/DTD/svg10.dtd">
<!-- Creator: CorelDRAW 2018 (64-Bit) -->
<svg xmlns="http://www.w3.org/2000/svg" xml:space="preserve" width="181px" height="181px" version="1.0" style="shape-rendering:geometricPrecision; text-rendering:geometricPrecision; image-rendering:optimizeQuality; fill-rule:evenodd; clip-rule:evenodd"
viewBox="0 0 117.38 117.38"
 xmlns:xlink="http://www.w3.org/1999/xlink">
 <defs>
  <style type="text/css">
   <![CDATA[
    .fil1 {fill:none}
    .fil0 {fill:#F8EC7D;fill-rule:nonzero}
   ]]>
  </style>
 </defs>
 <g id="Слой_x0020_1">
  <metadata id="CorelCorpID_0Corel-Layer"/>
  <path class="fil0" d="M93.38 60.9c-6.39,0 -11.56,5.18 -11.56,11.57 0,2.97 1.12,5.66 2.96,7.71l-72.35 0 0 3.85 80.95 0c6.39,0 11.56,-5.18 11.56,-11.56 0,-6.39 -5.17,-11.57 -11.56,-11.57zm-37.94 0.15l0 -27.71 3.85 0 0 27.71 5.45 0 -7.38 17.24 -7.38 -17.24 5.46 0zm-17.71 0l0 -27.71 3.85 0 0 27.71 5.46 0 -7.39 17.24 -7.38 -17.24 5.46 0zm-17.71 0l0 -27.71 3.85 0 0 27.71 5.46 0 -7.38 17.24 -7.38 -17.24 5.45 0z"/>
  <rect class="fil1" width="117.38" height="117.38"/>
 </g>
</svg>
