<?xml version="1.0" encoding="UTF-8"?>
<!DOCTYPE svg PUBLIC "-//W3C//DTD SVG 1.0//EN" "http://www.w3.org/TR/2001/REC-SVG-20010904/DTD/svg10.dtd">
<!-- Creator: CorelDRAW 2018 (64-Bit) -->
<svg xmlns="http://www.w3.org/2000/svg" xml:space="preserve" width="181px" height="181px" version="1.0" style="shape-rendering:geometricPrecision; text-rendering:geometricPrecision; image-rendering:optimizeQuality; fill-rule:evenodd; clip-rule:evenodd"
viewBox="0 0 53.68 53.68"
 xmlns:xlink="http://www.w3.org/1999/xlink">
 <defs>
  <style type="text/css">
   <![CDATA[
    .fil0 {fill:none}
    .fil1 {fill:#4D4D4D}
    .fil2 {fill:#4D4D4D;fill-rule:nonzero}
   ]]>
  </style>
 </defs>
 <g id="Слой_x0020_1">
  <metadata id="CorelCorpID_0Corel-Layer"/>
  <rect class="fil0" width="53.68" height="53.68"/>
  <path class="fil1" d="M26.84 24.85c0.46,0 0.88,0.16 1.22,0.42l7.44 -4.23c0.37,-0.21 0.83,-0.08 1.04,0.28 0.21,0.37 0.08,0.83 -0.29,1.04l-7.44 4.23c0.01,0.08 0.02,0.17 0.02,0.25 0,1.1 -0.89,1.99 -1.99,1.99 -1.1,0 -1.99,-0.89 -1.99,-1.99 0,-0.09 0.01,-0.18 0.02,-0.26l-4.76 -2.75c-0.36,-0.21 -0.49,-0.67 -0.28,-1.03 0.21,-0.37 0.67,-0.49 1.04,-0.28l4.76 2.75c0.33,-0.26 0.75,-0.42 1.21,-0.42z"/>
  <path class="fil2" d="M26.84 9.35c4.83,0 9.2,1.96 12.37,5.12 3.16,3.17 5.12,7.54 5.12,12.37 0,4.83 -1.96,9.2 -5.12,12.37 -3.17,3.16 -7.54,5.12 -12.37,5.12 -4.83,0 -9.2,-1.96 -12.37,-5.12 -3.16,-3.17 -5.12,-7.54 -5.12,-12.37 0,-4.83 1.96,-9.2 5.12,-12.37 3.17,-3.16 7.54,-5.12 12.37,-5.12zm10.92 6.57c-2.79,-2.8 -6.65,-4.53 -10.92,-4.53 -4.27,0 -8.13,1.73 -10.92,4.53 -2.8,2.79 -4.53,6.65 -4.53,10.92 0,4.27 1.73,8.13 4.53,10.92 2.79,2.8 6.65,4.53 10.92,4.53 4.27,0 8.13,-1.73 10.92,-4.53 2.8,-2.79 4.53,-6.65 4.53,-10.92 0,-4.27 -1.73,-8.13 -4.53,-10.92z"/>
 </g>
</svg>
