<?xml version="1.0" encoding="UTF-8"?>
<!DOCTYPE svg PUBLIC "-//W3C//DTD SVG 1.0//EN" "http://www.w3.org/TR/2001/REC-SVG-20010904/DTD/svg10.dtd">
<!-- Creator: CorelDRAW 2018 (64-Bit) -->
<svg xmlns="http://www.w3.org/2000/svg" xml:space="preserve" width="181px" height="181px" version="1.0" style="shape-rendering:geometricPrecision; text-rendering:geometricPrecision; image-rendering:optimizeQuality; fill-rule:evenodd; clip-rule:evenodd"
viewBox="0 0 91.39 91.39"
 xmlns:xlink="http://www.w3.org/1999/xlink">
 <defs>
  <style type="text/css">
   <![CDATA[
    .fil1 {fill:none}
    .fil0 {fill:#4D4D4D;fill-rule:nonzero}
   ]]>
  </style>
 </defs>
 <g id="Слой_x0020_1">
  <metadata id="CorelCorpID_0Corel-Layer"/>
  <path class="fil0" d="M48.61 9.68l-0.07 0 0 0c-4.07,0.09 -7.35,3.75 -7.35,8.25l0 32.58c-5.34,2.74 -9,8.28 -9,14.69 0,9.07 7.31,16.43 16.35,16.51l0 0 0.11 0 0.05 0c9.11,0 16.5,-7.39 16.5,-16.51 0,-6.41 -3.66,-11.95 -9,-14.69l0 -32.58c0,-4.56 -3.36,-8.25 -7.5,-8.25l-0.09 0zm-10.42 33.01l-12 0 0 -3 12 0 0 3zm0 -6l-12 0 0 -3 12 0 0 3zm0 -6l-12 0 0 -3 12 0 0 3zm0 -6l-12 0 0 -3.01 12 0 0 3.01zm0 -6.01l-12 0 0 -3 12 0 0 3zm10.35 -6l0 66.03c-7.37,-0.09 -13.35,-6.11 -13.35,-13.51 0,-5.08 2.83,-9.69 7.37,-12.02l1.63 -0.83 0 -1.84 0 -32.58c0,-2.83 1.94,-5.15 4.35,-5.25z"/>
  <rect class="fil1" width="91.39" height="91.39"/>
 </g>
</svg>
