<?xml version="1.0" encoding="UTF-8"?>
<!DOCTYPE svg PUBLIC "-//W3C//DTD SVG 1.0//EN" "http://www.w3.org/TR/2001/REC-SVG-20010904/DTD/svg10.dtd">
<!-- Creator: CorelDRAW 2018 (64-Bit) -->
<svg xmlns="http://www.w3.org/2000/svg" xml:space="preserve" width="2306px" height="2306px" version="1.0" style="shape-rendering:geometricPrecision; text-rendering:geometricPrecision; image-rendering:optimizeQuality; fill-rule:evenodd; clip-rule:evenodd"
viewBox="0 0 54.27 54.27"
 xmlns:xlink="http://www.w3.org/1999/xlink">
 <defs>
  <style type="text/css">
   <![CDATA[
    .fil0 {fill:none}
    .fil1 {fill:#7E4C54}
   ]]>
  </style>
 </defs>
 <g id="Слой_x0020_1">
  <metadata id="CorelCorpID_0Corel-Layer"/>
  <rect class="fil0" width="54.27" height="54.27"/>
  <path class="fil1" d="M19.54 6.29c1.37,0 2.68,0.24 3.9,0.69 2.07,-2.44 5.17,-3.99 8.62,-3.99 6.02,0 10.94,4.7 11.31,10.62 1.09,-0.35 2.25,-0.54 3.46,-0.54 2.85,0 5.45,1.05 7.44,2.79l0 29.81c-1.55,0.79 -3.3,1.23 -5.15,1.23 -6.25,0 -11.33,-5.07 -11.33,-11.32 0,-0.07 0,-0.13 0.01,-0.2 -0.68,0.13 -1.39,0.2 -2.1,0.2 -5.09,0 -9.39,-3.36 -10.82,-7.97 -1.6,0.85 -3.41,1.33 -5.34,1.33 -6.26,0 -11.33,-5.07 -11.33,-11.33 0,-6.25 5.07,-11.32 11.33,-11.32z"/>
 </g>
</svg>
