<?xml version="1.0" encoding="UTF-8"?>
<!DOCTYPE svg PUBLIC "-//W3C//DTD SVG 1.0//EN" "http://www.w3.org/TR/2001/REC-SVG-20010904/DTD/svg10.dtd">
<!-- Creator: CorelDRAW 2018 (64-Bit) -->
<svg xmlns="http://www.w3.org/2000/svg" xml:space="preserve" width="181px" height="181px" version="1.0" style="shape-rendering:geometricPrecision; text-rendering:geometricPrecision; image-rendering:optimizeQuality; fill-rule:evenodd; clip-rule:evenodd"
viewBox="0 0 29.07 29.07"
 xmlns:xlink="http://www.w3.org/1999/xlink">
 <defs>
  <style type="text/css">
   <![CDATA[
    .fil0 {fill:none}
    .fil1 {fill:#536487;fill-rule:nonzero}
   ]]>
  </style>
 </defs>
 <g id="Слой_x0020_1">
  <metadata id="CorelCorpID_0Corel-Layer"/>
  <rect class="fil0" width="29.07" height="29.07"/>
  <path class="fil1" d="M21.98 10.07l-0.02 -0.05c-0.06,-0.15 -3.13,-6.94 -3.13,-6.94 0,0 -3.07,6.79 -3.12,6.93l-0.02 0.06c-0.13,0.35 -0.2,0.72 -0.2,1.12 0,1.85 1.5,3.35 3.34,3.35 1.85,0 3.34,-1.5 3.34,-3.35 0,-0.4 -0.07,-0.77 -0.19,-1.12zm-4.3 11.45l-0.02 -0.05c-0.06,-0.15 -3.12,-6.93 -3.12,-6.93 0,0 -3.07,6.78 -3.13,6.93l-0.02 0.05c-0.12,0.35 -0.2,0.73 -0.2,1.13 0,1.85 1.5,3.34 3.35,3.34 1.84,0 3.34,-1.49 3.34,-3.34 0,-0.4 -0.07,-0.78 -0.2,-1.13zm-6.2 -8.11l-0.02 -0.05c-0.06,-0.15 -3.13,-6.94 -3.13,-6.94 0,0 -3.07,6.79 -3.12,6.93l-0.02 0.06c-0.13,0.35 -0.2,0.72 -0.2,1.12 0,1.85 1.49,3.35 3.34,3.35 1.85,0 3.34,-1.5 3.34,-3.35 0,-0.4 -0.07,-0.77 -0.19,-1.12z"/>
 </g>
</svg>
