<?xml version="1.0" encoding="UTF-8"?>
<!DOCTYPE svg PUBLIC "-//W3C//DTD SVG 1.0//EN" "http://www.w3.org/TR/2001/REC-SVG-20010904/DTD/svg10.dtd">
<!-- Creator: CorelDRAW 2018 (64-Bit) -->
<svg xmlns="http://www.w3.org/2000/svg" xml:space="preserve" width="181px" height="181px" version="1.0" style="shape-rendering:geometricPrecision; text-rendering:geometricPrecision; image-rendering:optimizeQuality; fill-rule:evenodd; clip-rule:evenodd"
viewBox="0 0 29.07 29.07"
 xmlns:xlink="http://www.w3.org/1999/xlink">
 <defs>
  <style type="text/css">
   <![CDATA[
    .fil1 {fill:none}
    .fil0 {fill:#536487;fill-rule:nonzero}
   ]]>
  </style>
 </defs>
 <g id="Слой_x0020_1">
  <metadata id="CorelCorpID_0Corel-Layer"/>
  <path class="fil0" d="M23.13 9.05c-1.58,0 -2.87,1.28 -2.87,2.86 0,0.74 0.28,1.4 0.74,1.91l-17.92 0 0 0.95 20.05 0c1.58,0 2.86,-1.28 2.86,-2.86 0,-1.58 -1.28,-2.86 -2.86,-2.86zm-6.21 8.6l0 -0.01 0 0 0 0 -13.84 0 0 0.95 10.98 0 0 0 0.6 0c-0.46,0.51 -0.74,1.18 -0.74,1.91 0,1.58 1.29,2.87 2.87,2.87 1.58,0 2.86,-1.29 2.86,-2.87 0,-1.53 -1.21,-2.78 -2.73,-2.85zm-2.86 -9.08c0,-1.58 -1.28,-2.87 -2.87,-2.87 -1.58,0 -2.86,1.29 -2.86,2.87 0,0.73 0.28,1.4 0.73,1.91l-5.98 0 0 0.95 8.11 0c1.59,0 2.87,-1.28 2.87,-2.86z"/>
  <rect class="fil1" width="29.07" height="29.07"/>
 </g>
</svg>
