<?xml version="1.0" encoding="UTF-8"?>
<!DOCTYPE svg PUBLIC "-//W3C//DTD SVG 1.0//EN" "http://www.w3.org/TR/2001/REC-SVG-20010904/DTD/svg10.dtd">
<!-- Creator: CorelDRAW 2018 (64-Bit) -->
<svg xmlns="http://www.w3.org/2000/svg" xml:space="preserve" width="181px" height="181px" version="1.0" style="shape-rendering:geometricPrecision; text-rendering:geometricPrecision; image-rendering:optimizeQuality; fill-rule:evenodd; clip-rule:evenodd"
viewBox="0 0 117.38 117.38"
 xmlns:xlink="http://www.w3.org/1999/xlink">
 <defs>
  <style type="text/css">
   <![CDATA[
    .fil1 {fill:none}
    .fil0 {fill:#F8EC7D;fill-rule:nonzero}
   ]]>
  </style>
 </defs>
 <g id="Слой_x0020_1">
  <metadata id="CorelCorpID_0Corel-Layer"/>
  <path class="fil0" d="M93.38 36.52c-6.39,0 -11.56,5.18 -11.56,11.57 0,2.96 1.12,5.66 2.96,7.71l-72.35 0 0 3.85 80.95 0c6.39,0 11.56,-5.18 11.56,-11.56 0,-6.39 -5.17,-11.57 -11.56,-11.57zm-25.05 34.72l0 -0.02 -0.01 0 0 0 -55.89 0 0 3.85 44.33 0 0 0 2.42 0c-1.84,2.05 -2.96,4.74 -2.96,7.71 0,6.39 5.17,11.56 11.56,11.56 6.39,0 11.57,-5.17 11.57,-11.56 0,-6.2 -4.89,-11.25 -11.02,-11.54zm-11.57 -36.64c0,-6.39 -5.18,-11.57 -11.56,-11.57 -6.39,0 -11.57,5.18 -11.57,11.57 0,2.96 1.13,5.66 2.96,7.71l-24.16 0 0 3.85 32.77 0c6.38,0 11.56,-5.18 11.56,-11.56z"/>
  <rect class="fil1" width="117.38" height="117.38"/>
 </g>
</svg>
