<?xml version="1.0" encoding="UTF-8"?>
<!DOCTYPE svg PUBLIC "-//W3C//DTD SVG 1.0//EN" "http://www.w3.org/TR/2001/REC-SVG-20010904/DTD/svg10.dtd">
<!-- Creator: CorelDRAW 2018 (64-Bit) -->
<svg xmlns="http://www.w3.org/2000/svg" xml:space="preserve" width="145px" height="144px" version="1.0" style="shape-rendering:geometricPrecision; text-rendering:geometricPrecision; image-rendering:optimizeQuality; fill-rule:evenodd; clip-rule:evenodd"
viewBox="0 0 29.49 29.25"
 xmlns:xlink="http://www.w3.org/1999/xlink">
 <defs>
  <style type="text/css">
   <![CDATA[
    .fil0 {fill:none}
    .fil1 {fill:#536487}
   ]]>
  </style>
 </defs>
 <g id="Слой_x0020_1">
  <metadata id="CorelCorpID_0Corel-Layer"/>
  <rect class="fil0" x="0.12" width="29.25" height="29.25"/>
  <path class="fil1" d="M3.12 4.45l14.12 0c1.72,0 3.12,1.4 3.12,3.12l0 2.68 -4.38 0 0 0.35c0,-0.98 -0.8,-1.78 -1.78,-1.78l-8.04 0c-0.98,0 -1.78,0.8 -1.78,1.78l0 8.05c0,0.98 0.8,1.78 1.78,1.78l8.04 0c0.98,0 1.78,-0.8 1.78,-1.78l4.38 0 0 3.03c0,1.72 -1.4,3.13 -3.12,3.13l-14.12 0c-1.71,0 -3.12,-1.41 -3.12,-3.13l0 -14.11c0,-1.72 1.41,-3.12 3.12,-3.12zm18.68 7.99l0 -1.91 7.69 4.1 -7.69 4.09 0 -1.91 -6.45 0 0 -0.87 0 -2.63 0 -0.87 6.45 0z"/>
 </g>
</svg>
