<?xml version="1.0" encoding="UTF-8"?>
<!DOCTYPE svg PUBLIC "-//W3C//DTD SVG 1.0//EN" "http://www.w3.org/TR/2001/REC-SVG-20010904/DTD/svg10.dtd">
<!-- Creator: CorelDRAW 2018 (64-Bit) -->
<svg xmlns="http://www.w3.org/2000/svg" xml:space="preserve" width="181px" height="181px" version="1.0" style="shape-rendering:geometricPrecision; text-rendering:geometricPrecision; image-rendering:optimizeQuality; fill-rule:evenodd; clip-rule:evenodd"
viewBox="0 0 91.39 91.39"
 xmlns:xlink="http://www.w3.org/1999/xlink">
 <defs>
  <style type="text/css">
   <![CDATA[
    .fil1 {fill:none}
    .fil0 {fill:#4D4D4D;fill-rule:nonzero}
   ]]>
  </style>
 </defs>
 <g id="Слой_x0020_1">
  <metadata id="CorelCorpID_0Corel-Layer"/>
  <path class="fil0" d="M72.71 47.42c-4.98,0 -9.01,4.03 -9.01,9.01 0,2.3 0.88,4.4 2.31,6l-56.33 0 0 3 63.03 0c4.97,0 9,-4.03 9,-9 0,-4.98 -4.03,-9.01 -9,-9.01zm-29.55 0.12l0 -21.58 3 0 0 21.58 4.25 0 -5.75 13.42 -5.74 -13.42 4.24 0zm-13.79 0l0 -21.58 3.01 0 0 21.58 4.24 0 -5.74 13.42 -5.75 -13.42 4.24 0zm-13.78 0l0 -21.58 3 0 0 21.58 4.25 0 -5.75 13.42 -5.75 -13.42 4.25 0z"/>
  <rect class="fil1" width="91.39" height="91.39"/>
 </g>
</svg>
