<?xml version="1.0" encoding="UTF-8"?>
<!DOCTYPE svg PUBLIC "-//W3C//DTD SVG 1.0//EN" "http://www.w3.org/TR/2001/REC-SVG-20010904/DTD/svg10.dtd">
<!-- Creator: CorelDRAW 2018 (64-Bit) -->
<svg xmlns="http://www.w3.org/2000/svg" xml:space="preserve" width="181px" height="181px" version="1.0" style="shape-rendering:geometricPrecision; text-rendering:geometricPrecision; image-rendering:optimizeQuality; fill-rule:evenodd; clip-rule:evenodd"
viewBox="0 0 21.66 21.66"
 xmlns:xlink="http://www.w3.org/1999/xlink">
 <defs>
  <style type="text/css">
   <![CDATA[
    .fil1 {fill:none}
    .fil0 {fill:#FE99A9;fill-rule:nonzero}
   ]]>
  </style>
 </defs>
 <g id="Слой_x0020_1">
  <metadata id="CorelCorpID_0Corel-Layer"/>
  <path class="fil0" d="M17.23 6.74c-1.18,0 -2.13,0.96 -2.13,2.13 0,0.55 0.21,1.05 0.54,1.43l-13.35 0 0 0.71 14.94 0c1.18,0 2.14,-0.96 2.14,-2.14 0,-1.17 -0.96,-2.13 -2.14,-2.13zm-4.62 6.41l0 -0.01 0 0 0 0 -10.32 0 0 0.71 8.18 0 0 0 0.45 0c-0.34,0.38 -0.55,0.88 -0.55,1.43 0,1.17 0.96,2.13 2.14,2.13 1.18,0 2.13,-0.96 2.13,-2.13 0,-1.15 -0.9,-2.08 -2.03,-2.13zm-2.14 -6.77c0,-1.17 -0.95,-2.13 -2.13,-2.13 -1.18,0 -2.13,0.96 -2.13,2.13 0,0.55 0.2,1.05 0.54,1.43l-4.46 0 0 0.71 6.05 0c1.18,0 2.13,-0.96 2.13,-2.14z"/>
  <rect class="fil1" width="21.66" height="21.66"/>
 </g>
</svg>
