<?xml version="1.0" encoding="UTF-8"?>
<!DOCTYPE svg PUBLIC "-//W3C//DTD SVG 1.0//EN" "http://www.w3.org/TR/2001/REC-SVG-20010904/DTD/svg10.dtd">
<!-- Creator: CorelDRAW 2018 (64-Bit) -->
<svg xmlns="http://www.w3.org/2000/svg" xml:space="preserve" width="181px" height="181px" version="1.0" style="shape-rendering:geometricPrecision; text-rendering:geometricPrecision; image-rendering:optimizeQuality; fill-rule:evenodd; clip-rule:evenodd"
viewBox="0 0 295.49 295.49"
 xmlns:xlink="http://www.w3.org/1999/xlink">
 <defs>
  <style type="text/css">
   <![CDATA[
    .fil0 {fill:none}
    .fil1 {fill:#F8EC7D}
    .fil2 {fill:#F8EC7D;fill-rule:nonzero}
   ]]>
  </style>
 </defs>
 <g id="Слой_x0020_1">
  <metadata id="CorelCorpID_0Corel-Layer"/>
  <rect class="fil0" width="295.49" height="295.49"/>
  <path class="fil1" d="M147.74 136.8c2.54,0 4.87,0.86 6.73,2.31l40.96 -23.32c2,-1.14 4.56,-0.44 5.7,1.57 1.13,2.01 0.43,4.56 -1.58,5.7l-40.95 23.32c0.06,0.44 0.09,0.9 0.09,1.36 0,6.05 -4.9,10.95 -10.95,10.95 -6.04,0 -10.94,-4.9 -10.94,-10.95 0,-0.48 0.03,-0.97 0.09,-1.44l-26.19 -15.12c-2,-1.15 -2.69,-3.7 -1.54,-5.7 1.15,-2 3.7,-2.69 5.7,-1.54l26.21 15.13c1.85,-1.42 4.16,-2.27 6.67,-2.27z"/>
  <path class="fil2" d="M147.74 51.47c26.59,0 50.66,10.78 68.08,28.2 17.42,17.42 28.2,41.49 28.2,68.07 0,26.59 -10.78,50.66 -28.2,68.08 -17.42,17.42 -41.49,28.2 -68.08,28.2 -26.58,0 -50.65,-10.78 -68.07,-28.2 -17.43,-17.42 -28.2,-41.49 -28.2,-68.08 0,-26.58 10.77,-50.65 28.2,-68.07 17.42,-17.42 41.49,-28.2 68.07,-28.2zm60.13 36.15c-15.38,-15.39 -36.64,-24.91 -60.13,-24.91 -23.48,0 -44.74,9.52 -60.13,24.91 -15.38,15.38 -24.9,36.64 -24.9,60.12 0,23.49 9.52,44.75 24.9,60.13 15.39,15.39 36.65,24.91 60.13,24.91 23.49,0 44.75,-9.52 60.13,-24.91 15.39,-15.38 24.91,-36.64 24.91,-60.13 0,-23.48 -9.52,-44.74 -24.91,-60.12z"/>
 </g>
</svg>
