<?xml version="1.0" encoding="UTF-8"?>
<!DOCTYPE svg PUBLIC "-//W3C//DTD SVG 1.0//EN" "http://www.w3.org/TR/2001/REC-SVG-20010904/DTD/svg10.dtd">
<!-- Creator: CorelDRAW 2018 (64-Bit) -->
<svg xmlns="http://www.w3.org/2000/svg" xml:space="preserve" width="117px" height="20px" version="1.0" style="shape-rendering:geometricPrecision; text-rendering:geometricPrecision; image-rendering:optimizeQuality; fill-rule:evenodd; clip-rule:evenodd"
viewBox="0 0 18.58 3.16"
 xmlns:xlink="http://www.w3.org/1999/xlink">
 <defs>
  <style type="text/css">
   <![CDATA[
    .fil0 {fill:#00DAFF}
   ]]>
  </style>
 </defs>
 <g id="Слой_x0020_1">
  <metadata id="CorelCorpID_0Corel-Layer"/>
  <path class="fil0" d="M0.98 0.93l0.57 0 0 0.5 -0.55 0 0 1.69 -0.65 0 0 -1.69 -0.35 0 0 -0.5 0.35 0 0 -0.1c0,-0.25 0.07,-0.46 0.22,-0.61 0.15,-0.14 0.37,-0.22 0.64,-0.22 0.1,0 0.19,0.01 0.28,0.03 0.09,0.02 0.16,0.05 0.22,0.09l-0.17 0.47c-0.08,-0.05 -0.17,-0.08 -0.27,-0.08 -0.19,0 -0.29,0.11 -0.29,0.33l0 0.09zm17.6 -0.29c0,-0.19 -0.16,-0.35 -0.35,-0.35 -0.19,0 -0.35,0.16 -0.35,0.35 0,0.19 0.16,0.35 0.35,0.35 0.19,0 0.35,-0.16 0.35,-0.35zm-0.93 2.38c-0.07,0.04 -0.14,0.08 -0.24,0.1 -0.09,0.02 -0.19,0.04 -0.29,0.04 -0.27,0 -0.47,-0.07 -0.62,-0.21 -0.14,-0.13 -0.22,-0.33 -0.22,-0.6l0 -0.92 -0.34 0 0 -0.5 0.34 0 0 -0.54 0.65 0 0 0.54 0.56 0 0 0.5 -0.56 0 0 0.91c0,0.1 0.03,0.17 0.07,0.22 0.05,0.05 0.12,0.08 0.21,0.08 0.1,0 0.19,-0.03 0.26,-0.08l0.18 0.46zm-2.9 0.14c-0.19,0 -0.37,-0.03 -0.55,-0.07 -0.18,-0.05 -0.32,-0.11 -0.42,-0.17l0.21 -0.47c0.1,0.06 0.22,0.11 0.36,0.15 0.15,0.05 0.28,0.07 0.42,0.07 0.28,0 0.41,-0.07 0.41,-0.21 0,-0.06 -0.03,-0.11 -0.11,-0.14 -0.07,-0.02 -0.19,-0.05 -0.35,-0.07 -0.18,-0.02 -0.33,-0.06 -0.45,-0.09 -0.12,-0.04 -0.22,-0.1 -0.31,-0.19 -0.09,-0.1 -0.13,-0.23 -0.13,-0.4 0,-0.14 0.04,-0.26 0.12,-0.37 0.08,-0.11 0.2,-0.2 0.36,-0.26 0.16,-0.06 0.34,-0.09 0.56,-0.09 0.15,0 0.31,0.02 0.47,0.05 0.16,0.04 0.29,0.08 0.39,0.15l-0.22 0.46c-0.2,-0.11 -0.41,-0.17 -0.64,-0.17 -0.14,0 -0.25,0.02 -0.32,0.06 -0.07,0.04 -0.1,0.09 -0.1,0.15 0,0.07 0.04,0.12 0.11,0.14 0.08,0.03 0.2,0.06 0.36,0.08 0.18,0.03 0.33,0.07 0.45,0.1 0.12,0.04 0.22,0.1 0.3,0.19 0.09,0.09 0.13,0.22 0.13,0.38 0,0.14 -0.04,0.27 -0.12,0.38 -0.08,0.1 -0.21,0.19 -0.37,0.25 -0.16,0.06 -0.35,0.09 -0.56,0.09zm-2.42 -2.31c0.34,0 0.61,0.08 0.8,0.25 0.18,0.16 0.27,0.41 0.27,0.74l0 1.28 -0.6 0 0 -0.28c-0.13,0.21 -0.35,0.32 -0.69,0.32 -0.17,0 -0.32,-0.03 -0.44,-0.09 -0.13,-0.06 -0.23,-0.14 -0.29,-0.24 -0.07,-0.11 -0.1,-0.22 -0.1,-0.35 0,-0.21 0.08,-0.37 0.23,-0.49 0.16,-0.12 0.4,-0.18 0.73,-0.18l0.52 0c0,-0.14 -0.05,-0.25 -0.13,-0.33 -0.09,-0.08 -0.22,-0.11 -0.39,-0.11 -0.12,0 -0.24,0.01 -0.35,0.05 -0.12,0.04 -0.22,0.09 -0.3,0.15l-0.23 -0.45c0.12,-0.09 0.27,-0.15 0.44,-0.2 0.17,-0.05 0.35,-0.07 0.53,-0.07zm-0.05 1.87c0.11,0 0.21,-0.03 0.29,-0.08 0.09,-0.05 0.15,-0.12 0.19,-0.22l0 -0.23 -0.45 0c-0.27,0 -0.4,0.08 -0.4,0.26 0,0.08 0.03,0.15 0.1,0.2 0.06,0.05 0.15,0.07 0.27,0.07zm-2.24 0.44c-0.23,0 -0.45,-0.05 -0.64,-0.15 -0.19,-0.1 -0.34,-0.24 -0.44,-0.41 -0.11,-0.18 -0.17,-0.37 -0.17,-0.6 0,-0.22 0.06,-0.42 0.17,-0.59 0.1,-0.18 0.25,-0.31 0.44,-0.41 0.19,-0.1 0.41,-0.15 0.64,-0.15 0.24,0 0.45,0.05 0.62,0.15 0.18,0.1 0.31,0.24 0.39,0.42l-0.51 0.27c-0.11,-0.2 -0.28,-0.31 -0.5,-0.31 -0.17,0 -0.31,0.06 -0.42,0.17 -0.11,0.11 -0.17,0.26 -0.17,0.45 0,0.19 0.06,0.35 0.17,0.46 0.11,0.11 0.25,0.16 0.42,0.16 0.22,0 0.39,-0.1 0.5,-0.3l0.51 0.27c-0.08,0.18 -0.21,0.32 -0.39,0.42 -0.17,0.1 -0.38,0.15 -0.62,0.15zm-1.51 -1.15c0,0.01 -0.01,0.07 -0.01,0.18l-1.7 0c0.03,0.14 0.1,0.24 0.22,0.33 0.11,0.08 0.25,0.12 0.42,0.12 0.12,0 0.22,-0.02 0.31,-0.06 0.09,-0.03 0.18,-0.09 0.25,-0.16l0.35 0.37c-0.21,0.25 -0.52,0.37 -0.92,0.37 -0.26,0 -0.48,-0.05 -0.67,-0.15 -0.2,-0.1 -0.35,-0.24 -0.45,-0.41 -0.11,-0.18 -0.16,-0.37 -0.16,-0.6 0,-0.22 0.05,-0.41 0.15,-0.59 0.11,-0.18 0.25,-0.31 0.43,-0.41 0.18,-0.1 0.39,-0.15 0.61,-0.15 0.22,0 0.42,0.05 0.6,0.14 0.18,0.1 0.32,0.23 0.42,0.41 0.1,0.17 0.15,0.38 0.15,0.61zm-1.16 -0.67c-0.15,0 -0.27,0.04 -0.37,0.13 -0.1,0.08 -0.16,0.19 -0.19,0.34l1.11 0c-0.03,-0.14 -0.09,-0.26 -0.19,-0.34 -0.1,-0.09 -0.22,-0.13 -0.36,-0.13zm-2.17 -0.16c0.07,-0.11 0.18,-0.19 0.31,-0.25 0.13,-0.05 0.29,-0.08 0.46,-0.08l0 0.6c-0.07,-0.01 -0.12,-0.01 -0.15,-0.01 -0.18,0 -0.33,0.05 -0.44,0.16 -0.1,0.1 -0.15,0.26 -0.15,0.47l0 1.05 -0.65 0 0 -2.24 0.62 0 0 0.3zm-2.29 1.98c-0.23,0 -0.44,-0.05 -0.63,-0.15 -0.19,-0.1 -0.33,-0.24 -0.44,-0.41 -0.1,-0.18 -0.16,-0.37 -0.16,-0.6 0,-0.22 0.06,-0.42 0.16,-0.59 0.11,-0.18 0.25,-0.31 0.44,-0.41 0.19,-0.1 0.4,-0.15 0.63,-0.15 0.24,0 0.45,0.05 0.64,0.15 0.18,0.1 0.33,0.23 0.44,0.41 0.1,0.17 0.15,0.37 0.15,0.59 0,0.23 -0.05,0.42 -0.15,0.6 -0.11,0.17 -0.26,0.31 -0.44,0.41 -0.19,0.1 -0.4,0.15 -0.64,0.15zm0 -0.54c0.17,0 0.31,-0.05 0.42,-0.17 0.1,-0.11 0.16,-0.26 0.16,-0.45 0,-0.19 -0.06,-0.34 -0.16,-0.45 -0.11,-0.11 -0.25,-0.17 -0.42,-0.17 -0.16,0 -0.3,0.06 -0.41,0.17 -0.11,0.11 -0.16,0.26 -0.16,0.45 0,0.19 0.05,0.34 0.16,0.45 0.11,0.12 0.25,0.17 0.41,0.17z"/>
 </g>
</svg>
