<?xml version="1.0" encoding="UTF-8"?>
<!DOCTYPE svg PUBLIC "-//W3C//DTD SVG 1.0//EN" "http://www.w3.org/TR/2001/REC-SVG-20010904/DTD/svg10.dtd">
<!-- Creator: CorelDRAW 2018 (64-Bit) -->
<svg xmlns="http://www.w3.org/2000/svg" xml:space="preserve" width="181px" height="181px" version="1.0" style="shape-rendering:geometricPrecision; text-rendering:geometricPrecision; image-rendering:optimizeQuality; fill-rule:evenodd; clip-rule:evenodd"
viewBox="0 0 29.52 29.52"
 xmlns:xlink="http://www.w3.org/1999/xlink">
 <defs>
  <style type="text/css">
   <![CDATA[
    .fil0 {fill:none}
    .fil1 {fill:#536487}
    .fil2 {fill:#536487;fill-rule:nonzero}
   ]]>
  </style>
 </defs>
 <g id="Слой_x0020_1">
  <metadata id="CorelCorpID_0Corel-Layer"/>
  <rect class="fil0" width="29.52" height="29.52"/>
  <path class="fil1" d="M14.76 13.67c0.25,0 0.49,0.08 0.67,0.23l4.1 -2.33c0.2,-0.12 0.45,-0.04 0.56,0.16 0.12,0.2 0.05,0.45 -0.15,0.57l-4.09 2.32c0,0.05 0,0.09 0,0.14 0,0.6 -0.49,1.09 -1.09,1.09 -0.6,0 -1.09,-0.49 -1.09,-1.09 0,-0.05 0,-0.1 0.01,-0.14l-2.62 -1.51c-0.2,-0.12 -0.27,-0.37 -0.15,-0.57 0.11,-0.2 0.37,-0.27 0.57,-0.16l2.61 1.51c0.19,-0.14 0.42,-0.22 0.67,-0.22z"/>
  <path class="fil2" d="M14.76 5.14c2.66,0 5.06,1.08 6.8,2.82 1.74,1.74 2.82,4.15 2.82,6.8 0,2.66 -1.08,5.06 -2.82,6.8 -1.74,1.74 -4.14,2.82 -6.8,2.82 -2.66,0 -5.06,-1.08 -6.8,-2.82 -1.74,-1.74 -2.82,-4.14 -2.82,-6.8 0,-2.65 1.08,-5.06 2.82,-6.8 1.74,-1.74 4.15,-2.82 6.8,-2.82zm6.01 3.61c-1.54,-1.53 -3.66,-2.48 -6.01,-2.48 -2.34,0 -4.47,0.95 -6.01,2.48 -1.53,1.54 -2.48,3.67 -2.48,6.01 0,2.35 0.95,4.47 2.48,6.01 1.54,1.54 3.66,2.49 6.01,2.49 2.35,0 4.47,-0.95 6.01,-2.49 1.54,-1.54 2.49,-3.66 2.49,-6.01 0,-2.34 -0.95,-4.47 -2.49,-6.01z"/>
 </g>
</svg>
