<?xml version="1.0" encoding="UTF-8"?>
<!DOCTYPE svg PUBLIC "-//W3C//DTD SVG 1.0//EN" "http://www.w3.org/TR/2001/REC-SVG-20010904/DTD/svg10.dtd">
<!-- Creator: CorelDRAW 2018 (64-Bit) -->
<svg xmlns="http://www.w3.org/2000/svg" xml:space="preserve" width="2306px" height="2306px" version="1.0" style="shape-rendering:geometricPrecision; text-rendering:geometricPrecision; image-rendering:optimizeQuality; fill-rule:evenodd; clip-rule:evenodd"
viewBox="0 0 65.31 65.31"
 xmlns:xlink="http://www.w3.org/1999/xlink">
 <defs>
  <style type="text/css">
   <![CDATA[
    .fil0 {fill:none}
    .fil1 {fill:#262626;fill-rule:nonzero}
   ]]>
  </style>
 </defs>
 <g id="Слой_x0020_1">
  <metadata id="CorelCorpID_0Corel-Layer"/>
  <rect class="fil0" width="65.31" height="65.31"/>
  <path class="fil1" d="M61.54 17.58c1.26,0.12 2.52,-0.04 3.77,-0.23l0 1.99c-1.75,-0.74 -3.59,-1.34 -5.41,-1.89 -2.08,-0.64 -4.61,-1.83 -4.5,-4 0.23,-4.25 5.7,-6.76 9.91,-7.51l0 0.29c-1.71,0.52 -3.56,0.9 -5.03,1.74 -4.6,2.6 -4.93,9.04 1.26,9.61zm3.77 18.86l0 2.56c-1.06,0.31 -2.15,0.55 -3.23,0.82 -1.93,0.5 -3.81,1.06 -5.5,2.04 -0.94,0.55 -2.69,1.47 -3.3,-0.14 -0.44,-1.16 0.7,-2.31 1.81,-2.87 3.14,-1.57 6.85,-1.42 10.22,-2.41zm0 4.65l0 17.09c-2.97,1.04 -6.41,1.55 -8.72,-0.46 -0.93,-0.81 -1.91,-2.07 -3.08,-1.67 -0.52,0.17 -0.87,0.65 -1.19,1.1 -2.09,2.97 -4.32,6.04 -7.2,8.16l-19.15 0c-1.87,-1.27 -3.31,-3 -3.76,-5.2 -0.34,-1.7 -0.03,-3.46 -0.1,-5.19 -0.04,-0.97 -0.25,-2 -0.7,-2.85 0.27,-0.04 0.53,-0.08 0.79,-0.13 3.22,-0.55 6.36,-1.6 9.62,-1.84 0.46,-0.03 0.98,-0.02 1.29,0.31 0.27,0.29 0.28,0.72 0.31,1.11 0.31,4.23 3.96,7.97 8.18,8.37 4.23,0.4 8.52,-2.59 9.61,-6.68 0.32,-1.19 0.4,-2.44 0.77,-3.61 1.42,-4.46 6.49,-6.48 10.98,-7.79 0.77,-0.23 1.56,-0.46 2.35,-0.72zm-52.9 9.55c-2.15,0.43 -4.27,0.99 -6.42,1.4 -1.96,0.37 -4,0.61 -5.99,0.52l0 -22.88c0.81,-0.13 1.64,-0.22 2.47,-0.28 1.67,3.31 4.5,5.86 7.33,8.26 0.5,0.41 1.01,0.87 1.19,1.49 0.32,1.16 -0.67,2.22 -1.24,3.28 -1.51,2.78 0.02,6.44 2.66,8.21zm-3.29 -21.17l0 -0.01 -0.01 0 -0.03 -0.06 -0.01 0 0 -0.01 0 0 -0.01 -0.01 0 0 -0.03 -0.04 0 -0.01 -0.03 -0.03 0 -0.01 0 0 -0.01 -0.02 -0.01 -0.01c-0.01,-0.01 -0.02,-0.03 -0.04,-0.05l0 -0.01 0 0 0 -0.01c-0.02,-0.02 -0.03,-0.04 -0.05,-0.07 -0.44,-0.71 -0.74,-1.54 -0.7,-2.37 0.07,-1.11 0.74,-2.12 1.63,-2.77 0.89,-0.66 1.98,-1 3.08,-1.18 4.13,-0.7 8.31,0.66 12.2,2.21l0.03 0.02 0.03 0.01 0.08 0.03 0.03 0.01 0.01 0.01 0.02 0.01 0.09 0.03 0.03 0.01 0.03 0.01 0.01 0.01 0.02 0 0.02 0.02 0.03 0.01 0.03 0.01 0.03 0.01 0.03 0.01 0.03 0.01 0 0 0.03 0.02 0.03 0.01 0.03 0.01 0.03 0.01 0.02 0.01 0.03 0.01 0.01 0.01 0.02 0.01 0.03 0.01 0.03 0.01 0.03 0.01 0.03 0.01 0.03 0.02 0.01 0 0.05 0.02 0.03 0.01 0.02 0.01 0.03 0.01 0.03 0.02 0.03 0.01 0.03 0.01 0.03 0.01 0.03 0.01 0.03 0.01 0.03 0.02 0.03 0.01 0 0 0.02 0.01 0.03 0.01 0.03 0.01 0.03 0.01 0.03 0.02 0.03 0.01 0.01 0 0.02 0.01 0.03 0.01 0.03 0.01 0.03 0.02 0.03 0.01 0.03 0.01 0.01 0.01 0.01 0 0.03 0.01 0.03 0.01 0.03 0.02 0.03 0.01 0.03 0.01 0.03 0.01 0 0 0.03 0.01c3.28,1.33 6.62,2.61 10.14,2.75 1.22,0.05 2.55,-0.07 3.49,-0.87 0.78,-0.66 1.16,-1.69 1.33,-2.71 0.29,-1.71 0.09,-3.47 0.08,-5.21 0,-1.74 0.22,-3.57 1.23,-4.98 1.09,-1.52 2.92,-2.36 4.61,-3.03 -1.52,1.02 -3.45,3.13 -4.14,4.81 -0.84,2.02 -0.24,4.37 0.8,6.29 0.7,1.31 1.63,2.58 1.71,4.07 0.08,1.53 -0.82,2.99 -2.05,3.9 -1.23,0.91 -2.76,1.33 -4.28,1.54 -2.6,0.36 -5.28,0.15 -7.8,-0.62 -2.25,-0.7 -4.46,-1.84 -6.82,-1.72 -2,0.11 -3.81,1.13 -5.71,1.78 -1.87,0.63 -3.9,0.91 -5.84,0.52 -1.8,-0.36 -3.51,-1.33 -4.59,-2.81zm11.75 17.01c-1.26,0.04 -2.7,-0.33 -3.25,-1.45 -0.5,-1.02 -0.05,-2.3 0.78,-3.07 0.83,-0.77 1.95,-1.12 3.05,-1.39 1.65,-0.41 3.34,-0.68 4.94,-1.27 1.59,-0.59 3.12,-1.55 3.99,-3.01 -3.11,2.29 -7.13,2.8 -10.84,3.89 -1.74,0.52 -3.54,1.24 -4.67,2.66 -1.14,1.43 -1.33,3.75 0.03,4.96 0.68,0.61 1.61,0.85 2.49,1.06 0.87,0.21 1.73,0.42 2.6,0.63 1.42,0.34 5.56,1.21 6.3,-0.85 0.97,-2.75 -4.2,-2.19 -5.42,-2.16zm30 -32.44c0.85,-1.7 2.23,-3.18 3.9,-4.1 1.6,-0.89 3.09,-2.02 4.91,-2.43 -3.74,0.84 -7.27,2.55 -10.26,4.95 -1.24,0.99 -2.41,2.16 -3,3.63 -0.96,2.44 0.06,5.5 2.3,6.86 1.15,0.71 2.51,0.98 3.76,1.49 1.25,0.51 2.49,1.4 2.78,2.72 0.38,1.67 -0.92,3.3 -2.41,4.15 -2.14,1.23 -4.71,1.46 -6.98,2.42 -1.49,0.62 -2.85,1.56 -3.96,2.73 -0.93,0.98 -1.72,2.2 -1.77,3.55 -0.04,0.89 0.25,1.76 0.66,2.54 0.76,1.43 2.16,2.68 3.78,2.68 1.4,-0.01 2.68,-0.98 3.29,-2.24 0.61,-1.26 0.62,-2.74 0.28,-4.09 -0.13,-0.52 -0.3,-1.05 -0.21,-1.57 0.12,-0.72 0.7,-1.26 1.28,-1.69 1.95,-1.47 4.28,-2.41 6.7,-2.71 1.08,-0.14 2.2,-0.16 3.21,-0.57 1.28,-0.52 2.25,-1.63 2.83,-2.89 0.55,-1.19 0.77,-2.61 0.25,-3.82 -0.52,-1.18 -1.66,-1.98 -2.84,-2.51 -1.79,-0.81 -3.77,-1.15 -5.55,-1.98 -1.79,-0.82 -3.46,-2.35 -3.61,-4.31 -0.08,-0.97 0.23,-1.94 0.66,-2.81z"/>
 </g>
</svg>
