<?xml version="1.0" encoding="UTF-8"?>
<!DOCTYPE svg PUBLIC "-//W3C//DTD SVG 1.0//EN" "http://www.w3.org/TR/2001/REC-SVG-20010904/DTD/svg10.dtd">
<!-- Creator: CorelDRAW 2018 (64-Bit) -->
<svg xmlns="http://www.w3.org/2000/svg" xml:space="preserve" width="2306px" height="2306px" version="1.0" style="shape-rendering:geometricPrecision; text-rendering:geometricPrecision; image-rendering:optimizeQuality; fill-rule:evenodd; clip-rule:evenodd"
viewBox="0 0 208.83 208.83"
 xmlns:xlink="http://www.w3.org/1999/xlink">
 <defs>
  <style type="text/css">
   <![CDATA[
    .fil1 {fill:none}
    .fil0 {fill:#FE99A9}
   ]]>
  </style>
 </defs>
 <g id="Слой_x0020_1">
  <metadata id="CorelCorpID_0Corel-Layer"/>
  <path class="fil0" d="M75.18 24.19c5.27,0 10.33,0.94 15.01,2.66 8,-9.38 19.9,-15.33 33.19,-15.33 23.16,0 42.1,18.06 43.5,40.87 4.21,-1.35 8.69,-2.08 13.34,-2.08 10.95,0 20.96,4.04 28.61,10.7l0 114.74c-5.94,3.04 -12.67,4.75 -19.8,4.75 -24.07,0 -43.59,-19.52 -43.59,-43.59 0,-0.25 0,-0.5 0.01,-0.75 -2.62,0.49 -5.32,0.75 -8.08,0.75 -19.57,0 -36.14,-12.91 -41.64,-30.68 -6.13,3.28 -13.12,5.14 -20.55,5.14 -24.08,0 -43.6,-19.51 -43.6,-43.59 0,-24.07 19.52,-43.59 43.6,-43.59z"/>
  <rect class="fil1" width="208.83" height="208.83"/>
 </g>
</svg>
