<?xml version="1.0" encoding="UTF-8"?>
<!DOCTYPE svg PUBLIC "-//W3C//DTD SVG 1.0//EN" "http://www.w3.org/TR/2001/REC-SVG-20010904/DTD/svg10.dtd">
<!-- Creator: CorelDRAW 2018 (64-Bit) -->
<svg xmlns="http://www.w3.org/2000/svg" xml:space="preserve" width="117px" height="20px" version="1.0" style="shape-rendering:geometricPrecision; text-rendering:geometricPrecision; image-rendering:optimizeQuality; fill-rule:evenodd; clip-rule:evenodd"
viewBox="0 0 10.65 1.81"
 xmlns:xlink="http://www.w3.org/1999/xlink">
 <defs>
  <style type="text/css">
   <![CDATA[
    .fil0 {fill:#FF753E}
   ]]>
  </style>
 </defs>
 <g id="Слой_x0020_1">
  <metadata id="CorelCorpID_0Corel-Layer"/>
  <path class="fil0" d="M0.56 0.53l0.33 0 0 0.29 -0.32 0 0 0.97 -0.37 0 0 -0.97 -0.2 0 0 -0.29 0.2 0 0 -0.05c0,-0.15 0.04,-0.27 0.13,-0.35 0.08,-0.09 0.21,-0.13 0.36,-0.13 0.06,0 0.11,0.01 0.16,0.02 0.05,0.01 0.09,0.03 0.13,0.05l-0.1 0.27c-0.04,-0.03 -0.09,-0.05 -0.15,-0.05 -0.11,0 -0.17,0.07 -0.17,0.19l0 0.05zm10.09 -0.16c0,-0.11 -0.09,-0.2 -0.2,-0.2 -0.11,0 -0.2,0.09 -0.2,0.2 0,0.11 0.09,0.2 0.2,0.2 0.11,0 0.2,-0.09 0.2,-0.2zm-0.54 1.36c-0.04,0.02 -0.08,0.04 -0.13,0.06 -0.06,0.01 -0.11,0.02 -0.17,0.02 -0.15,0 -0.27,-0.04 -0.36,-0.12 -0.08,-0.08 -0.12,-0.19 -0.12,-0.34l0 -0.53 -0.2 0 0 -0.29 0.2 0 0 -0.31 0.37 0 0 0.31 0.32 0 0 0.29 -0.32 0 0 0.52c0,0.06 0.01,0.1 0.04,0.13 0.03,0.03 0.07,0.04 0.12,0.04 0.06,0 0.11,-0.01 0.15,-0.04l0.1 0.26zm-1.66 0.08c-0.11,0 -0.21,-0.01 -0.31,-0.04 -0.11,-0.03 -0.19,-0.06 -0.25,-0.1l0.13 -0.27c0.05,0.04 0.12,0.07 0.2,0.09 0.09,0.03 0.16,0.04 0.24,0.04 0.16,0 0.24,-0.04 0.24,-0.12 0,-0.04 -0.02,-0.06 -0.07,-0.08 -0.04,-0.01 -0.1,-0.03 -0.19,-0.04 -0.11,-0.01 -0.2,-0.03 -0.26,-0.05 -0.07,-0.02 -0.13,-0.06 -0.18,-0.11 -0.05,-0.06 -0.08,-0.13 -0.08,-0.23 0,-0.08 0.03,-0.15 0.07,-0.21 0.05,-0.07 0.12,-0.12 0.21,-0.15 0.09,-0.04 0.2,-0.05 0.32,-0.05 0.09,0 0.18,0.01 0.27,0.03 0.09,0.02 0.16,0.04 0.22,0.08l-0.12 0.26c-0.12,-0.06 -0.24,-0.09 -0.37,-0.09 -0.08,0 -0.14,0.01 -0.18,0.03 -0.04,0.02 -0.06,0.05 -0.06,0.09 0,0.04 0.02,0.07 0.06,0.08 0.05,0.02 0.11,0.03 0.21,0.05 0.1,0.01 0.19,0.03 0.26,0.05 0.06,0.02 0.12,0.06 0.17,0.11 0.05,0.05 0.07,0.13 0.07,0.22 0,0.08 -0.02,0.15 -0.07,0.21 -0.04,0.07 -0.11,0.11 -0.21,0.15 -0.09,0.03 -0.2,0.05 -0.32,0.05zm-1.39 -1.32c0.2,0 0.35,0.04 0.46,0.14 0.11,0.09 0.16,0.24 0.16,0.43l0 0.73 -0.35 0 0 -0.16c-0.07,0.12 -0.2,0.18 -0.39,0.18 -0.1,0 -0.18,-0.02 -0.26,-0.05 -0.07,-0.03 -0.12,-0.08 -0.16,-0.14 -0.04,-0.06 -0.06,-0.13 -0.06,-0.2 0,-0.12 0.05,-0.21 0.14,-0.28 0.09,-0.07 0.22,-0.1 0.41,-0.1l0.3 0c0,-0.09 -0.03,-0.15 -0.08,-0.19 -0.05,-0.05 -0.12,-0.07 -0.22,-0.07 -0.07,0 -0.13,0.01 -0.2,0.03 -0.07,0.03 -0.12,0.06 -0.17,0.09l-0.13 -0.26c0.07,-0.05 0.15,-0.09 0.25,-0.11 0.1,-0.03 0.2,-0.04 0.3,-0.04zm-0.03 1.07c0.07,0 0.12,-0.02 0.17,-0.05 0.05,-0.03 0.09,-0.07 0.11,-0.13l0 -0.13 -0.26 0c-0.15,0 -0.23,0.05 -0.23,0.15 0,0.05 0.02,0.09 0.06,0.12 0.04,0.02 0.09,0.04 0.15,0.04zm-1.28 0.25c-0.13,0 -0.25,-0.03 -0.36,-0.09 -0.11,-0.05 -0.2,-0.13 -0.26,-0.23 -0.06,-0.1 -0.09,-0.21 -0.09,-0.34 0,-0.13 0.03,-0.24 0.09,-0.34 0.06,-0.1 0.15,-0.18 0.26,-0.24 0.11,-0.05 0.23,-0.08 0.36,-0.08 0.14,0 0.26,0.03 0.36,0.08 0.1,0.06 0.17,0.14 0.22,0.24l-0.29 0.16c-0.07,-0.12 -0.16,-0.18 -0.29,-0.18 -0.09,0 -0.17,0.03 -0.24,0.1 -0.06,0.06 -0.09,0.15 -0.09,0.26 0,0.11 0.03,0.19 0.09,0.26 0.07,0.06 0.15,0.09 0.24,0.09 0.13,0 0.23,-0.06 0.29,-0.17l0.29 0.15c-0.05,0.11 -0.12,0.19 -0.22,0.24 -0.1,0.06 -0.22,0.09 -0.36,0.09zm-0.86 -0.66c0,0.01 -0.01,0.04 -0.01,0.1l-0.97 0c0.02,0.08 0.06,0.15 0.12,0.19 0.07,0.05 0.15,0.07 0.25,0.07 0.06,0 0.12,-0.01 0.17,-0.03 0.05,-0.02 0.1,-0.05 0.15,-0.09l0.2 0.21c-0.13,0.14 -0.3,0.21 -0.53,0.21 -0.15,0 -0.28,-0.03 -0.39,-0.09 -0.11,-0.05 -0.2,-0.13 -0.26,-0.23 -0.06,-0.1 -0.09,-0.21 -0.09,-0.34 0,-0.13 0.03,-0.24 0.09,-0.34 0.06,-0.1 0.14,-0.18 0.25,-0.24 0.1,-0.05 0.22,-0.08 0.35,-0.08 0.12,0 0.24,0.02 0.34,0.08 0.1,0.05 0.18,0.13 0.24,0.23 0.06,0.1 0.09,0.22 0.09,0.35zm-0.67 -0.38c-0.08,0 -0.15,0.02 -0.21,0.07 -0.06,0.05 -0.09,0.11 -0.11,0.2l0.64 0c-0.02,-0.09 -0.05,-0.15 -0.11,-0.2 -0.06,-0.05 -0.13,-0.07 -0.21,-0.07zm-1.24 -0.09c0.04,-0.07 0.1,-0.11 0.18,-0.15 0.07,-0.03 0.16,-0.04 0.26,-0.04l0 0.34c-0.04,0 -0.07,0 -0.08,0 -0.11,0 -0.19,0.03 -0.25,0.09 -0.07,0.05 -0.1,0.14 -0.1,0.26l0 0.61 -0.37 0 0 -1.28 0.36 0 0 0.17zm-1.31 1.13c-0.14,0 -0.26,-0.03 -0.36,-0.09 -0.11,-0.05 -0.19,-0.13 -0.26,-0.23 -0.06,-0.1 -0.09,-0.21 -0.09,-0.34 0,-0.13 0.03,-0.24 0.09,-0.34 0.07,-0.1 0.15,-0.18 0.26,-0.24 0.1,-0.05 0.22,-0.08 0.36,-0.08 0.14,0 0.26,0.03 0.36,0.08 0.11,0.06 0.19,0.14 0.25,0.24 0.06,0.1 0.09,0.21 0.09,0.34 0,0.13 -0.03,0.24 -0.09,0.34 -0.06,0.1 -0.14,0.18 -0.25,0.23 -0.1,0.06 -0.22,0.09 -0.36,0.09zm0 -0.31c0.1,0 0.17,-0.03 0.24,-0.09 0.06,-0.07 0.09,-0.15 0.09,-0.26 0,-0.11 -0.03,-0.2 -0.09,-0.26 -0.07,-0.07 -0.14,-0.1 -0.24,-0.1 -0.1,0 -0.17,0.03 -0.24,0.1 -0.06,0.06 -0.09,0.15 -0.09,0.26 0,0.11 0.03,0.19 0.09,0.26 0.07,0.06 0.14,0.09 0.24,0.09z"/>
 </g>
</svg>
