<?xml version="1.0" encoding="UTF-8"?>
<!DOCTYPE svg PUBLIC "-//W3C//DTD SVG 1.0//EN" "http://www.w3.org/TR/2001/REC-SVG-20010904/DTD/svg10.dtd">
<!-- Creator: CorelDRAW 2018 (64-Bit) -->
<svg xmlns="http://www.w3.org/2000/svg" xml:space="preserve" width="181px" height="181px" version="1.0" style="shape-rendering:geometricPrecision; text-rendering:geometricPrecision; image-rendering:optimizeQuality; fill-rule:evenodd; clip-rule:evenodd"
viewBox="0 0 15.92 15.92"
 xmlns:xlink="http://www.w3.org/1999/xlink">
 <defs>
  <style type="text/css">
   <![CDATA[
    .fil0 {fill:none}
    .fil1 {fill:#FF753E;fill-rule:nonzero}
   ]]>
  </style>
 </defs>
 <g id="Слой_x0020_1">
  <metadata id="CorelCorpID_0Corel-Layer"/>
  <rect class="fil0" width="15.92" height="15.92"/>
  <path class="fil1" d="M12.03 5.51l-0.01 -0.02c-0.03,-0.09 -1.71,-3.8 -1.71,-3.8 0,0 -1.68,3.71 -1.71,3.79l-0.01 0.03c-0.07,0.19 -0.11,0.4 -0.11,0.62 0,1.01 0.82,1.83 1.83,1.83 1.01,0 1.83,-0.82 1.83,-1.83 0,-0.22 -0.04,-0.43 -0.11,-0.62zm-2.35 6.28l-0.01 -0.03c-0.03,-0.08 -1.71,-3.8 -1.71,-3.8 0,0 -1.68,3.72 -1.71,3.8l-0.01 0.03c-0.07,0.19 -0.11,0.39 -0.11,0.61 0,1.01 0.82,1.83 1.83,1.83 1.01,0 1.83,-0.82 1.83,-1.83 0,-0.22 -0.04,-0.42 -0.11,-0.61zm-3.4 -4.45l-0.01 -0.02c-0.03,-0.09 -1.71,-3.8 -1.71,-3.8 0,0 -1.68,3.71 -1.71,3.79l-0.01 0.03c-0.07,0.19 -0.11,0.4 -0.11,0.62 0,1.01 0.82,1.83 1.83,1.83 1.01,0 1.83,-0.82 1.83,-1.83 0,-0.22 -0.04,-0.43 -0.11,-0.62z"/>
 </g>
</svg>
