<?xml version="1.0" encoding="UTF-8"?>
<!DOCTYPE svg PUBLIC "-//W3C//DTD SVG 1.0//EN" "http://www.w3.org/TR/2001/REC-SVG-20010904/DTD/svg10.dtd">
<!-- Creator: CorelDRAW 2018 (64-Bit) -->
<svg xmlns="http://www.w3.org/2000/svg" xml:space="preserve" width="143px" height="78px" version="1.0" style="shape-rendering:geometricPrecision; text-rendering:geometricPrecision; image-rendering:optimizeQuality; fill-rule:evenodd; clip-rule:evenodd"
viewBox="0 0 1.34 0.73"
 xmlns:xlink="http://www.w3.org/1999/xlink">
 <defs>
  <style type="text/css">
   <![CDATA[
    .fil0 {fill:#56698F;fill-rule:nonzero}
   ]]>
  </style>
 </defs>
 <g id="Слой_x0020_1">
  <metadata id="CorelCorpID_0Corel-Layer"/>
  <path class="fil0" d="M1.17 0.4c-0.09,0 -0.17,0.07 -0.17,0.17 0,0.04 0.02,0.08 0.05,0.11l-1.05 0 0 0.05 1.17 0c0.09,0 0.17,-0.07 0.17,-0.16 0,-0.1 -0.08,-0.17 -0.17,-0.17zm-0.55 0l0 -0.4 0.06 0 0 0.4 0.08 0 -0.11 0.25 -0.11 -0.25 0.08 0zm-0.25 0l0 -0.4 0.05 0 0 0.4 0.08 0 -0.11 0.25 -0.1 -0.25 0.08 0zm-0.26 0l0 -0.4 0.06 0 0 0.4 0.07 0 -0.1 0.25 -0.11 -0.25 0.08 0z"/>
 </g>
</svg>
