<?xml version="1.0" encoding="UTF-8"?>
<!DOCTYPE svg PUBLIC "-//W3C//DTD SVG 1.0//EN" "http://www.w3.org/TR/2001/REC-SVG-20010904/DTD/svg10.dtd">
<!-- Creator: CorelDRAW 2018 (64-Bit) -->
<svg xmlns="http://www.w3.org/2000/svg" xml:space="preserve" width="143px" height="78px" version="1.0" style="shape-rendering:geometricPrecision; text-rendering:geometricPrecision; image-rendering:optimizeQuality; fill-rule:evenodd; clip-rule:evenodd"
viewBox="0 0 2.12 1.16"
 xmlns:xlink="http://www.w3.org/1999/xlink">
 <defs>
  <style type="text/css">
   <![CDATA[
    .fil0 {fill:#5B5B5B;fill-rule:nonzero}
   ]]>
  </style>
 </defs>
 <g id="Слой_x0020_1">
  <metadata id="CorelCorpID_0Corel-Layer"/>
  <path class="fil0" d="M1.86 0.63c-0.15,0 -0.27,0.12 -0.27,0.27 0,0.07 0.03,0.13 0.07,0.18l-1.66 0 0 0.08 1.86 0c0.14,0 0.26,-0.12 0.26,-0.26 0,-0.15 -0.12,-0.27 -0.26,-0.27zm-0.87 0.01l0 -0.64 0.09 0 0 0.64 0.12 0 -0.17 0.39 -0.17 -0.39 0.13 0zm-0.41 0l0 -0.64 0.09 0 0 0.64 0.12 0 -0.17 0.39 -0.16 -0.39 0.12 0zm-0.41 0l0 -0.64 0.09 0 0 0.64 0.13 0 -0.17 0.39 -0.17 -0.39 0.12 0z"/>
 </g>
</svg>
