<?xml version="1.0" encoding="UTF-8"?>
<!DOCTYPE svg PUBLIC "-//W3C//DTD SVG 1.0//EN" "http://www.w3.org/TR/2001/REC-SVG-20010904/DTD/svg10.dtd">
<!-- Creator: CorelDRAW 2018 (64-Bit) -->
<svg xmlns="http://www.w3.org/2000/svg" xml:space="preserve" width="117px" height="20px" version="1.0" style="shape-rendering:geometricPrecision; text-rendering:geometricPrecision; image-rendering:optimizeQuality; fill-rule:evenodd; clip-rule:evenodd"
viewBox="0 0 72.97 12.4"
 xmlns:xlink="http://www.w3.org/1999/xlink">
 <defs>
  <style type="text/css">
   <![CDATA[
    .fil0 {fill:#4D4D4D}
   ]]>
  </style>
 </defs>
 <g id="Слой_x0020_1">
  <metadata id="CorelCorpID_0Corel-Layer"/>
  <path class="fil0" d="M3.84 3.66l2.26 0 0 1.97 -2.19 0 0 6.64 -2.55 0 0 -6.64 -1.36 0 0 -1.97 1.36 0 0 -0.39c0,-1 0.29,-1.8 0.89,-2.39 0.59,-0.59 1.43,-0.88 2.51,-0.88 0.38,0 0.74,0.04 1.09,0.12 0.34,0.08 0.63,0.2 0.85,0.35l-0.67 1.85c-0.29,-0.2 -0.63,-0.31 -1.03,-0.31 -0.77,0 -1.16,0.43 -1.16,1.28l0 0.37zm69.13 -1.14c0,-0.76 -0.62,-1.37 -1.37,-1.37 -0.76,0 -1.38,0.61 -1.38,1.37 0,0.76 0.62,1.37 1.38,1.37 0.75,0 1.37,-0.61 1.37,-1.37zm-3.67 9.32c-0.25,0.19 -0.56,0.32 -0.92,0.42 -0.37,0.09 -0.75,0.14 -1.15,0.14 -1.05,0 -1.86,-0.27 -2.43,-0.8 -0.57,-0.54 -0.86,-1.32 -0.86,-2.36l0 -3.61 -1.36 0 0 -1.97 1.36 0 0 -2.14 2.55 0 0 2.14 2.19 0 0 1.97 -2.19 0 0 3.58c0,0.37 0.1,0.65 0.29,0.86 0.19,0.2 0.46,0.3 0.81,0.3 0.4,0 0.74,-0.11 1.03,-0.33l0.68 1.8zm-11.39 0.56c-0.74,0 -1.45,-0.09 -2.15,-0.27 -0.69,-0.18 -1.25,-0.41 -1.67,-0.68l0.86 -1.83c0.39,0.25 0.86,0.45 1.42,0.61 0.55,0.16 1.1,0.24 1.63,0.24 1.08,0 1.62,-0.27 1.62,-0.8 0,-0.26 -0.14,-0.44 -0.44,-0.54 -0.29,-0.11 -0.75,-0.21 -1.36,-0.28 -0.72,-0.11 -1.31,-0.24 -1.78,-0.38 -0.47,-0.14 -0.87,-0.39 -1.22,-0.75 -0.34,-0.36 -0.51,-0.87 -0.51,-1.54 0,-0.55 0.16,-1.05 0.48,-1.48 0.32,-0.43 0.79,-0.76 1.41,-1 0.61,-0.24 1.34,-0.36 2.18,-0.36 0.62,0 1.24,0.06 1.86,0.2 0.61,0.14 1.12,0.33 1.53,0.57l-0.85 1.81c-0.78,-0.44 -1.62,-0.65 -2.54,-0.65 -0.55,0 -0.95,0.07 -1.23,0.22 -0.27,0.16 -0.41,0.35 -0.41,0.59 0,0.28 0.15,0.47 0.45,0.58 0.29,0.1 0.76,0.21 1.4,0.31 0.72,0.12 1.31,0.25 1.77,0.38 0.46,0.14 0.85,0.39 1.19,0.75 0.34,0.35 0.51,0.86 0.51,1.5 0,0.54 -0.16,1.03 -0.49,1.46 -0.33,0.42 -0.8,0.75 -1.43,0.98 -0.63,0.24 -1.37,0.36 -2.23,0.36zm-9.51 -9.06c1.37,0 2.41,0.32 3.14,0.97 0.73,0.65 1.1,1.63 1.1,2.94l0 5.02 -2.39 0 0 -1.1c-0.48,0.82 -1.37,1.23 -2.68,1.23 -0.68,0 -1.26,-0.12 -1.76,-0.35 -0.49,-0.23 -0.87,-0.54 -1.13,-0.95 -0.27,-0.4 -0.4,-0.86 -0.4,-1.37 0,-0.82 0.31,-1.46 0.93,-1.93 0.61,-0.47 1.56,-0.7 2.85,-0.7l2.03 0c0,-0.56 -0.17,-0.99 -0.51,-1.29 -0.34,-0.3 -0.84,-0.45 -1.52,-0.45 -0.47,0 -0.93,0.08 -1.38,0.22 -0.45,0.15 -0.84,0.35 -1.15,0.6l-0.92 -1.78c0.48,-0.34 1.05,-0.6 1.73,-0.79 0.67,-0.18 1.36,-0.27 2.06,-0.27zm-0.19 7.34c0.43,0 0.82,-0.1 1.16,-0.3 0.34,-0.2 0.58,-0.5 0.72,-0.89l0 -0.9 -1.75 0c-1.05,0 -1.57,0.34 -1.57,1.03 0,0.32 0.13,0.58 0.38,0.77 0.26,0.19 0.61,0.29 1.06,0.29zm-8.77 1.72c-0.93,0 -1.78,-0.2 -2.52,-0.58 -0.75,-0.39 -1.33,-0.93 -1.75,-1.62 -0.42,-0.68 -0.63,-1.46 -0.63,-2.33 0,-0.88 0.21,-1.66 0.63,-2.34 0.42,-0.69 1,-1.23 1.75,-1.61 0.74,-0.39 1.59,-0.58 2.52,-0.58 0.93,0 1.74,0.19 2.43,0.58 0.69,0.38 1.2,0.94 1.51,1.66l-1.97 1.06c-0.46,-0.81 -1.12,-1.21 -1.98,-1.21 -0.67,0 -1.22,0.22 -1.66,0.65 -0.43,0.44 -0.65,1.03 -0.65,1.79 0,0.75 0.22,1.34 0.65,1.78 0.44,0.43 0.99,0.65 1.66,0.65 0.87,0 1.53,-0.4 1.98,-1.21l1.97 1.08c-0.31,0.7 -0.82,1.24 -1.51,1.64 -0.69,0.39 -1.5,0.59 -2.43,0.59zm-5.95 -4.5c0,0.03 -0.02,0.26 -0.05,0.69l-6.65 0c0.12,0.54 0.4,0.97 0.85,1.29 0.44,0.31 1,0.47 1.66,0.47 0.46,0 0.87,-0.07 1.22,-0.2 0.36,-0.14 0.69,-0.35 0.99,-0.65l1.36 1.47c-0.83,0.95 -2.04,1.43 -3.63,1.43 -0.99,0 -1.87,-0.2 -2.63,-0.58 -0.77,-0.39 -1.36,-0.93 -1.77,-1.62 -0.41,-0.68 -0.62,-1.46 -0.62,-2.33 0,-0.86 0.2,-1.64 0.61,-2.33 0.41,-0.7 0.97,-1.24 1.69,-1.62 0.71,-0.39 1.51,-0.58 2.39,-0.58 0.86,0 1.64,0.18 2.34,0.55 0.7,0.37 1.25,0.9 1.64,1.6 0.4,0.69 0.6,1.49 0.6,2.41zm-4.56 -2.63c-0.58,0 -1.06,0.16 -1.46,0.49 -0.39,0.32 -0.63,0.77 -0.72,1.34l4.34 0c-0.09,-0.56 -0.33,-1 -0.72,-1.34 -0.39,-0.33 -0.88,-0.49 -1.44,-0.49zm-8.52 -0.64c0.3,-0.43 0.72,-0.75 1.23,-0.97 0.52,-0.21 1.12,-0.32 1.79,-0.32l0 2.35c-0.28,-0.02 -0.47,-0.03 -0.57,-0.03 -0.73,0 -1.3,0.2 -1.72,0.61 -0.41,0.41 -0.62,1.02 -0.62,1.84l0 4.16 -2.55 0 0 -8.8 2.44 0 0 1.16zm-8.96 7.77c-0.93,0 -1.76,-0.2 -2.5,-0.58 -0.73,-0.39 -1.31,-0.93 -1.72,-1.62 -0.42,-0.68 -0.62,-1.46 -0.62,-2.33 0,-0.88 0.2,-1.66 0.62,-2.34 0.41,-0.69 0.99,-1.23 1.72,-1.61 0.74,-0.39 1.57,-0.58 2.5,-0.58 0.92,0 1.75,0.19 2.48,0.58 0.73,0.38 1.31,0.92 1.72,1.61 0.41,0.68 0.62,1.46 0.62,2.34 0,0.87 -0.21,1.65 -0.62,2.33 -0.41,0.69 -0.99,1.23 -1.72,1.62 -0.73,0.38 -1.56,0.58 -2.48,0.58zm0 -2.1c0.65,0 1.19,-0.22 1.61,-0.66 0.42,-0.44 0.63,-1.03 0.63,-1.77 0,-0.74 -0.21,-1.34 -0.63,-1.78 -0.42,-0.44 -0.96,-0.66 -1.61,-0.66 -0.66,0 -1.2,0.22 -1.62,0.66 -0.43,0.44 -0.64,1.04 -0.64,1.78 0,0.74 0.21,1.33 0.64,1.77 0.42,0.44 0.96,0.66 1.62,0.66z"/>
 </g>
</svg>
