<?xml version="1.0" encoding="UTF-8"?>
<!DOCTYPE svg PUBLIC "-//W3C//DTD SVG 1.0//EN" "http://www.w3.org/TR/2001/REC-SVG-20010904/DTD/svg10.dtd">
<!-- Creator: CorelDRAW 2018 (64-Bit) -->
<svg xmlns="http://www.w3.org/2000/svg" xml:space="preserve" width="181px" height="181px" version="1.0" style="shape-rendering:geometricPrecision; text-rendering:geometricPrecision; image-rendering:optimizeQuality; fill-rule:evenodd; clip-rule:evenodd"
viewBox="0 0 15.92 15.92"
 xmlns:xlink="http://www.w3.org/1999/xlink">
 <defs>
  <style type="text/css">
   <![CDATA[
    .fil1 {fill:none}
    .fil0 {fill:#FF753E;fill-rule:nonzero}
   ]]>
  </style>
 </defs>
 <g id="Слой_x0020_1">
  <metadata id="CorelCorpID_0Corel-Layer"/>
  <path class="fil0" d="M12.66 8.26c-0.86,0 -1.56,0.7 -1.56,1.57 0,0.4 0.15,0.77 0.4,1.04l-9.81 0 0 0.53 10.97 0c0.87,0 1.57,-0.71 1.57,-1.57 0,-0.87 -0.7,-1.57 -1.57,-1.57zm-5.14 0.02l0 -3.76 0.52 0 0 3.76 0.74 0 -1 2.34 -1 -2.34 0.74 0zm-2.4 0l0 -3.76 0.52 0 0 3.76 0.74 0 -1 2.34 -1 -2.34 0.74 0zm-2.4 0l0 -3.76 0.52 0 0 3.76 0.74 0 -1 2.34 -1 -2.34 0.74 0z"/>
  <rect class="fil1" width="15.92" height="15.92"/>
 </g>
</svg>
