<?xml version="1.0" encoding="UTF-8"?>
<!DOCTYPE svg PUBLIC "-//W3C//DTD SVG 1.0//EN" "http://www.w3.org/TR/2001/REC-SVG-20010904/DTD/svg10.dtd">
<!-- Creator: CorelDRAW 2018 (64-Bit) -->
<svg xmlns="http://www.w3.org/2000/svg" xml:space="preserve" width="143px" height="110px" version="1.0" style="shape-rendering:geometricPrecision; text-rendering:geometricPrecision; image-rendering:optimizeQuality; fill-rule:evenodd; clip-rule:evenodd"
viewBox="0 0 1.34 1.03"
 xmlns:xlink="http://www.w3.org/1999/xlink">
 <defs>
  <style type="text/css">
   <![CDATA[
    .fil0 {fill:#56698F;fill-rule:nonzero}
   ]]>
  </style>
 </defs>
 <g id="Слой_x0020_1">
  <metadata id="CorelCorpID_0Corel-Layer"/>
  <path class="fil0" d="M1.17 0.2c-0.09,0 -0.17,0.07 -0.17,0.16 0,0.05 0.02,0.08 0.05,0.11l-1.05 0 0 0.06 1.17 0c0.09,0 0.17,-0.08 0.17,-0.17 0,-0.09 -0.08,-0.16 -0.17,-0.16zm-0.36 0.5l0 0 0 0 0 0 -0.81 0 0 0.05 0.64 0 0 0 0.04 0c-0.03,0.03 -0.05,0.07 -0.05,0.11 0,0.1 0.08,0.17 0.17,0.17 0.09,0 0.17,-0.07 0.17,-0.17 0,-0.09 -0.07,-0.16 -0.16,-0.16zm-0.17 -0.53c0,-0.1 -0.07,-0.17 -0.17,-0.17 -0.09,0 -0.16,0.07 -0.16,0.17 0,0.04 0.01,0.08 0.04,0.11l-0.35 0 0 0.05 0.47 0c0.1,0 0.17,-0.07 0.17,-0.16z"/>
 </g>
</svg>
