<?xml version="1.0" encoding="UTF-8"?>
<!DOCTYPE svg PUBLIC "-//W3C//DTD SVG 1.0//EN" "http://www.w3.org/TR/2001/REC-SVG-20010904/DTD/svg10.dtd">
<!-- Creator: CorelDRAW 2018 (64-Bit) -->
<svg xmlns="http://www.w3.org/2000/svg" xml:space="preserve" width="77px" height="143px" version="1.0" style="shape-rendering:geometricPrecision; text-rendering:geometricPrecision; image-rendering:optimizeQuality; fill-rule:evenodd; clip-rule:evenodd"
viewBox="0 0 0.29 0.53"
 xmlns:xlink="http://www.w3.org/1999/xlink">
 <defs>
  <style type="text/css">
   <![CDATA[
    .fil0 {fill:#FF753E;fill-rule:nonzero}
   ]]>
  </style>
 </defs>
 <g id="Слой_x0020_1">
  <metadata id="CorelCorpID_0Corel-Layer"/>
  <path class="fil0" d="M0.16 0l0 0 0 0c-0.03,0 -0.05,0.03 -0.05,0.06l0 0.24c-0.04,0.02 -0.07,0.06 -0.07,0.11 0,0.06 0.06,0.12 0.12,0.12l0 0 0 0 0 0c0.07,0 0.13,-0.06 0.13,-0.12 0,-0.05 -0.03,-0.09 -0.07,-0.11l0 -0.24c0,-0.03 -0.03,-0.06 -0.06,-0.06l0 0zm-0.07 0.24l-0.09 0 0 -0.02 0.09 0 0 0.02zm0 -0.04l-0.09 0 0 -0.02 0.09 0 0 0.02zm0 -0.05l-0.09 0 0 -0.02 0.09 0 0 0.02zm0 -0.04l-0.09 0 0 -0.02 0.09 0 0 0.02zm0 -0.04l-0.09 0 0 -0.03 0.09 0 0 0.03zm0.07 -0.05l0 0.48c-0.05,0 -0.09,-0.04 -0.09,-0.09 0,-0.04 0.02,-0.07 0.05,-0.09l0.01 -0.01 0 -0.01 0 -0.24c0,-0.02 0.02,-0.04 0.03,-0.04z"/>
 </g>
</svg>
