<?xml version="1.0" encoding="UTF-8"?>
<!DOCTYPE svg PUBLIC "-//W3C//DTD SVG 1.0//EN" "http://www.w3.org/TR/2001/REC-SVG-20010904/DTD/svg10.dtd">
<!-- Creator: CorelDRAW 2018 (64-Bit) -->
<svg xmlns="http://www.w3.org/2000/svg" xml:space="preserve" width="2306px" height="2306px" version="1.0" style="shape-rendering:geometricPrecision; text-rendering:geometricPrecision; image-rendering:optimizeQuality; fill-rule:evenodd; clip-rule:evenodd"
viewBox="0 0 51.67 51.67"
 xmlns:xlink="http://www.w3.org/1999/xlink">
 <defs>
  <style type="text/css">
   <![CDATA[
    .fil0 {fill:none}
    .fil1 {fill:#006C7F}
   ]]>
  </style>
 </defs>
 <g id="Слой_x0020_1">
  <metadata id="CorelCorpID_0Corel-Layer"/>
  <rect class="fil0" width="51.67" height="51.67"/>
  <path class="fil1" d="M28.68 15.88c0,5.07 -4.12,9.19 -9.19,9.19 -5.07,0 -9.19,-4.12 -9.19,-9.19 0,-5.08 4.12,-9.19 9.19,-9.19l9.19 0 0 9.19z"/>
  <path class="fil1" d="M51.67 9.19c0,5.07 -4.11,9.18 -9.18,9.18 -5.08,0 -9.19,-4.11 -9.19,-9.18 0,-5.08 4.11,-9.19 9.19,-9.19l9.18 0 0 9.19z"/>
  <path class="fil1" d="M47.05 32.55c0,5.08 -4.11,9.19 -9.18,9.19 -5.08,0 -9.19,-4.11 -9.19,-9.19 0,-5.07 4.11,-9.18 9.19,-9.18l9.18 0 0 9.18z"/>
  <path class="fil1" d="M24.59 38.91c0,5.08 -4.11,9.19 -9.19,9.19 -5.07,0 -9.19,-4.11 -9.19,-9.19 0,-5.07 4.12,-9.18 9.19,-9.18l9.19 0 0 9.18z"/>
 </g>
</svg>
