<?xml version="1.0" encoding="UTF-8"?>
<!DOCTYPE svg PUBLIC "-//W3C//DTD SVG 1.0//EN" "http://www.w3.org/TR/2001/REC-SVG-20010904/DTD/svg10.dtd">
<!-- Creator: CorelDRAW 2018 (64-Bit) -->
<svg xmlns="http://www.w3.org/2000/svg" xml:space="preserve" width="107px" height="143px" version="1.0" style="shape-rendering:geometricPrecision; text-rendering:geometricPrecision; image-rendering:optimizeQuality; fill-rule:evenodd; clip-rule:evenodd"
viewBox="0 0 0.75 1"
 xmlns:xlink="http://www.w3.org/1999/xlink">
 <defs>
  <style type="text/css">
   <![CDATA[
    .fil0 {fill:#56698F;fill-rule:nonzero}
   ]]>
  </style>
 </defs>
 <g id="Слой_x0020_1">
  <metadata id="CorelCorpID_0Corel-Layer"/>
  <path class="fil0" d="M0.74 0.3l0 0c0,0 -0.14,-0.3 -0.14,-0.3 0,0 -0.13,0.3 -0.13,0.3l0 0c-0.01,0.02 -0.01,0.04 -0.01,0.05 0,0.08 0.06,0.15 0.14,0.15 0.08,0 0.15,-0.07 0.15,-0.15 0,-0.01 0,-0.03 -0.01,-0.05zm-0.19 0.5l0 0c0,0 -0.13,-0.3 -0.13,-0.3 0,0 -0.14,0.3 -0.14,0.3l0 0c-0.01,0.02 -0.01,0.04 -0.01,0.05 0,0.08 0.07,0.15 0.15,0.15 0.08,0 0.14,-0.07 0.14,-0.15 0,-0.01 0,-0.03 -0.01,-0.05zm-0.27 -0.35l0 0c0,-0.01 -0.13,-0.3 -0.13,-0.3 0,0 -0.14,0.29 -0.14,0.3l0 0c-0.01,0.02 -0.01,0.03 -0.01,0.05 0,0.08 0.07,0.15 0.15,0.15 0.08,0 0.14,-0.07 0.14,-0.15 0,-0.02 0,-0.03 -0.01,-0.05z"/>
 </g>
</svg>
