<?xml version="1.0" encoding="UTF-8"?>
<!DOCTYPE svg PUBLIC "-//W3C//DTD SVG 1.0//EN" "http://www.w3.org/TR/2001/REC-SVG-20010904/DTD/svg10.dtd">
<!-- Creator: CorelDRAW 2018 (64-Bit) -->
<svg xmlns="http://www.w3.org/2000/svg" xml:space="preserve" width="2306px" height="2306px" version="1.0" style="shape-rendering:geometricPrecision; text-rendering:geometricPrecision; image-rendering:optimizeQuality; fill-rule:evenodd; clip-rule:evenodd"
viewBox="0 0 2012.64 2012.64"
 xmlns:xlink="http://www.w3.org/1999/xlink">
 <defs>
  <style type="text/css">
   <![CDATA[
    .fil1 {fill:none}
    .fil0 {fill:#4D4D4D;fill-rule:nonzero}
   ]]>
  </style>
 </defs>
 <g id="Слой_x0020_1">
  <metadata id="CorelCorpID_0Corel-Layer"/>
  <path class="fil0" d="M1896.35 541.89c38.84,3.6 77.61,-1.23 116.29,-7.24l0 61.4c-54.06,-23 -110.67,-41.32 -166.67,-58.39 -64.05,-19.5 -142.21,-56.32 -138.7,-123.14 6.91,-130.93 175.61,-208.21 305.37,-231.57l0 8.89c-52.61,16.26 -109.58,28.03 -154.9,53.69 -141.92,80.24 -152.17,278.71 38.61,296.36zm116.29 581.2l0 78.82c-32.77,9.55 -66.38,16.82 -99.46,25.26 -59.43,15.22 -117.5,32.48 -169.68,62.93 -28.89,16.82 -82.73,45.23 -101.65,-4.57 -13.61,-35.75 21.5,-71.15 55.74,-88.27 96.83,-48.42 211.15,-43.92 315.05,-74.17zm0 143.17l0 526.73c-91.45,31.99 -197.48,47.82 -268.65,-14.22 -28.7,-25.01 -58.99,-63.87 -94.99,-51.57 -16.09,5.44 -26.89,20.19 -36.61,34.05 -64.35,91.56 -133.11,186.01 -221.92,251.39l-590.04 0c-57.73,-39.13 -102.2,-92.33 -115.86,-160.19 -10.54,-52.43 -0.97,-106.67 -3.2,-160.11 -1.28,-29.91 -7.74,-61.49 -21.49,-87.84 8.12,-1.14 16.2,-2.41 24.21,-3.79 99.26,-17.02 196.09,-49.41 296.51,-56.75 14.11,-1.02 30.21,-0.78 39.78,9.63 8.18,8.84 8.71,22.07 9.58,34.09 9.44,130.34 122.02,245.5 252.11,257.84 130.1,12.34 262.37,-79.58 296.12,-205.8 9.78,-36.62 12.11,-75.04 23.59,-111.13 43.73,-137.63 199.93,-199.68 338.54,-240.2 23.76,-6.95 48.07,-14.21 72.32,-22.13zm-1630.27 294.28c-66.06,13.17 -131.63,30.46 -197.78,43.09 -60.4,11.55 -123.24,18.93 -184.59,15.95l0 -704.9c25,-4.03 50.43,-6.79 76,-8.55 51.67,101.81 138.88,180.53 226.09,254.32 15.17,12.83 31.17,26.79 36.53,45.9 9.96,35.8 -20.54,68.38 -38.24,101.07 -46.46,85.67 0.72,198.72 81.99,253.12zm-101.27 -652.5l-0.12 -0.16 -0.12 -0.16 -1.15 -1.62 -0.12 -0.16 -0.11 -0.16 -0.11 -0.16 -0.12 -0.17 -0.11 -0.16 -0.79 -1.14 -0.12 -0.17 -0.78 -1.15 -0.11 -0.16 -0.01 -0.01 -0.43 -0.66 -0.11 -0.16c-0.41,-0.61 -0.81,-1.22 -1.21,-1.83l-0.07 -0.12 -0.04 -0.05 -0.1 -0.17c-0.47,-0.72 -0.94,-1.45 -1.39,-2.18 -13.67,-21.93 -22.96,-47.47 -21.5,-73.29 1.99,-34.04 22.76,-65.17 50.23,-85.35 27.49,-20.22 61.04,-30.69 94.7,-36.33 127.27,-21.49 256.1,20.58 376.02,68.33l0.89 0.35 0.9 0.36 2.68 1.07 0.89 0.36 0.26 0.1 0.64 0.26 2.68 1.07 0.9 0.36 0.89 0.35 0.52 0.21 0.38 0.15 0.89 0.36 0.89 0.36 0.9 0.36 0.89 0.36 0.9 0.36 0.77 0.31 0.12 0.05 0.9 0.36 0.89 0.36 0.9 0.36 0.89 0.36 0.9 0.36 0.89 0.36 0.14 0.05 0.76 0.31 0.89 0.36 0.9 0.36 0.89 0.36 0.9 0.36 0.9 0.36 0.39 0.16 1.4 0.57 0.89 0.36 0.9 0.36 0.89 0.36 0.9 0.36 0.89 0.37 0.9 0.36 0.9 0.36 0.89 0.36 0.9 0.36 0.89 0.37 0.9 0.36 0.02 0 0.88 0.36 0.89 0.36 0.9 0.36 0.9 0.37 0.89 0.36 0.9 0.36 0.27 0.11 0.63 0.25 0.89 0.36 0.9 0.37 0.9 0.36 0.89 0.36 0.9 0.36 0.53 0.22 0.37 0.15 0.9 0.36 0.89 0.36 0.9 0.36 0.9 0.36 0.89 0.37 0.8 0.31 0.1 0.05 0.9 0.36c101.27,40.81 204.02,80.25 312.48,84.75 37.79,1.55 78.68,-2.33 107.53,-26.85 24.12,-20.52 35.74,-52.27 41.05,-83.5 8.99,-52.86 2.76,-106.99 2.57,-160.63 -0.19,-53.6 6.66,-110.01 37.88,-153.58 33.51,-46.84 89.83,-72.7 141.86,-93.13 -46.83,31.32 -106.16,96.33 -127.51,148.09 -25.73,62.24 -7.39,134.61 24.65,193.89 21.74,40.22 50.39,79.56 52.73,125.28 2.43,47.12 -25.15,92.25 -63.09,120.27 -37.97,28.06 -85.05,41.04 -131.79,47.56 -80.24,11.13 -162.91,4.51 -240.39,-19.26 -69.49,-21.35 -137.58,-56.76 -210.18,-52.81 -61.62,3.39 -117.65,34.72 -176.11,54.6 -57.62,19.6 -120.12,28.11 -179.84,16.25 -55.55,-11.08 -108.39,-41.1 -141.49,-86.81zm362.04 524.35c-38.71,1.08 -83.11,-10.11 -100.23,-44.83 -15.41,-31.22 -1.5,-70.77 24.07,-94.45 25.59,-23.68 60.16,-34.67 94.02,-43.03 50.82,-12.6 102.95,-20.82 152.11,-38.96 49.12,-18.18 96.25,-47.85 122.94,-92.94 -95.76,70.66 -219.62,86.52 -333.75,120.13 -53.88,15.85 -109.19,38.03 -144.2,81.98 -34.96,43.98 -40.85,115.46 1.06,152.86 20.97,18.72 49.51,25.97 76.85,32.54 26.65,6.46 53.3,12.88 79.95,19.35 43.72,10.55 171.47,37.39 194.09,-26.27 29.96,-84.46 -129.32,-67.39 -166.91,-66.38zm924.56 -999.63c26.16,-52.43 68.8,-98.15 120.21,-126.59 49.12,-27.24 95.27,-62.1 151.2,-74.75 -115.12,26.02 -224.15,78.64 -316.12,152.56 -38.16,30.64 -74.45,66.43 -92.44,111.96 -29.62,75.08 1.9,169.28 70.71,211.45 35.5,21.73 77.42,29.95 115.94,45.71 38.52,15.81 76.64,43.28 85.83,83.89 11.68,51.6 -28.55,101.69 -74.45,128 -65.95,37.84 -144.98,44.98 -215.06,74.36 -45.9,19.21 -87.72,48.09 -121.96,84.18 -28.74,30.25 -52.96,67.84 -54.62,109.53 -1.06,27.23 7.59,54.07 20.33,78.09 23.5,44.21 66.53,82.78 116.57,82.53 43,-0.2 82.49,-30.2 101.25,-68.86 18.78,-38.71 19.11,-84.42 8.81,-126.19 -3.94,-15.92 -9.39,-32.21 -6.61,-48.39 3.69,-22 21.59,-38.57 39.39,-52 60.06,-45.13 131.99,-74.25 206.54,-83.59 33.36,-4.24 67.84,-4.68 98.96,-17.37 39.39,-15.99 69.26,-50.43 87.1,-89.04 16.98,-36.82 23.83,-80.58 7.74,-117.74 -15.86,-36.53 -51.06,-61.03 -87.35,-77.38 -55.3,-24.89 -116.23,-35.4 -171.23,-60.93 -54.96,-25.53 -106.41,-72.61 -111.17,-133.06 -2.34,-29.86 7.05,-59.52 20.43,-86.37z"/>
  <rect class="fil1" width="2012.64" height="2012.64"/>
 </g>
</svg>
