<?xml version="1.0" encoding="UTF-8"?>
<!DOCTYPE svg PUBLIC "-//W3C//DTD SVG 1.0//EN" "http://www.w3.org/TR/2001/REC-SVG-20010904/DTD/svg10.dtd">
<!-- Creator: CorelDRAW 2018 (64-Bit) -->
<svg xmlns="http://www.w3.org/2000/svg" xml:space="preserve" width="107px" height="143px" version="1.0" style="shape-rendering:geometricPrecision; text-rendering:geometricPrecision; image-rendering:optimizeQuality; fill-rule:evenodd; clip-rule:evenodd"
viewBox="0 0 0.37 0.5"
 xmlns:xlink="http://www.w3.org/1999/xlink">
 <defs>
  <style type="text/css">
   <![CDATA[
    .fil0 {fill:#00DAFF;fill-rule:nonzero}
   ]]>
  </style>
 </defs>
 <g id="Слой_x0020_1">
  <metadata id="CorelCorpID_0Corel-Layer"/>
  <path class="fil0" d="M0.37 0.15l0 0c0,0 -0.07,-0.15 -0.07,-0.15 0,0 -0.07,0.15 -0.07,0.15l0 0c0,0.01 0,0.02 0,0.03 0,0.04 0.03,0.07 0.07,0.07 0.04,0 0.07,-0.03 0.07,-0.07 0,-0.01 0,-0.02 0,-0.03zm-0.09 0.25l0 0c-0.01,0 -0.07,-0.15 -0.07,-0.15 0,0 -0.07,0.15 -0.07,0.15l0 0c0,0.01 -0.01,0.02 -0.01,0.03 0,0.04 0.04,0.07 0.08,0.07 0.04,0 0.07,-0.03 0.07,-0.07 0,-0.01 0,-0.02 0,-0.03zm-0.14 -0.18l0 0c0,0 -0.07,-0.15 -0.07,-0.15 0,0 -0.06,0.15 -0.07,0.15l0 0c0,0.01 0,0.02 0,0.03 0,0.04 0.03,0.07 0.07,0.07 0.04,0 0.08,-0.03 0.08,-0.07 0,-0.01 -0.01,-0.02 -0.01,-0.03z"/>
 </g>
</svg>
