<?xml version="1.0" encoding="UTF-8"?>
<!DOCTYPE svg PUBLIC "-//W3C//DTD SVG 1.0//EN" "http://www.w3.org/TR/2001/REC-SVG-20010904/DTD/svg10.dtd">
<!-- Creator: CorelDRAW 2018 (64-Bit) -->
<svg xmlns="http://www.w3.org/2000/svg" xml:space="preserve" width="181px" height="181px" version="1.0" style="shape-rendering:geometricPrecision; text-rendering:geometricPrecision; image-rendering:optimizeQuality; fill-rule:evenodd; clip-rule:evenodd"
viewBox="0 0 181 181"
 xmlns:xlink="http://www.w3.org/1999/xlink">
 <defs>
  <style type="text/css">
   <![CDATA[
    .fil1 {fill:none}
    .fil0 {fill:#FF753E;fill-rule:nonzero}
   ]]>
  </style>
 </defs>
 <g id="Слой_x0020_1">
  <metadata id="CorelCorpID_0Corel-Layer"/>
  <path class="fil0" d="M96.27 19.17l-0.13 0 0 0c-8.06,0.18 -14.56,7.43 -14.56,16.35l0 64.52c-10.57,5.41 -17.83,16.4 -17.83,29.1 0,17.95 14.48,32.52 32.39,32.68l0 0.01 0.21 0 0.09 0c18.06,0 32.7,-14.64 32.7,-32.69 0,-12.7 -7.26,-23.69 -17.84,-29.1l0 -64.52c0,-9.03 -6.65,-16.35 -14.86,-16.35l-0.17 0zm-20.63 65.38l-23.78 0 0 -5.94 23.78 0 0 5.94zm0 -11.88l-23.78 0 0 -5.95 23.78 0 0 5.95zm0 -11.89l-23.78 0 0 -5.95 23.78 0 0 5.95zm0 -11.89l-23.78 0 0 -5.95 23.78 0 0 5.95zm0 -11.89l-23.78 0 0 -5.94 23.78 0 0 5.94zm20.5 -11.88l0 130.76c-14.61,-0.16 -26.44,-12.1 -26.44,-26.74 0,-10.08 5.59,-19.2 14.59,-23.81l3.24 -1.65 0 -3.64 0 -64.52c0,-5.62 3.83,-10.21 8.61,-10.4z"/>
  <rect class="fil1" width="181" height="181"/>
 </g>
</svg>
