<?xml version="1.0" encoding="UTF-8"?>
<!DOCTYPE svg PUBLIC "-//W3C//DTD SVG 1.0//EN" "http://www.w3.org/TR/2001/REC-SVG-20010904/DTD/svg10.dtd">
<!-- Creator: CorelDRAW 2018 (64-Bit) -->
<svg xmlns="http://www.w3.org/2000/svg" xml:space="preserve" width="181px" height="181px" version="1.0" style="shape-rendering:geometricPrecision; text-rendering:geometricPrecision; image-rendering:optimizeQuality; fill-rule:evenodd; clip-rule:evenodd"
viewBox="0 0 29.07 29.07"
 xmlns:xlink="http://www.w3.org/1999/xlink">
 <defs>
  <style type="text/css">
   <![CDATA[
    .fil1 {fill:none}
    .fil0 {fill:#536487;fill-rule:nonzero}
   ]]>
  </style>
 </defs>
 <g id="Слой_x0020_1">
  <metadata id="CorelCorpID_0Corel-Layer"/>
  <path class="fil0" d="M14.56 3.08l-0.02 0 0 0c-1.3,0.03 -2.34,1.19 -2.34,2.62l0 10.37c-1.7,0.87 -2.87,2.63 -2.87,4.67 0,2.89 2.33,5.23 5.21,5.25l0 0 0.03 0 0.01 0c2.91,0 5.26,-2.35 5.26,-5.25 0,-2.04 -1.17,-3.8 -2.87,-4.67l0 -10.37c0,-1.45 -1.07,-2.62 -2.39,-2.62l-0.02 0zm-3.32 10.5l-3.82 0 0 -0.95 3.82 0 0 0.95zm0 -1.91l-3.82 0 0 -0.95 3.82 0 0 0.95zm0 -1.91l-3.82 0 0 -0.95 3.82 0 0 0.95zm0 -1.91l-3.82 0 0 -0.95 3.82 0 0 0.95zm0 -1.91l-3.82 0 0 -0.95 3.82 0 0 0.95zm3.3 -1.91l0 21.01c-2.35,-0.03 -4.25,-1.95 -4.25,-4.3 0,-1.62 0.9,-3.08 2.34,-3.82l0.52 -0.27 0 -0.58 0 -10.37c0,-0.9 0.62,-1.64 1.39,-1.67z"/>
  <rect class="fil1" width="29.07" height="29.07"/>
 </g>
</svg>
