<?xml version="1.0" encoding="UTF-8"?>
<!DOCTYPE svg PUBLIC "-//W3C//DTD SVG 1.0//EN" "http://www.w3.org/TR/2001/REC-SVG-20010904/DTD/svg10.dtd">
<!-- Creator: CorelDRAW 2018 (64-Bit) -->
<svg xmlns="http://www.w3.org/2000/svg" xml:space="preserve" width="181px" height="181px" version="1.0" style="shape-rendering:geometricPrecision; text-rendering:geometricPrecision; image-rendering:optimizeQuality; fill-rule:evenodd; clip-rule:evenodd"
viewBox="0 0 91.39 91.39"
 xmlns:xlink="http://www.w3.org/1999/xlink">
 <defs>
  <style type="text/css">
   <![CDATA[
    .fil0 {fill:none}
    .fil1 {fill:#4D4D4D;fill-rule:nonzero}
   ]]>
  </style>
 </defs>
 <g id="Слой_x0020_1">
  <metadata id="CorelCorpID_0Corel-Layer"/>
  <rect class="fil0" width="91.39" height="91.39"/>
  <path class="fil1" d="M69.09 31.64l-0.06 -0.15c-0.19,-0.47 -9.83,-21.81 -9.83,-21.81 0,0 -9.65,21.33 -9.82,21.8l-0.07 0.16c-0.39,1.1 -0.61,2.29 -0.61,3.54 0,5.81 4.7,10.52 10.5,10.52 5.8,0 10.51,-4.71 10.51,-10.52 0,-1.25 -0.23,-2.44 -0.62,-3.54zm-13.51 36.02l-0.06 -0.15c-0.19,-0.48 -9.82,-21.81 -9.82,-21.81 0,0 -9.66,21.33 -9.83,21.79l-0.06 0.17c-0.39,1.1 -0.62,2.29 -0.62,3.54 0,5.81 4.7,10.51 10.51,10.51 5.8,0 10.5,-4.7 10.5,-10.51 0,-1.25 -0.23,-2.44 -0.62,-3.54zm-19.51 -25.51l-0.06 -0.15c-0.19,-0.48 -9.82,-21.82 -9.82,-21.82 0,0 -9.66,21.34 -9.83,21.8l-0.06 0.17c-0.39,1.1 -0.62,2.28 -0.62,3.53 0,5.81 4.7,10.52 10.51,10.52 5.8,0 10.5,-4.71 10.5,-10.52 0,-1.25 -0.23,-2.43 -0.62,-3.53z"/>
 </g>
</svg>
