<?xml version="1.0" encoding="UTF-8"?>
<!DOCTYPE svg PUBLIC "-//W3C//DTD SVG 1.0//EN" "http://www.w3.org/TR/2001/REC-SVG-20010904/DTD/svg10.dtd">
<!-- Creator: CorelDRAW 2018 (64-Bit) -->
<svg xmlns="http://www.w3.org/2000/svg" xml:space="preserve" width="709px" height="709px" version="1.0" style="shape-rendering:geometricPrecision; text-rendering:geometricPrecision; image-rendering:optimizeQuality; fill-rule:evenodd; clip-rule:evenodd"
viewBox="0 0 27.05 27.05"
 xmlns:xlink="http://www.w3.org/1999/xlink">
 <defs>
  <style type="text/css">
   <![CDATA[
    .fil0 {fill:none}
    .fil1 {fill:#FFC207}
   ]]>
  </style>
 </defs>
 <g id="Слой_x0020_1">
  <metadata id="CorelCorpID_0Corel-Layer"/>
  <rect class="fil0" width="27.05" height="27.05"/>
  <path class="fil1" d="M13.86 4.21c5.05,0 9.16,4.1 9.16,9.16 0,5.06 -4.11,9.16 -9.16,9.16 -1.29,0 -2.51,-0.27 -3.62,-0.75 3.07,-2 5.03,-5.02 5.03,-8.41 0,-3.39 -1.96,-6.42 -5.03,-8.42 1.11,-0.48 2.33,-0.74 3.62,-0.74zm-8.06 16.31l0.42 0.91 0.99 0.11 -0.74 0.68 0.2 0.98 -0.87 -0.49 -0.87 0.49 0.2 -0.98 -0.74 -0.68 1 -0.11 0.41 -0.91zm-3.77 -8.13l0.42 0.91 0.99 0.11 -0.73 0.68 0.19 0.98 -0.87 -0.49 -0.87 0.49 0.2 -0.98 -0.74 -0.68 1 -0.11 0.41 -0.91zm3.29 -8.51l0.41 0.91 1 0.11 -0.74 0.68 0.2 0.98 -0.87 -0.49 -0.87 0.49 0.2 -0.98 -0.74 -0.68 0.99 -0.11 0.42 -0.91z"/>
 </g>
</svg>
